<?xml version="1.0" encoding="utf-8"?>
<!-- Generator: Adobe Illustrator 24.1.0, SVG Export Plug-In . SVG Version: 6.00 Build 0)  -->
<svg version="1.1" id="Layer_1" xmlns="http://www.w3.org/2000/svg" xmlns:xlink="http://www.w3.org/1999/xlink" x="0px" y="0px"
	 viewBox="0 0 864 864" style="enable-background:new 0 0 864 864;" xml:space="preserve">
<style type="text/css">
	.st0{fill:#FFFFFF;}
</style>
<g>
	<path class="st0" d="M340.64,432.32c0-67.43-49.69-123.24-114.44-132.85v52.07h28.58c0.56-2.14,2.43-3.75,4.74-3.75
		c2.76,0,4.99,2.24,4.99,5c0,2.76-2.23,5-4.99,5c-2.32,0-4.18-1.61-4.74-3.75h-31.07v-54.89c-5.7-0.74-11.49-1.16-17.38-1.16
		c-3.95,0-7.83,0.26-11.69,0.59v84.17c0,0,7.64,0,11.69,0c27.38,0,49.57,22.19,49.57,49.57c0,27.37-22.19,49.56-49.57,49.56
		c-4.05,0-11.69-0.01-11.69-0.01v84.17c3.86,0.33,7.74,0.59,11.69,0.59c44.52,0,83.96-21.67,108.4-55.02v-22.7h-56.15v28.38h-38.27
		c-0.57,2.14-2.43,3.75-4.74,3.75c-2.76,0-4.99-2.24-4.99-4.99c0-2.76,2.24-4.99,4.99-4.99c2.32,0,4.18,1.61,4.74,3.75h35.77v-28.38
		h61.14v21.69c13.32-19.46,21.65-42.6,23.15-67.58c0.04-1.02,0.04-1.94,0.04-1.94l-53.77-0.01v-55.77
		c-2.14-0.57-3.75-2.43-3.75-4.74c0-2.76,2.23-4.99,5-4.99c2.76,0,4.99,2.23,4.99,4.99c0,2.32-1.61,4.18-3.75,4.74v53.28l51.45,0.02
		C340.6,436.09,340.64,432.84,340.64,432.32L340.64,432.32z"/>
	<path class="st0" d="M148.1,463.34V311.42c-11.22,5.41-21.57,12.33-30.79,20.49v74.31c2.14,0.57,3.75,2.43,3.75,4.74
		c0,2.76-2.24,5-5,5c-2.76,0-5-2.23-5-5c0-2.32,1.61-4.18,3.75-4.74v-71.95C88.52,358.75,72,393.55,72,432.32
		c0,53.29,31.12,99.2,76.1,120.91v-87.39h-34.99c-0.57,2.14-2.43,3.75-4.74,3.75c-2.76,0-5-2.23-5-4.99s2.24-5,5-5
		c2.32,0,4.18,1.61,4.74,3.75H148.1L148.1,463.34z"/>
	<path class="st0" d="M453.63,535.84c0,2.87,0.8,5.11,2.4,6.71c1.6,1.6,3.79,2.4,6.56,2.4c1.25,0,2.69-0.17,4.32-0.5
		c1.63-0.33,3.04-0.75,4.24-1.24l-1.14-5.88c-0.71,0.28-1.47,0.51-2.28,0.7c-0.82,0.19-1.52,0.29-2.12,0.29
		c-1.52,0-2.7-0.46-3.54-1.37c-0.84-0.91-1.26-2.17-1.26-3.77v-49.31h-7.17V535.84L453.63,535.84z M497.01,543.18
		c2.9-1.35,5.31-3.33,7.21-5.93l0.16,3.07c0.16,1.22,0.66,2.25,1.51,3.11c0.84,0.86,1.97,1.28,3.38,1.28c0.54,0,1.06-0.03,1.55-0.08
		c0.49-0.05,1.11-0.14,1.87-0.25v-6.3c-1.52-0.05-2.28-0.94-2.28-2.65v-17.65c0-5.53-1.56-9.81-4.68-12.85
		c-3.12-3.04-7.48-4.56-13.07-4.56c-5.54,0-11.05,1.88-16.54,5.63l2.36,4.73c4.72-3.37,9.23-5.06,13.52-5.06
		c3.58,0,6.35,1.01,8.31,3.03c1.96,2.02,2.93,4.79,2.93,8.33v3.48c-1.63-0.66-3.5-1.19-5.62-1.58c-2.12-0.39-4.21-0.58-6.27-0.58
		c-2.61,0-5.01,0.33-7.21,0.99c-2.2,0.66-4.1,1.58-5.7,2.74c-1.6,1.16-2.84,2.56-3.71,4.18c-0.87,1.63-1.3,3.44-1.3,5.43
		c0,1.93,0.37,3.72,1.1,5.35c0.73,1.63,1.74,3.05,3.01,4.27c1.28,1.22,2.78,2.17,4.52,2.86c1.74,0.69,3.61,1.04,5.62,1.04
		C490.99,545.21,494.1,544.53,497.01,543.18L497.01,543.18z M485.89,539.07c-1.14-0.44-2.13-1.05-2.97-1.82
		c-0.84-0.77-1.49-1.68-1.96-2.73c-0.46-1.05-0.69-2.18-0.69-3.4c0-2.49,1.13-4.5,3.38-6.05c2.25-1.55,5.17-2.32,8.76-2.32
		c3.75,0,7.36,0.69,10.83,2.07v6.38c0,1.11-0.52,2.18-1.55,3.23c-1.14,1.6-2.81,2.89-5.01,3.85c-2.2,0.97-4.58,1.45-7.13,1.45
		C488.25,539.74,487.03,539.52,485.89,539.07L485.89,539.07z M541.85,536.42c-0.44,0.28-1.24,0.65-2.4,1.12
		c-1.17,0.47-2.46,0.7-3.87,0.7c-1.25,0-2.34-0.36-3.26-1.08c-0.92-0.72-1.44-1.88-1.55-3.48v-26.85h9.53v-5.72h-9.53v-14.42h-7.17
		v14.42h-5.78v5.72h5.78v29.09c0,3.1,0.95,5.37,2.85,6.84c1.9,1.47,4.16,2.2,6.76,2.2c1.14,0,2.24-0.1,3.3-0.29
		c1.06-0.19,2.04-0.44,2.93-0.75c0.9-0.3,1.7-0.61,2.4-0.91c0.7-0.3,1.27-0.57,1.71-0.79L541.85,536.42L541.85,536.42z
		 M559.68,544.38v-37.55h11.32v-5.72h-11.32v-1.16c0-3.48,0.62-6.13,1.87-7.96c1.25-1.82,3.07-2.74,5.46-2.74
		c1.09,0,2.18,0.17,3.3,0.5c1.11,0.33,2.05,0.77,2.81,1.33l1.79-5.39c-1.3-0.83-2.77-1.48-4.4-1.95c-1.63-0.47-3.29-0.71-4.97-0.71
		c-4.02,0-7.2,1.52-9.53,4.56c-2.33,3.04-3.5,7.24-3.5,12.6v0.91h-5.78v5.72h5.78v37.55H559.68L559.68,544.38z M604.53,543.38
		c2.63-1.22,4.9-2.85,6.8-4.89c1.9-2.04,3.37-4.42,4.4-7.13c1.03-2.71,1.55-5.55,1.55-8.54c0-3.04-0.53-5.91-1.59-8.62
		c-1.06-2.71-2.52-5.08-4.4-7.13c-1.87-2.04-4.14-3.67-6.8-4.89c-2.66-1.22-5.57-1.82-8.72-1.82c-3.15,0-6.04,0.61-8.68,1.82
		c-2.64,1.22-4.89,2.85-6.76,4.89c-1.87,2.05-3.34,4.42-4.4,7.13c-1.06,2.71-1.59,5.58-1.59,8.62c0,2.98,0.52,5.83,1.55,8.54
		c1.03,2.71,2.49,5.09,4.36,7.13c1.87,2.04,4.13,3.67,6.76,4.89c2.63,1.22,5.55,1.82,8.76,1.82
		C598.97,545.21,601.89,544.6,604.53,543.38L604.53,543.38z M582.78,516.57c0.73-1.96,1.74-3.67,3.01-5.14
		c1.28-1.46,2.77-2.62,4.48-3.48c1.71-0.86,3.54-1.28,5.5-1.28c1.95,0,3.79,0.41,5.5,1.24c1.71,0.83,3.22,1.98,4.52,3.44
		c1.3,1.46,2.32,3.18,3.05,5.14c0.73,1.96,1.1,4.05,1.1,6.26c0,2.27-0.37,4.38-1.1,6.34c-0.73,1.96-1.75,3.67-3.05,5.14
		c-1.3,1.46-2.81,2.61-4.52,3.44c-1.71,0.83-3.54,1.24-5.5,1.24c-1.96,0-3.79-0.41-5.5-1.24c-1.71-0.83-3.2-1.96-4.48-3.4
		c-1.28-1.44-2.28-3.12-3.01-5.06c-0.73-1.93-1.1-4.03-1.1-6.3C581.68,520.65,582.04,518.53,582.78,516.57L582.78,516.57z
		 M648.47,500.87c-0.27-0.06-0.6-0.08-0.98-0.08s-0.84,0-1.38,0c-2.72,0.22-5.27,1.26-7.66,3.11c-2.39,1.85-4.32,4.27-5.78,7.25
		v-10.03h-6.68v43.27h7.17v-26.69c1.14-3.15,3.08-5.61,5.82-7.38c2.74-1.77,5.91-2.71,9.49-2.82V500.87L648.47,500.87z
		 M719.67,518.52c0-2.6-0.22-5-0.65-7.21c-0.43-2.21-1.14-4.13-2.12-5.76c-0.98-1.63-2.29-2.9-3.95-3.81
		c-1.66-0.91-3.71-1.37-6.15-1.37c-7.01,0-12.41,3.51-16.21,10.53c-0.49-3.09-1.78-5.62-3.87-7.58c-2.09-1.96-4.93-2.94-8.51-2.94
		c-3.48,0-6.6,0.87-9.37,2.61c-2.77,1.74-5.02,4.21-6.76,7.42v-9.28h-6.52v43.27h7.17v-26.11c0.98-3.43,2.63-6.18,4.97-8.25
		c2.33-2.07,4.94-3.11,7.82-3.11c2.82,0,4.94,1.05,6.35,3.15c1.41,2.1,2.12,5.47,2.12,10.11v24.2h7.17v-26.02
		c0.98-3.37,2.62-6.12,4.93-8.25c2.31-2.13,4.93-3.19,7.86-3.19c2.82,0,4.95,1.08,6.4,3.23c1.44,2.15,2.16,5.5,2.16,10.03v24.2h7.17
		V518.52L719.67,518.52z"/>
	<path class="st0" d="M417.79,544.38v-18.07h9.45c2.82,0,5.42-0.56,7.78-1.7c2.36-1.13,4.37-2.65,6.03-4.56
		c1.66-1.91,2.95-4.09,3.87-6.55c0.92-2.46,1.38-4.99,1.38-7.58c0-2.49-0.49-4.96-1.47-7.42c-0.98-2.46-2.32-4.64-4.03-6.55
		c-1.71-1.91-3.76-3.45-6.15-4.64c-2.39-1.19-5-1.78-7.82-1.78h-24.93v58.85H417.79L417.79,544.38z M417.79,499.62h7.98
		c0.98,0,1.95,0.44,2.93,1.33c0.98,0.88,1.47,2.54,1.47,4.97c0,2.38-0.42,4.02-1.26,4.93c-0.84,0.91-1.75,1.37-2.73,1.37h-8.39
		V499.62L417.79,499.62z"/>
	<path class="st0" d="M485.97,461.5c1.96-0.55,3.73-1.31,5.33-2.28c1.6-0.97,3.01-2.11,4.24-3.44c1.22-1.33,2.18-2.79,2.89-4.39
		l-6.19-1.74c-0.43,1.11-1.07,2.1-1.91,2.98c-0.84,0.88-1.81,1.63-2.89,2.24c-1.09,0.61-2.25,1.09-3.5,1.45
		c-1.25,0.36-2.53,0.54-3.83,0.54c-1.85,0-3.6-0.36-5.25-1.08c-1.66-0.72-3.14-1.71-4.44-2.98c-1.3-1.27-2.36-2.79-3.18-4.56
		c-0.81-1.77-1.3-3.73-1.47-5.88h35.27c0.05-0.27,0.09-0.66,0.12-1.16c0.03-0.5,0.04-1.05,0.04-1.66c0-2.87-0.5-5.65-1.51-8.33
		c-1-2.68-2.43-5.03-4.28-7.04c-1.85-2.02-4.09-3.63-6.72-4.85c-2.63-1.21-5.55-1.82-8.76-1.82c-3.21,0-6.14,0.59-8.8,1.78
		c-2.66,1.19-4.96,2.8-6.88,4.85c-1.93,2.05-3.42,4.42-4.48,7.13c-1.06,2.71-1.59,5.58-1.59,8.62c0,3.04,0.53,5.93,1.59,8.66
		c1.06,2.73,2.54,5.13,4.44,7.17c1.9,2.05,4.18,3.66,6.84,4.85c2.66,1.19,5.59,1.78,8.8,1.78
		C481.98,462.32,484.01,462.05,485.97,461.5L485.97,461.5z M465.6,436.96c0.16-2.04,0.64-3.92,1.43-5.64
		c0.79-1.71,1.82-3.19,3.1-4.43c1.27-1.24,2.76-2.21,4.44-2.9c1.68-0.69,3.47-1.04,5.38-1.04c1.9,0,3.69,0.35,5.38,1.04
		c1.68,0.69,3.16,1.64,4.44,2.86c1.28,1.22,2.33,2.69,3.18,4.43c0.84,1.74,1.34,3.63,1.51,5.68H465.6L465.6,436.96z M528,461.5
		l16.78-43.26h-6.84l-13.52,36.88l-13.44-36.88h-7.41l16.78,43.26H528L528,461.5z M575.33,461.5c1.95-0.55,3.73-1.31,5.34-2.28
		c1.6-0.97,3.01-2.11,4.23-3.44c1.22-1.33,2.19-2.79,2.89-4.39l-6.19-1.74c-0.44,1.11-1.07,2.1-1.91,2.98
		c-0.84,0.88-1.81,1.63-2.89,2.24c-1.09,0.61-2.25,1.09-3.5,1.45c-1.25,0.36-2.53,0.54-3.83,0.54c-1.85,0-3.6-0.36-5.25-1.08
		c-1.66-0.72-3.14-1.71-4.44-2.98c-1.3-1.27-2.36-2.79-3.18-4.56c-0.81-1.77-1.3-3.73-1.47-5.88h35.27
		c0.05-0.27,0.09-0.66,0.12-1.16c0.03-0.5,0.04-1.05,0.04-1.66c0-2.87-0.5-5.65-1.51-8.33c-1.01-2.68-2.43-5.03-4.28-7.04
		c-1.85-2.02-4.09-3.63-6.72-4.85c-2.64-1.21-5.55-1.82-8.76-1.82s-6.14,0.59-8.8,1.78c-2.66,1.19-4.96,2.8-6.88,4.85
		c-1.93,2.05-3.42,4.42-4.48,7.13c-1.06,2.71-1.59,5.58-1.59,8.62c0,3.04,0.53,5.93,1.59,8.66c1.06,2.73,2.54,5.13,4.44,7.17
		c1.9,2.05,4.18,3.66,6.84,4.85c2.66,1.19,5.59,1.78,8.8,1.78C571.34,462.32,573.37,462.05,575.33,461.5L575.33,461.5z
		 M554.96,436.96c0.16-2.04,0.64-3.92,1.42-5.64c0.79-1.71,1.82-3.19,3.1-4.43c1.27-1.24,2.76-2.21,4.44-2.9
		c1.68-0.69,3.47-1.04,5.38-1.04c1.9,0,3.69,0.35,5.38,1.04c1.68,0.69,3.16,1.64,4.44,2.86c1.28,1.22,2.33,2.69,3.18,4.43
		c0.84,1.74,1.34,3.63,1.51,5.68H554.96L554.96,436.96z M598.7,452.96c0,2.87,0.8,5.11,2.4,6.71c1.6,1.6,3.79,2.4,6.56,2.4
		c1.25,0,2.69-0.17,4.32-0.5c1.63-0.33,3.04-0.75,4.24-1.24l-1.14-5.89c-0.71,0.28-1.47,0.51-2.28,0.71
		c-0.82,0.19-1.52,0.29-2.12,0.29c-1.52,0-2.7-0.46-3.54-1.37s-1.26-2.17-1.26-3.77v-49.32h-7.17V452.96L598.7,452.96z
		 M649.17,460.5c2.63-1.21,4.9-2.85,6.8-4.89c1.9-2.04,3.37-4.42,4.4-7.13c1.03-2.71,1.55-5.55,1.55-8.54
		c0-3.04-0.53-5.91-1.59-8.62c-1.06-2.71-2.53-5.08-4.4-7.13c-1.87-2.04-4.14-3.67-6.8-4.89c-2.66-1.21-5.57-1.82-8.72-1.82
		c-3.15,0-6.04,0.61-8.67,1.82c-2.64,1.22-4.89,2.85-6.76,4.89c-1.87,2.05-3.34,4.42-4.4,7.13c-1.06,2.71-1.59,5.58-1.59,8.62
		c0,2.98,0.52,5.83,1.55,8.54c1.03,2.71,2.48,5.08,4.36,7.13c1.87,2.04,4.13,3.68,6.76,4.89c2.63,1.21,5.55,1.82,8.76,1.82
		C643.61,462.32,646.53,461.72,649.17,460.5L649.17,460.5z M627.42,433.69c0.73-1.96,1.74-3.67,3.01-5.14
		c1.27-1.46,2.77-2.62,4.48-3.48c1.71-0.86,3.54-1.29,5.5-1.29c1.96,0,3.79,0.41,5.5,1.24c1.71,0.83,3.22,1.98,4.52,3.44
		c1.3,1.46,2.32,3.18,3.05,5.14c0.73,1.96,1.1,4.05,1.1,6.26c0,2.27-0.37,4.38-1.1,6.34c-0.73,1.96-1.75,3.68-3.05,5.14
		c-1.3,1.46-2.81,2.61-4.52,3.44c-1.71,0.83-3.54,1.24-5.5,1.24c-1.95,0-3.79-0.41-5.5-1.24c-1.71-0.83-3.21-1.96-4.48-3.4
		c-1.28-1.44-2.28-3.12-3.01-5.06c-0.73-1.93-1.1-4.03-1.1-6.3C626.32,437.77,626.69,435.65,627.42,433.69L627.42,433.69z
		 M701.26,460.54c2.33-1.19,4.34-2.79,6.03-4.81c1.68-2.02,2.99-4.39,3.91-7.13c0.92-2.74,1.39-5.65,1.39-8.74
		c0-2.93-0.5-5.75-1.51-8.45c-1.01-2.71-2.4-5.1-4.19-7.17s-3.91-3.72-6.35-4.93c-2.44-1.21-5.13-1.82-8.06-1.82
		c-3.26,0-6.23,0.82-8.92,2.45c-2.69,1.63-4.88,3.77-6.56,6.42v-8.12h-6.35v60.92h7.17v-26.19c1.57,2.71,3.71,4.95,6.39,6.71
		c2.69,1.77,5.8,2.65,9.33,2.65C696.34,462.32,698.92,461.73,701.26,460.54L701.26,460.54z M687.09,455.24
		c-1.36-0.52-2.63-1.24-3.83-2.15c-1.19-0.91-2.25-1.99-3.18-3.23c-0.92-1.24-1.68-2.58-2.28-4.02v-12.35
		c0.27-1.33,0.85-2.58,1.75-3.77c0.9-1.19,1.95-2.21,3.18-3.07c1.22-0.86,2.52-1.55,3.91-2.07c1.38-0.52,2.73-0.79,4.03-0.79
		c2.06,0,3.98,0.43,5.74,1.29c1.76,0.86,3.3,2.02,4.6,3.48c1.3,1.46,2.34,3.18,3.1,5.14c0.76,1.96,1.14,4.02,1.14,6.18
		c0,2.04-0.33,4.03-0.98,5.97c-0.65,1.93-1.59,3.66-2.81,5.18c-1.22,1.52-2.69,2.74-4.4,3.65c-1.71,0.91-3.63,1.37-5.74,1.37
		C689.85,456.03,688.44,455.76,687.09,455.24L687.09,455.24z M746.3,461.5c1.95-0.55,3.73-1.31,5.34-2.28
		c1.6-0.97,3.01-2.11,4.24-3.44c1.22-1.33,2.19-2.79,2.89-4.39l-6.19-1.74c-0.44,1.11-1.07,2.1-1.91,2.98
		c-0.84,0.88-1.81,1.63-2.89,2.24c-1.09,0.61-2.25,1.09-3.5,1.45c-1.25,0.36-2.53,0.54-3.83,0.54c-1.85,0-3.6-0.36-5.25-1.08
		c-1.66-0.72-3.14-1.71-4.44-2.98c-1.3-1.27-2.36-2.79-3.18-4.56c-0.81-1.77-1.3-3.73-1.47-5.88h35.27
		c0.05-0.27,0.09-0.66,0.12-1.16c0.03-0.5,0.04-1.05,0.04-1.66c0-2.87-0.5-5.65-1.51-8.33c-1.01-2.68-2.43-5.03-4.28-7.04
		c-1.85-2.02-4.09-3.63-6.72-4.85c-2.63-1.21-5.55-1.82-8.76-1.82c-3.21,0-6.14,0.59-8.8,1.78c-2.66,1.19-4.96,2.8-6.88,4.85
		c-1.93,2.05-3.42,4.42-4.48,7.13c-1.06,2.71-1.59,5.58-1.59,8.62c0,3.04,0.53,5.93,1.59,8.66c1.06,2.73,2.54,5.13,4.44,7.17
		c1.9,2.05,4.18,3.66,6.84,4.85c2.66,1.19,5.59,1.78,8.8,1.78C742.31,462.32,744.35,462.05,746.3,461.5L746.3,461.5z M725.94,436.96
		c0.16-2.04,0.64-3.92,1.43-5.64c0.79-1.71,1.82-3.19,3.09-4.43c1.28-1.24,2.76-2.21,4.44-2.9c1.68-0.69,3.47-1.04,5.38-1.04
		c1.9,0,3.69,0.35,5.38,1.04c1.68,0.69,3.16,1.64,4.44,2.86c1.27,1.22,2.33,2.69,3.18,4.43c0.84,1.74,1.34,3.63,1.51,5.68H725.94
		L725.94,436.96z M792,417.98c-0.27-0.05-0.6-0.08-0.98-0.08s-0.84,0-1.38,0c-2.72,0.22-5.27,1.26-7.66,3.11
		c-2.39,1.85-4.32,4.27-5.78,7.25v-10.03h-6.68v43.26h7.17v-26.69c1.14-3.15,3.08-5.61,5.82-7.38c2.74-1.77,5.91-2.71,9.49-2.82
		V417.98L792,417.98z"/>
	<path class="st0" d="M424.14,461.5c4.4,0,8.39-0.7,11.97-2.11c3.58-1.41,6.65-3.4,9.2-5.97c2.55-2.57,4.52-5.66,5.91-9.28
		c1.39-3.62,2.08-7.67,2.08-12.14c0-4.03-0.62-7.83-1.87-11.4c-1.25-3.56-3.1-6.67-5.54-9.32c-2.44-2.65-5.49-4.75-9.12-6.3
		c-3.64-1.55-7.85-2.32-12.63-2.32h-22.24v58.85H424.14L424.14,461.5z M436.32,438.12c-0.57,1.88-1.41,3.51-2.52,4.89
		c-1.11,1.38-2.48,2.46-4.11,3.23c-1.63,0.77-3.48,1.16-5.54,1.16h-6.35v-30.67h6.35c2.01,0,3.83,0.37,5.46,1.12
		c1.63,0.75,3,1.78,4.11,3.11c1.11,1.33,1.97,2.93,2.57,4.81c0.6,1.88,0.9,3.95,0.9,6.22C437.18,434.2,436.89,436.25,436.32,438.12
		L436.32,438.12z"/>
	<path class="st0" d="M495.66,377.66c2.33-1.19,4.34-2.79,6.03-4.81c1.68-2.02,2.99-4.39,3.91-7.13c0.92-2.74,1.38-5.65,1.38-8.74
		c0-2.93-0.5-5.75-1.51-8.45c-1.01-2.71-2.4-5.1-4.2-7.17c-1.79-2.07-3.91-3.72-6.35-4.93c-2.44-1.21-5.13-1.82-8.06-1.82
		c-3.26,0-6.23,0.82-8.92,2.45c-2.69,1.63-4.88,3.77-6.56,6.42v-8.12h-6.35v60.92h7.17v-26.19c1.57,2.71,3.71,4.95,6.39,6.71
		c2.69,1.77,5.8,2.65,9.33,2.65C490.75,379.44,493.33,378.85,495.66,377.66L495.66,377.66z M481.49,372.36
		c-1.36-0.52-2.63-1.24-3.83-2.15c-1.2-0.91-2.25-1.99-3.18-3.23c-0.92-1.24-1.68-2.58-2.28-4.02V350.6
		c0.27-1.33,0.86-2.58,1.75-3.77c0.9-1.19,1.95-2.21,3.18-3.07c1.22-0.86,2.53-1.55,3.91-2.07c1.39-0.52,2.73-0.79,4.03-0.79
		c2.06,0,3.98,0.43,5.74,1.28c1.76,0.86,3.3,2.02,4.6,3.48c1.3,1.46,2.33,3.18,3.1,5.14c0.76,1.96,1.14,4.02,1.14,6.17
		c0,2.04-0.32,4.03-0.98,5.97c-0.65,1.93-1.59,3.66-2.81,5.18c-1.22,1.52-2.69,2.73-4.4,3.65c-1.71,0.91-3.62,1.37-5.74,1.37
		C484.26,373.14,482.85,372.88,481.49,372.36L481.49,372.36z M540.71,378.61c1.95-0.55,3.73-1.31,5.33-2.28
		c1.6-0.97,3.01-2.11,4.24-3.44c1.22-1.33,2.18-2.79,2.89-4.39l-6.19-1.74c-0.43,1.11-1.07,2.1-1.91,2.98
		c-0.84,0.88-1.81,1.63-2.89,2.24c-1.09,0.61-2.25,1.09-3.5,1.45c-1.25,0.36-2.53,0.54-3.83,0.54c-1.85,0-3.6-0.36-5.25-1.08
		c-1.66-0.72-3.14-1.71-4.44-2.98c-1.3-1.27-2.36-2.79-3.18-4.56c-0.82-1.77-1.3-3.73-1.47-5.88h35.27
		c0.05-0.28,0.09-0.66,0.12-1.16c0.03-0.5,0.04-1.05,0.04-1.66c0-2.87-0.5-5.65-1.51-8.33c-1.01-2.68-2.43-5.03-4.28-7.04
		c-1.85-2.02-4.09-3.63-6.72-4.85c-2.63-1.21-5.55-1.82-8.76-1.82c-3.21,0-6.14,0.59-8.8,1.78c-2.66,1.19-4.96,2.8-6.88,4.85
		c-1.93,2.04-3.42,4.42-4.48,7.13c-1.06,2.71-1.59,5.58-1.59,8.62c0,3.04,0.53,5.93,1.59,8.66c1.06,2.74,2.54,5.13,4.44,7.17
		c1.9,2.05,4.18,3.66,6.84,4.85c2.66,1.19,5.59,1.78,8.8,1.78C536.72,379.44,538.75,379.17,540.71,378.61L540.71,378.61z
		 M520.34,354.08c0.16-2.04,0.64-3.92,1.43-5.64c0.79-1.71,1.82-3.19,3.09-4.43c1.28-1.24,2.76-2.21,4.44-2.9
		c1.68-0.69,3.47-1.04,5.38-1.04c1.9,0,3.69,0.35,5.38,1.04c1.68,0.69,3.16,1.64,4.44,2.86c1.28,1.22,2.33,2.69,3.18,4.43
		c0.84,1.74,1.34,3.63,1.51,5.68H520.34L520.34,354.08z M600.82,352.76c0-2.6-0.2-5-0.61-7.21c-0.41-2.21-1.1-4.13-2.08-5.76
		c-0.98-1.63-2.28-2.9-3.91-3.81s-3.66-1.37-6.11-1.37c-3.75,0-7.21,0.91-10.39,2.74c-3.18,1.82-5.61,4.26-7.29,7.29v-9.28h-6.52
		v43.26h7.17v-26.11c0.49-1.66,1.22-3.18,2.2-4.56c0.98-1.38,2.12-2.57,3.42-3.56c1.3-0.99,2.69-1.78,4.15-2.36
		c1.47-0.58,2.93-0.87,4.4-0.87c2.82,0,4.93,1.05,6.31,3.15c1.38,2.1,2.08,5.47,2.08,10.11v24.2h7.17V352.76L600.82,352.76z"/>
	<path class="st0" d="M439.82,376.62c3.61-1.66,6.72-3.85,9.33-6.59c2.61-2.74,4.64-5.88,6.11-9.45c1.47-3.56,2.2-7.28,2.2-11.15
		c0-3.76-0.69-7.43-2.08-11.02c-1.38-3.59-3.35-6.8-5.91-9.61c-2.55-2.82-5.62-5.08-9.2-6.8c-3.58-1.71-7.58-2.57-11.97-2.57
		c-4.29,0-8.24,0.82-11.85,2.45c-3.61,1.63-6.73,3.81-9.37,6.55c-2.63,2.74-4.68,5.9-6.15,9.49c-1.47,3.59-2.2,7.32-2.2,11.19
		c0,3.81,0.7,7.51,2.12,11.11c1.41,3.59,3.39,6.78,5.95,9.57c2.55,2.79,5.62,5.04,9.2,6.75c3.58,1.71,7.58,2.57,11.97,2.57
		C432.26,379.11,436.21,378.28,439.82,376.62L439.82,376.62z M415.63,343.6c0.52-1.85,1.32-3.51,2.4-4.97
		c1.09-1.46,2.46-2.64,4.11-3.52c1.66-0.88,3.63-1.33,5.91-1.33c2.23,0,4.17,0.43,5.82,1.28c1.66,0.86,3.04,1.99,4.15,3.4
		c1.11,1.41,1.94,3.04,2.48,4.89c0.54,1.85,0.81,3.77,0.81,5.76c0,1.93-0.26,3.84-0.77,5.72c-0.52,1.88-1.3,3.55-2.36,5.01
		c-1.06,1.46-2.43,2.65-4.11,3.56c-1.68,0.91-3.67,1.37-5.95,1.37s-4.25-0.44-5.91-1.33c-1.66-0.88-3.03-2.04-4.11-3.48
		c-1.09-1.44-1.9-3.08-2.44-4.93c-0.54-1.85-0.81-3.77-0.81-5.76C414.86,347.34,415.11,345.45,415.63,343.6L415.63,343.6z"/>
</g>
</svg>
