<?xml version="1.0" encoding="utf-8"?>
<!-- Generator: Adobe Illustrator 24.1.0, SVG Export Plug-In . SVG Version: 6.00 Build 0)  -->
<svg version="1.1" id="Layer_1" xmlns="http://www.w3.org/2000/svg" xmlns:xlink="http://www.w3.org/1999/xlink" x="0px" y="0px"
	 viewBox="0 0 936 385" style="enable-background:new 0 0 936 385;" xml:space="preserve">
<style type="text/css">
	.st0{fill:#B02E3C;}
	.st1{clip-path:url(#SVGID_2_);fill:none;stroke:#E84051;stroke-miterlimit:10;}
	.st2{fill:#E84051;}
	.st3{clip-path:url(#SVGID_4_);fill:none;stroke:#E84051;stroke-miterlimit:10;}
	.st4{clip-path:url(#SVGID_6_);fill:none;stroke:#E84051;stroke-miterlimit:10;}
	.st5{clip-path:url(#SVGID_8_);fill:none;stroke:#E84051;stroke-miterlimit:10;}
	.st6{clip-path:url(#SVGID_10_);fill:none;stroke:#E84051;stroke-miterlimit:10;}
	.st7{clip-path:url(#SVGID_12_);fill:none;stroke:#E84051;stroke-miterlimit:10;}
	.st8{clip-path:url(#SVGID_14_);fill:none;stroke:#E84051;stroke-miterlimit:10;}
	.st9{clip-path:url(#SVGID_16_);fill:none;stroke:#E84051;stroke-miterlimit:10;}
	.st10{clip-path:url(#SVGID_18_);fill:none;stroke:#E84051;stroke-miterlimit:10;}
	.st11{clip-path:url(#SVGID_20_);fill:none;stroke:#E84051;stroke-miterlimit:10;}
	.st12{clip-path:url(#SVGID_22_);fill:none;stroke:#E84051;stroke-miterlimit:10;}
	.st13{clip-path:url(#SVGID_24_);fill:none;stroke:#E84051;stroke-miterlimit:10;}
	.st14{clip-path:url(#SVGID_26_);fill:none;stroke:#B02E3C;stroke-miterlimit:10;}
	.st15{clip-path:url(#SVGID_28_);fill:none;stroke:#B02E3C;stroke-miterlimit:10;}
	.st16{clip-path:url(#SVGID_30_);fill:none;stroke:#B02E3C;stroke-miterlimit:10;}
	.st17{clip-path:url(#SVGID_32_);fill:none;stroke:#B02E3C;stroke-miterlimit:10;}
	.st18{clip-path:url(#SVGID_34_);fill:none;stroke:#B02E3C;stroke-miterlimit:10;}
	.st19{clip-path:url(#SVGID_36_);fill:none;stroke:#B02E3C;stroke-miterlimit:10;}
	.st20{fill:none;stroke:#E84051;stroke-miterlimit:10;}
	.st21{font-family:'Tahoma-Bold';}
	.st22{font-size:17px;}
	.st23{fill:none;stroke:#B02E3C;stroke-miterlimit:10;}
	.st24{fill:#FFFFFF;}
	.st25{font-family:'Raleway-Black';}
	.st26{font-size:13px;}
	.st27{fill:none;}
</style>
<polygon class="st0" points="25,62.3 25,360.8 178.2,360.8 178.2,62.3 "/>
<g>
	<g>
		<defs>
			<rect id="SVGID_1_" x="25" y="62.3" width="153.2" height="298.5"/>
		</defs>
		<clipPath id="SVGID_2_">
			<use xlink:href="#SVGID_1_"  style="overflow:visible;"/>
		</clipPath>
		<polyline class="st1" points="139,283.04 188.41,283.04 188.41,329.3 164.93,329.3 164.93,340.66 148.21,340.66 		"/>
	</g>
</g>
<path class="st2" d="M139,285.04c1.1,0,2-0.89,2-2s-0.89-2-2-2s-2,0.89-2,2S137.89,285.04,139,285.04L139,285.04z"/>
<path class="st2" d="M148.21,342.66c1.1,0,2-0.9,2-2c0-1.11-0.9-2-2-2c-1.11,0-2,0.9-2,2C146.21,341.77,147.1,342.66,148.21,342.66
	L148.21,342.66z"/>
<g>
	<g>
		<defs>
			<rect id="SVGID_3_" x="25" y="62.3" width="153.2" height="298.5"/>
		</defs>
		<clipPath id="SVGID_4_">
			<use xlink:href="#SVGID_3_"  style="overflow:visible;"/>
		</clipPath>
		<polyline class="st3" points="42.31,316.53 42.31,295.3 18.83,295.3 18.83,306.66 2.11,306.66 		"/>
	</g>
</g>
<path class="st2" d="M42.31,318.53c1.1,0,2-0.9,2-2c0-1.11-0.9-2-2-2s-2,0.9-2,2S41.2,318.53,42.31,318.53L42.31,318.53z"/>
<g>
	<g>
		<defs>
			<rect id="SVGID_5_" x="25" y="62.3" width="153.2" height="298.5"/>
		</defs>
		<clipPath id="SVGID_6_">
			<use xlink:href="#SVGID_5_"  style="overflow:visible;"/>
		</clipPath>
		<line class="st4" x1="17" y1="256.8" x2="74" y2="256.8"/>
	</g>
</g>
<path class="st2" d="M76,256.8c0-1.11-0.9-2-2-2s-2,0.89-2,2c0,1.11,0.9,2,2,2S76,257.91,76,256.8L76,256.8z"/>
<g>
	<g>
		<defs>
			<rect id="SVGID_7_" x="25" y="62.3" width="153.2" height="298.5"/>
		</defs>
		<clipPath id="SVGID_8_">
			<use xlink:href="#SVGID_7_"  style="overflow:visible;"/>
		</clipPath>
		<polyline class="st5" points="69.5,360.8 69.5,342.8 116.5,342.8 116.5,299.07 94.5,299.07 94.5,274.8 		"/>
	</g>
</g>
<path class="st2" d="M94.5,272.8c1.11,0,2,0.89,2,2s-0.89,2-2,2c-1.1,0-2-0.89-2-2C92.5,273.7,93.39,272.8,94.5,272.8L94.5,272.8z"
	/>
<polygon class="st0" points="391.4,62.3 391.4,360.8 544.6,360.8 544.6,62.3 "/>
<g>
	<g>
		<defs>
			<rect id="SVGID_9_" x="391.4" y="62.3" width="153.2" height="298.5"/>
		</defs>
		<clipPath id="SVGID_10_">
			<use xlink:href="#SVGID_9_"  style="overflow:visible;"/>
		</clipPath>
		<polyline class="st6" points="517,365.8 517,331.3 489,331.3 489,315.3 		"/>
	</g>
</g>
<path class="st2" d="M489,317.3c1.11,0,2-0.89,2-2s-0.89-2-2-2s-2,0.89-2,2C487,316.41,487.89,317.3,489,317.3L489,317.3z"/>
<g>
	<g>
		<defs>
			<rect id="SVGID_11_" x="391.4" y="62.3" width="153.2" height="298.5"/>
		</defs>
		<clipPath id="SVGID_12_">
			<use xlink:href="#SVGID_11_"  style="overflow:visible;"/>
		</clipPath>
		<polyline class="st7" points="389,305.64 439.5,305.64 439.5,328.96 427.18,328.96 		"/>
	</g>
</g>
<path class="st2" d="M427.18,330.96c1.1,0,2-0.9,2-2s-0.9-2-2-2c-1.11,0-2,0.9-2,2C425.18,330.07,426.08,330.96,427.18,330.96
	L427.18,330.96z"/>
<g>
	<g>
		<defs>
			<rect id="SVGID_13_" x="391.4" y="62.3" width="153.2" height="298.5"/>
		</defs>
		<clipPath id="SVGID_14_">
			<use xlink:href="#SVGID_13_"  style="overflow:visible;"/>
		</clipPath>
		<line class="st8" x1="460" y1="376.8" x2="460" y2="344.8"/>
	</g>
</g>
<path class="st2" d="M460,346.8c1.11,0,2-0.89,2-2s-0.89-2-2-2c-1.1,0-2,0.89-2,2C458,345.91,458.89,346.8,460,346.8L460,346.8z"/>
<g>
	<g>
		<defs>
			<rect id="SVGID_15_" x="391.4" y="62.3" width="153.2" height="298.5"/>
		</defs>
		<clipPath id="SVGID_16_">
			<use xlink:href="#SVGID_15_"  style="overflow:visible;"/>
		</clipPath>
		<line class="st9" x1="547" y1="301.3" x2="508" y2="301.3"/>
	</g>
</g>
<path class="st2" d="M508,303.3c1.1,0,2-0.89,2-2c0-1.1-0.9-2-2-2s-2,0.89-2,2C506,302.41,506.9,303.3,508,303.3L508,303.3z"/>
<polygon class="st0" points="757.8,62.3 757.8,360.8 911,360.8 911,62.3 "/>
<g>
	<g>
		<defs>
			<rect id="SVGID_17_" x="757.8" y="62.3" width="153.2" height="298.5"/>
		</defs>
		<clipPath id="SVGID_18_">
			<use xlink:href="#SVGID_17_"  style="overflow:visible;"/>
		</clipPath>
		<line class="st10" x1="750" y1="333.3" x2="794" y2="333.3"/>
	</g>
</g>
<path class="st2" d="M794,335.3c1.1,0,2-0.89,2-2s-0.9-2-2-2s-2,0.89-2,2C792,334.41,792.9,335.3,794,335.3L794,335.3z"/>
<g>
	<g>
		<defs>
			<rect id="SVGID_19_" x="757.8" y="62.3" width="153.2" height="298.5"/>
		</defs>
		<clipPath id="SVGID_20_">
			<use xlink:href="#SVGID_19_"  style="overflow:visible;"/>
		</clipPath>
		<line class="st11" x1="897" y1="342.3" x2="897" y2="386.3"/>
	</g>
</g>
<path class="st2" d="M895,342.3c0,1.11,0.9,2,2,2s2-0.89,2-2s-0.9-2-2-2S895,341.2,895,342.3L895,342.3z"/>
<g>
	<g>
		<defs>
			<rect id="SVGID_21_" x="757.8" y="62.3" width="153.2" height="298.5"/>
		</defs>
		<clipPath id="SVGID_22_">
			<use xlink:href="#SVGID_21_"  style="overflow:visible;"/>
		</clipPath>
		<polyline class="st12" points="818,365.3 818,318.3 840,318.3 840,346.53 860,346.53 		"/>
	</g>
</g>
<path class="st2" d="M860,348.53c1.1,0,2-0.89,2-2c0-1.1-0.9-2-2-2s-2,0.9-2,2S858.9,348.53,860,348.53L860,348.53z"/>
<g>
	<g>
		<defs>
			<rect id="SVGID_23_" x="757.8" y="62.3" width="153.2" height="298.5"/>
		</defs>
		<clipPath id="SVGID_24_">
			<use xlink:href="#SVGID_23_"  style="overflow:visible;"/>
		</clipPath>
		<polyline class="st13" points="917,310.3 873,310.3 873,329.3 		"/>
	</g>
</g>
<path class="st2" d="M873,331.3c1.1,0,2-0.89,2-2s-0.9-2-2-2s-2,0.89-2,2C871,330.41,871.9,331.3,873,331.3L873,331.3z"/>
<polygon class="st2" points="208.2,62.3 208.2,360.8 361.4,360.8 361.4,62.3 "/>
<g>
	<g>
		<defs>
			<rect id="SVGID_25_" x="208.2" y="62.3" width="153.2" height="298.5"/>
		</defs>
		<clipPath id="SVGID_26_">
			<use xlink:href="#SVGID_25_"  style="overflow:visible;"/>
		</clipPath>
		<polyline class="st14" points="200,341.64 239,341.64 239,352.3 		"/>
	</g>
</g>
<path class="st0" d="M239,354.3c1.1,0,2-0.89,2-2s-0.9-2-2-2s-2,0.89-2,2C237,353.41,237.9,354.3,239,354.3L239,354.3z"/>
<g>
	<g>
		<defs>
			<rect id="SVGID_27_" x="208.2" y="62.3" width="153.2" height="298.5"/>
		</defs>
		<clipPath id="SVGID_28_">
			<use xlink:href="#SVGID_27_"  style="overflow:visible;"/>
		</clipPath>
		<line class="st15" x1="325" y1="368.3" x2="325" y2="348.97"/>
	</g>
</g>
<path class="st0" d="M325,350.97c1.1,0,2-0.9,2-2s-0.9-2-2-2c-1.11,0-2,0.89-2,2C323,350.07,323.89,350.97,325,350.97L325,350.97z"
	/>
<polygon class="st2" points="574.6,62.3 574.6,360.8 727.8,360.8 727.8,62.3 "/>
<g>
	<g>
		<defs>
			<rect id="SVGID_29_" x="574.6" y="62.3" width="153.2" height="298.5"/>
		</defs>
		<clipPath id="SVGID_30_">
			<use xlink:href="#SVGID_29_"  style="overflow:visible;"/>
		</clipPath>
		<polyline class="st16" points="571,303.3 624,303.3 624,282.3 		"/>
	</g>
</g>
<path class="st0" d="M624,284.3c1.1,0,2-0.89,2-2s-0.9-2-2-2s-2,0.89-2,2C622,283.41,622.9,284.3,624,284.3L624,284.3z"/>
<g>
	<g>
		<defs>
			<rect id="SVGID_31_" x="574.6" y="62.3" width="153.2" height="298.5"/>
		</defs>
		<clipPath id="SVGID_32_">
			<use xlink:href="#SVGID_31_"  style="overflow:visible;"/>
		</clipPath>
		<polyline class="st17" points="618,369.3 618,330.3 597.5,330.3 597.5,347.3 588,347.3 		"/>
	</g>
</g>
<path class="st0" d="M588,349.3c1.1,0,2-0.89,2-2s-0.9-2-2-2s-2,0.89-2,2C586,348.41,586.9,349.3,588,349.3L588,349.3z"/>
<g>
	<g>
		<defs>
			<rect id="SVGID_33_" x="574.6" y="62.3" width="153.2" height="298.5"/>
		</defs>
		<clipPath id="SVGID_34_">
			<use xlink:href="#SVGID_33_"  style="overflow:visible;"/>
		</clipPath>
		<polyline class="st18" points="730,347.8 642,347.8 642,331.3 		"/>
	</g>
</g>
<path class="st0" d="M642,329.3c1.1,0,2,0.89,2,2s-0.9,2-2,2s-2-0.89-2-2C640,330.2,640.9,329.3,642,329.3L642,329.3z"/>
<g>
	<g>
		<defs>
			<rect id="SVGID_35_" x="574.6" y="62.3" width="153.2" height="298.5"/>
		</defs>
		<clipPath id="SVGID_36_">
			<use xlink:href="#SVGID_35_"  style="overflow:visible;"/>
		</clipPath>
		<polyline class="st19" points="730,319.3 691,319.3 691,290.3 655.2,290.3 		"/>
	</g>
</g>
<path class="st0" d="M655.2,292.3c1.1,0,2-0.89,2-2s-0.9-2-2-2c-1.11,0-2,0.89-2,2C653.2,291.41,654.09,292.3,655.2,292.3
	L655.2,292.3z"/>
<line class="st20" x1="122.45" y1="164.02" x2="75.16" y2="164.02"/>
<path class="st2" d="M120.45,164.02c0,1.1,0.89,2,2,2c1.1,0,2-0.9,2-2s-0.9-2-2-2S120.45,162.92,120.45,164.02L120.45,164.02z"/>
<path class="st2" d="M73.16,164.02c0,1.1,0.9,2,2,2s2-0.9,2-2s-0.9-2-2-2C74.06,162.02,73.16,162.92,73.16,164.02L73.16,164.02z"/>
<text transform="matrix(1 0 0 1 245.9143 35.5352)" class="st2 st21 st22">Q3 2020</text>
<text transform="matrix(1 0 0 1 62.7145 35.5352)" class="st2 st21 st22">Q4 2020</text>
<text transform="matrix(1 0 0 1 431.9043 35.5352)" class="st2 st21 st22">Q2 2020</text>
<text transform="matrix(1 0 0 1 626.4387 35.5352)" class="st2 st21 st22">DONE</text>
<text transform="matrix(1 0 0 1 779.7682 35.5352)" class="st2 st21 st22">ROLLED OUT</text>
<line class="st23" x1="305.65" y1="149.02" x2="258.36" y2="149.02"/>
<path class="st0" d="M303.65,149.02c0,1.1,0.89,2,2,2c1.1,0,2-0.9,2-2s-0.9-2-2-2S303.65,147.92,303.65,149.02L303.65,149.02z"/>
<path class="st0" d="M256.36,149.02c0,1.1,0.9,2,2,2s2-0.9,2-2s-0.9-2-2-2C257.26,147.02,256.36,147.92,256.36,149.02L256.36,149.02
	z"/>
<line class="st23" x1="305.65" y1="239.02" x2="258.36" y2="239.02"/>
<path class="st0" d="M303.65,239.02c0,1.1,0.89,2,2,2c1.1,0,2-0.9,2-2s-0.9-2-2-2S303.65,237.92,303.65,239.02L303.65,239.02z"/>
<path class="st0" d="M256.36,239.02c0,1.1,0.9,2,2,2s2-0.9,2-2s-0.9-2-2-2C257.26,237.02,256.36,237.92,256.36,239.02L256.36,239.02
	z"/>
<text transform="matrix(1 0 0 1 271.0938 282.0273)" class="st24 st25 st26"> </text>
<text transform="matrix(1 0 0 1 331.8438 297.0273)" class="st24 st25 st26"> </text>
<line class="st20" x1="491.64" y1="149.02" x2="444.36" y2="149.02"/>
<path class="st2" d="M489.64,149.02c0,1.1,0.9,2,2,2c1.11,0,2-0.9,2-2s-0.9-2-2-2S489.64,147.92,489.64,149.02L489.64,149.02z"/>
<path class="st2" d="M442.36,149.02c0,1.1,0.9,2,2,2s2-0.9,2-2s-0.9-2-2-2C443.25,147.02,442.36,147.92,442.36,149.02L442.36,149.02
	z"/>
<line class="st20" x1="491.64" y1="224.02" x2="444.36" y2="224.02"/>
<path class="st2" d="M489.64,224.02c0,1.1,0.9,2,2,2c1.11,0,2-0.9,2-2s-0.9-2-2-2S489.64,222.92,489.64,224.02L489.64,224.02z"/>
<path class="st2" d="M442.36,224.02c0,1.1,0.9,2,2,2s2-0.9,2-2s-0.9-2-2-2C443.25,222.02,442.36,222.92,442.36,224.02L442.36,224.02
	z"/>
<line class="st23" x1="674.84" y1="149.02" x2="627.56" y2="149.02"/>
<path class="st0" d="M672.84,149.02c0,1.1,0.9,2,2,2s2-0.9,2-2s-0.9-2-2-2C673.74,147.02,672.84,147.92,672.84,149.02L672.84,149.02
	z"/>
<path class="st0" d="M625.56,149.02c0,1.1,0.89,2,2,2c1.1,0,2-0.9,2-2s-0.9-2-2-2C626.45,147.02,625.56,147.92,625.56,149.02
	L625.56,149.02z"/>
<line class="st23" x1="674.84" y1="209.02" x2="627.56" y2="209.02"/>
<path class="st0" d="M672.84,209.02c0,1.1,0.9,2,2,2s2-0.9,2-2s-0.9-2-2-2C673.74,207.02,672.84,207.92,672.84,209.02L672.84,209.02
	z"/>
<path class="st0" d="M625.56,209.02c0,1.1,0.89,2,2,2c1.1,0,2-0.9,2-2s-0.9-2-2-2C626.45,207.02,625.56,207.92,625.56,209.02
	L625.56,209.02z"/>
<g>
	<line class="st20" x1="858.04" y1="119.02" x2="810.76" y2="119.02"/>
	<path class="st2" d="M856.04,119.02c0,1.1,0.9,2,2,2s2-0.9,2-2s-0.9-2-2-2S856.04,117.92,856.04,119.02L856.04,119.02z"/>
	<path class="st2" d="M808.76,119.02c0,1.1,0.9,2,2,2s2-0.9,2-2s-0.9-2-2-2C809.65,117.02,808.76,117.92,808.76,119.02
		L808.76,119.02z"/>
</g>
<text transform="matrix(1 0 0 1 878.4688 147.0273)" class="st24 st25 st26"> </text>
<line class="st20" x1="858.04" y1="194.02" x2="810.76" y2="194.02"/>
<path class="st2" d="M856.04,194.02c0,1.1,0.9,2,2,2s2-0.9,2-2s-0.9-2-2-2S856.04,192.92,856.04,194.02L856.04,194.02z"/>
<path class="st2" d="M808.76,194.02c0,1.1,0.9,2,2,2s2-0.9,2-2s-0.9-2-2-2C809.65,192.02,808.76,192.92,808.76,194.02L808.76,194.02
	z"/>
<line class="st20" x1="858.04" y1="239.02" x2="810.76" y2="239.02"/>
<path class="st2" d="M856.04,239.02c0,1.1,0.9,2,2,2s2-0.9,2-2s-0.9-2-2-2S856.04,237.92,856.04,239.02L856.04,239.02z"/>
<path class="st2" d="M808.76,239.02c0,1.1,0.9,2,2,2s2-0.9,2-2s-0.9-2-2-2C809.65,237.02,808.76,237.92,808.76,239.02L808.76,239.02
	z"/>
<line class="st23" x1="282.01" y1="49.8" x2="282.01" y2="75.59"/>
<path class="st0" d="M282.01,51.8c1.1,0,2-0.9,2-2s-0.9-2-2-2c-1.11,0-2,0.9-2,2C280.01,50.91,280.9,51.8,282.01,51.8L282.01,51.8z"
	/>
<path class="st0" d="M282.01,77.59c1.1,0,2-0.9,2-2s-0.9-2-2-2c-1.11,0-2,0.9-2,2C280.01,76.69,280.9,77.59,282.01,77.59
	L282.01,77.59z"/>
<line class="st20" x1="98.81" y1="49.8" x2="98.81" y2="75.59"/>
<path class="st2" d="M98.81,51.8c1.1,0,2-0.9,2-2s-0.9-2-2-2s-2,0.9-2,2C96.81,50.91,97.7,51.8,98.81,51.8L98.81,51.8z"/>
<path class="st2" d="M98.81,77.59c1.1,0,2-0.9,2-2s-0.9-2-2-2s-2,0.9-2,2C96.81,76.69,97.7,77.59,98.81,77.59L98.81,77.59z"/>
<line class="st20" x1="468" y1="49.8" x2="468" y2="75.59"/>
<path class="st2" d="M468,51.8c1.11,0,2-0.9,2-2s-0.89-2-2-2s-2,0.9-2,2C466,50.91,466.89,51.8,468,51.8L468,51.8z"/>
<path class="st2" d="M468,77.59c1.11,0,2-0.9,2-2s-0.89-2-2-2s-2,0.9-2,2C466,76.69,466.89,77.59,468,77.59L468,77.59z"/>
<line class="st23" x1="651.2" y1="49.8" x2="651.2" y2="75.59"/>
<path class="st0" d="M651.2,51.8c1.11,0,2-0.9,2-2s-0.9-2-2-2s-2,0.9-2,2C649.2,50.91,650.09,51.8,651.2,51.8L651.2,51.8z"/>
<path class="st0" d="M651.2,77.59c1.11,0,2-0.9,2-2s-0.9-2-2-2s-2,0.9-2,2C649.2,76.69,650.09,77.59,651.2,77.59L651.2,77.59z"/>
<line class="st20" x1="834.4" y1="49.8" x2="834.4" y2="75.59"/>
<path class="st2" d="M834.4,51.8c1.1,0,2-0.9,2-2s-0.9-2-2-2c-1.11,0-2,0.9-2,2C832.4,50.91,833.29,51.8,834.4,51.8L834.4,51.8z"/>
<path class="st2" d="M834.4,77.59c1.1,0,2-0.9,2-2s-0.9-2-2-2c-1.11,0-2,0.9-2,2C832.4,76.69,833.29,77.59,834.4,77.59L834.4,77.59z
	"/>
<rect x="757.8" y="92.03" class="st27" width="153.2" height="20"/>
<a target="_blank" xlink:href="https://odp.finos.org/docs/project-collaboration"><text transform="matrix(1 0 0 1 790.957 101.9072)" class="st24 st21 st26">Code Hosting</text>
<rect x="574.6" y="92.03" class="st27" width="153.2" height="54.99"/></a>
<a target="_blank" xlink:href="https://odp.finos.org/docs/development-infrastructure/code-validation/whitesource"><text transform="matrix(1 0 0 1 618.3479 101.9072)"><tspan x="0" y="0" class="st24 st21 st26">Continuous </tspan><tspan x="6.07" y="15.6" class="st24 st21 st26">Security  </tspan><tspan x="-12.62" y="31.2" class="st24 st21 st26">Scanning</tspan></text></a>
<rect x="391.4" y="92.03" class="st27" width="153.2" height="54.99"/>
<a target="_blank" xlink:href="https://odp.finos.org/docs/development-infrastructure/project-documentation"><text transform="matrix(1 0 0 1 444.5512 101.9072)"><tspan x="0" y="0" class="st24 st21 st26">Project </tspan><tspan x="-25.89" y="15.6" class="st24 st21 st26">documentation </tspan><tspan x="-20.62" y="31.2" class="st24 st21 st26">and Wiki</tspan></text></a>
<rect x="208.2" y="92.03" class="st27" width="153.2" height="54.99"/>
<a target="_blank" xlink:href="https://github.com/finos/open-developer-platform/issues/22"><text transform="matrix(1 0 0 1 261.3512 101.9072)"><tspan x="0" y="0" class="st24 st21 st26">Project </tspan><tspan x="-24.17" y="15.6" class="st24 st21 st26">collaboration - </tspan><tspan x="-30.04" y="31.2" class="st24 st21 st26">Discussions</tspan></text></a>
<rect x="25" y="92.03" class="st27" width="153.2" height="69.99"/>
<a target="_blank" xlink:href="https://github.com/finos/open-developer-platform/issues/72"><text transform="matrix(1 0 0 1 56.7 101.9072)"><tspan x="0" y="0" class="st24 st21 st26">Add GitLab as </tspan><tspan x="-10.87" y="15.6" class="st24 st21 st26">code hosting and </tspan><tspan x="1.98" y="31.2" class="st24 st21 st26">collaboration </tspan><tspan x="1.24" y="46.8" class="st24 st21 st26">platform #72</tspan></text></a>
<rect x="25" y="179.46" class="st27" width="153.2" height="69.99"/>
<text transform="matrix(1 0 0 1 48.8983 189.3372)"><tspan x="0" y="0" class="st24 st21 st26">SSO with FINOS </tspan><tspan x="22.32" y="15.6" class="st24 st21 st26">members </tspan><tspan x="7.39" y="31.2" class="st24 st21 st26">infrastructure</tspan></text>
<rect x="208.2" y="164.89" class="st27" width="153.2" height="67.17"/>
<a target="_blank" xlink:href="https://github.com/finos/open-developer-platform/issues/30"><text transform="matrix(1 0 0 1 251.9479 174.7703)"><tspan x="0" y="0" class="st24 st21 st26">Continous </tspan><tspan x="-20.83" y="15.6" class="st24 st21 st26">license scanning </tspan><tspan x="-2.65" y="31.2" class="st24 st21 st26">automated </tspan><tspan x="-4.79" y="46.8" class="st24 st21 st26">checks</tspan></text></a>
<rect x="208.2" y="256.72" class="st27" width="153.2" height="81.94"/>
<a target="_blank" xlink:href="https://github.com/finos/open-developer-platform/issues/33"><text transform="matrix(1 0 0 1 238.3385 266.5977)"><tspan x="0" y="0" class="st24 st21 st26">Reporting and </tspan><tspan x="5.68" y="15.6" class="st24 st21 st26">notifications </tspan><tspan x="-4.33" y="31.2" class="st24 st21 st26">across security, </tspan><tspan x="-14.57" y="46.8" class="st24 st21 st26">quality and license </tspan><tspan x="1.76" y="62.4" class="st24 st21 st26">scanning</tspan></text></a>
<rect x="391.4" y="164.89" class="st27" width="153.2" height="54.99"/>
<a target="_blank" xlink:href="https://github.com/finos/open-developer-platform/issues/78"><text transform="matrix(1 0 0 1 438.2172 174.7703)"><tspan x="0" y="0" class="st24 st21 st26">Meetings </tspan><tspan x="-12.84" y="15.6" class="st24 st21 st26">Management</tspan></text></a>
<rect x="391.4" y="239.53" class="st27" width="153.2" height="54.99"/>
<a target="_blank" xlink:href="https://github.com/finos/open-developer-platform/issues/31"><text transform="matrix(1 0 0 1 421.7797 249.4109)"><tspan x="0" y="0" class="st24 st21 st26">FINOS project </tspan><tspan x="9.23" y="15.6" class="st24 st21 st26">compliance </tspan><tspan x="1.52" y="31.2" class="st24 st21 st26">scanning</tspan></text></a>
<rect x="574.6" y="164.89" class="st27" width="153.2" height="27.61"/>
<a target="_blank" xlink:href="https://odp.finos.org/docs/project-collaboration#voting"><text transform="matrix(1 0 0 1 603.0852 174.7703)"><tspan x="0" y="0" class="st24 st21 st26">Voting process </tspan></text></a>
<rect x="574.6" y="222.6" class="st27" width="153.2" height="57.8"/>
<a target="_blank" xlink:href="https://odp.finos.org/docs/project-collaboration#access-control"><text transform="matrix(1 0 0 1 602.8909 232.4746)"><tspan x="0" y="0" class="st24 st21 st26">Authentication </tspan><tspan x="-9.59" y="15.6" class="st24 st21 st26">and authorization </tspan><tspan x="34.71" y="31.2" class="st24 st21 st26">#71</tspan></text></a>
<rect x="757.8" y="134.02" class="st27" width="153.2" height="52.37"/>
<a target="_blank" xlink:href="https://odp.finos.org/docs/development-infrastructure/code-validation/intro#cla-bot"><text transform="matrix(1 0 0 1 788.0684 143.8999)"><tspan x="0" y="0" class="st24 st21 st26">Continuous IP </tspan><tspan x="8.43" y="15.6" class="st24 st21 st26">Compliance </tspan><tspan x="17.13" y="31.2" class="st24 st21 st26">scanning</tspan></text></a>
<rect x="757.8" y="210.48" class="st27" width="153.2" height="15.15"/>
<a target="_blank" xlink:href="https://odp.finos.org/docs/development-infrastructure/continuous-integration/intro"><text transform="matrix(1 0 0 1 789.1035 220.3565)" class="st24 st21 st26">CI/CD tooling</text></a>
<rect x="757.8" y="252.03" class="st27" width="153.2" height="56.73"/>
<a target="_blank" xlink:href="https://odp.finos.org/docs/development-infrastructure/continuous-integration/intro#release-and-deployment"><text transform="matrix(1 0 0 1 808.9043 261.9072)"><tspan x="0" y="0" class="st24 st21 st26">Release </tspan><tspan x="-22.27" y="15.6" class="st24 st21 st26">automation on </tspan><tspan x="-26.88" y="31.2" class="st24 st21 st26">public registries</tspan></text></a>
</svg>
