<?xml version="1.0" encoding="utf-8"?>
<!-- Generator: Adobe Illustrator 24.1.0, SVG Export Plug-In . SVG Version: 6.00 Build 0)  -->
<svg version="1.1" id="Layer_1" xmlns="http://www.w3.org/2000/svg" xmlns:xlink="http://www.w3.org/1999/xlink" x="0px" y="0px"
	 viewBox="0 0 936 385" style="enable-background:new 0 0 936 385;" xml:space="preserve">
<style type="text/css">
	@import url("http://odp.finos.org/img/Raleway-Black.ttf");
	.st0{fill:#B02E3C;}
	.st1{clip-path:url(#SVGID_2_);fill:none;stroke:#E84051;stroke-miterlimit:10;}
	.st2{fill:#E84051;}
	.st3{clip-path:url(#SVGID_4_);fill:none;stroke:#E84051;stroke-miterlimit:10;}
	.st4{clip-path:url(#SVGID_6_);fill:none;stroke:#E84051;stroke-miterlimit:10;}
	.st5{clip-path:url(#SVGID_8_);fill:none;stroke:#E84051;stroke-miterlimit:10;}
	.st6{clip-path:url(#SVGID_10_);fill:none;stroke:#E84051;stroke-miterlimit:10;}
	.st7{clip-path:url(#SVGID_12_);fill:none;stroke:#E84051;stroke-miterlimit:10;}
	.st8{clip-path:url(#SVGID_14_);fill:none;stroke:#E84051;stroke-miterlimit:10;}
	.st9{clip-path:url(#SVGID_16_);fill:none;stroke:#E84051;stroke-miterlimit:10;}
	.st10{clip-path:url(#SVGID_18_);fill:none;stroke:#E84051;stroke-miterlimit:10;}
	.st11{clip-path:url(#SVGID_20_);fill:none;stroke:#E84051;stroke-miterlimit:10;}
	.st12{clip-path:url(#SVGID_22_);fill:none;stroke:#E84051;stroke-miterlimit:10;}
	.st13{clip-path:url(#SVGID_24_);fill:none;stroke:#E84051;stroke-miterlimit:10;}
	.st14{clip-path:url(#SVGID_26_);fill:none;stroke:#B02E3C;stroke-miterlimit:10;}
	.st15{clip-path:url(#SVGID_28_);fill:none;stroke:#B02E3C;stroke-miterlimit:10;}
	.st16{clip-path:url(#SVGID_30_);fill:none;stroke:#B02E3C;stroke-miterlimit:10;}
	.st17{clip-path:url(#SVGID_32_);fill:none;stroke:#B02E3C;stroke-miterlimit:10;}
	.st18{clip-path:url(#SVGID_34_);fill:none;stroke:#B02E3C;stroke-miterlimit:10;}
	.st19{clip-path:url(#SVGID_36_);fill:none;stroke:#B02E3C;stroke-miterlimit:10;}
	.st20{fill:#FFFFFF;}
	.st21{font-family:'Raleway-Black';}
	.st22{font-size:13px;}
	.st23{fill:none;stroke:#E84051;stroke-miterlimit:10;}
	.st24{font-size:17px;}
	.st25{fill:none;stroke:#B02E3C;stroke-miterlimit:10;}
</style>
<g>
	<polygon class="st0" points="25,62.3 25,360.8 178.2,360.8 178.2,62.3 25,62.3 	"/>
	<g>
		<defs>
			<polygon id="SVGID_1_" points="25,62.3 25,360.8 178.2,360.8 178.2,62.3 25,62.3 			"/>
		</defs>
		<clipPath id="SVGID_2_">
			<use xlink:href="#SVGID_1_"  style="overflow:visible;"/>
		</clipPath>
		<polyline class="st1" points="139,283.04 188.41,283.04 188.41,329.3 164.93,329.3 164.93,340.66 148.21,340.66 		"/>
	</g>
	<path class="st2" d="M139,285.04c1.1,0,2-0.89,2-2c0-1.11-0.89-2-2-2c-1.11,0-2,0.89-2,2C137,284.15,137.89,285.04,139,285.04
		L139,285.04z"/>
	<path class="st2" d="M148.21,342.66c1.1,0,2-0.9,2-2c0-1.11-0.9-2-2-2c-1.11,0-2,0.9-2,2C146.21,341.77,147.1,342.66,148.21,342.66
		L148.21,342.66z"/>
	<g>
		<defs>
			<polygon id="SVGID_3_" points="25,62.3 25,360.8 178.2,360.8 178.2,62.3 25,62.3 			"/>
		</defs>
		<clipPath id="SVGID_4_">
			<use xlink:href="#SVGID_3_"  style="overflow:visible;"/>
		</clipPath>
		<polyline class="st3" points="42.31,316.53 42.31,295.3 18.83,295.3 18.83,306.66 2.11,306.66 		"/>
	</g>
	<path class="st2" d="M42.31,318.53c1.1,0,2-0.9,2-2c0-1.11-0.9-2-2-2c-1.1,0-2,0.9-2,2C40.31,317.63,41.2,318.53,42.31,318.53
		L42.31,318.53z"/>
	<g>
		<defs>
			<polygon id="SVGID_5_" points="25,62.3 25,360.8 178.2,360.8 178.2,62.3 25,62.3 			"/>
		</defs>
		<clipPath id="SVGID_6_">
			<use xlink:href="#SVGID_5_"  style="overflow:visible;"/>
		</clipPath>
		<line class="st4" x1="17" y1="256.8" x2="74" y2="256.8"/>
	</g>
	<path class="st2" d="M76,256.8c0-1.11-0.9-2-2-2c-1.1,0-2,0.89-2,2c0,1.11,0.9,2,2,2C75.1,258.8,76,257.91,76,256.8L76,256.8z"/>
	<g>
		<defs>
			<polygon id="SVGID_7_" points="25,62.3 25,360.8 178.2,360.8 178.2,62.3 25,62.3 			"/>
		</defs>
		<clipPath id="SVGID_8_">
			<use xlink:href="#SVGID_7_"  style="overflow:visible;"/>
		</clipPath>
		<polyline class="st5" points="69.5,360.8 69.5,342.8 116.5,342.8 116.5,299.07 94.5,299.07 94.5,274.8 		"/>
	</g>
	<path class="st2" d="M94.5,272.8c1.11,0,2,0.89,2,2c0,1.11-0.89,2-2,2c-1.1,0-2-0.89-2-2C92.5,273.7,93.39,272.8,94.5,272.8
		L94.5,272.8z"/>
	<polygon class="st0" points="391.4,62.3 391.4,360.8 544.6,360.8 544.6,62.3 391.4,62.3 	"/>
	<g>
		<defs>
			<polygon id="SVGID_9_" points="391.4,62.3 391.4,360.8 544.6,360.8 544.6,62.3 391.4,62.3 			"/>
		</defs>
		<clipPath id="SVGID_10_">
			<use xlink:href="#SVGID_9_"  style="overflow:visible;"/>
		</clipPath>
		<polyline class="st6" points="517,365.8 517,331.3 489,331.3 489,315.3 		"/>
	</g>
	<path class="st2" d="M489,317.3c1.11,0,2-0.89,2-2c0-1.11-0.89-2-2-2c-1.11,0-2,0.89-2,2C487,316.41,487.89,317.3,489,317.3
		L489,317.3z"/>
	<g>
		<defs>
			<polygon id="SVGID_11_" points="391.4,62.3 391.4,360.8 544.6,360.8 544.6,62.3 391.4,62.3 			"/>
		</defs>
		<clipPath id="SVGID_12_">
			<use xlink:href="#SVGID_11_"  style="overflow:visible;"/>
		</clipPath>
		<polyline class="st7" points="389,305.64 439.5,305.64 439.5,328.96 427.18,328.96 		"/>
	</g>
	<path class="st2" d="M427.18,330.96c1.1,0,2-0.9,2-2c0-1.1-0.9-2-2-2c-1.11,0-2,0.9-2,2C425.18,330.07,426.08,330.96,427.18,330.96
		L427.18,330.96z"/>
	<g>
		<defs>
			<polygon id="SVGID_13_" points="391.4,62.3 391.4,360.8 544.6,360.8 544.6,62.3 391.4,62.3 			"/>
		</defs>
		<clipPath id="SVGID_14_">
			<use xlink:href="#SVGID_13_"  style="overflow:visible;"/>
		</clipPath>
		<line class="st8" x1="460" y1="376.8" x2="460" y2="344.8"/>
	</g>
	<path class="st2" d="M460,346.8c1.11,0,2-0.89,2-2c0-1.11-0.89-2-2-2c-1.1,0-2,0.89-2,2C458,345.91,458.89,346.8,460,346.8
		L460,346.8z"/>
	<g>
		<defs>
			<polygon id="SVGID_15_" points="391.4,62.3 391.4,360.8 544.6,360.8 544.6,62.3 391.4,62.3 			"/>
		</defs>
		<clipPath id="SVGID_16_">
			<use xlink:href="#SVGID_15_"  style="overflow:visible;"/>
		</clipPath>
		<line class="st9" x1="547" y1="301.3" x2="508" y2="301.3"/>
	</g>
	<path class="st2" d="M508,303.3c1.1,0,2-0.89,2-2c0-1.1-0.9-2-2-2s-2,0.89-2,2C506,302.41,506.9,303.3,508,303.3L508,303.3z"/>
	<polygon class="st0" points="757.8,62.3 757.8,360.8 911,360.8 911,62.3 757.8,62.3 	"/>
	<g>
		<defs>
			<polygon id="SVGID_17_" points="757.8,62.3 757.8,360.8 911,360.8 911,62.3 757.8,62.3 			"/>
		</defs>
		<clipPath id="SVGID_18_">
			<use xlink:href="#SVGID_17_"  style="overflow:visible;"/>
		</clipPath>
		<line class="st10" x1="750" y1="333.3" x2="794" y2="333.3"/>
	</g>
	<path class="st2" d="M794,335.3c1.1,0,2-0.89,2-2c0-1.11-0.9-2-2-2s-2,0.89-2,2C792,334.41,792.9,335.3,794,335.3L794,335.3z"/>
	<g>
		<defs>
			<polygon id="SVGID_19_" points="757.8,62.3 757.8,360.8 911,360.8 911,62.3 757.8,62.3 			"/>
		</defs>
		<clipPath id="SVGID_20_">
			<use xlink:href="#SVGID_19_"  style="overflow:visible;"/>
		</clipPath>
		<line class="st11" x1="897" y1="342.3" x2="897" y2="386.3"/>
	</g>
	<path class="st2" d="M895,342.3c0,1.11,0.9,2,2,2s2-0.89,2-2c0-1.11-0.9-2-2-2S895,341.2,895,342.3L895,342.3z"/>
	<g>
		<defs>
			<polygon id="SVGID_21_" points="757.8,62.3 757.8,360.8 911,360.8 911,62.3 757.8,62.3 			"/>
		</defs>
		<clipPath id="SVGID_22_">
			<use xlink:href="#SVGID_21_"  style="overflow:visible;"/>
		</clipPath>
		<polyline class="st12" points="818,365.3 818,318.3 840,318.3 840,346.53 860,346.53 		"/>
	</g>
	<path class="st2" d="M860,348.53c1.1,0,2-0.89,2-2c0-1.1-0.9-2-2-2s-2,0.9-2,2C858,347.63,858.9,348.53,860,348.53L860,348.53z"/>
	<g>
		<defs>
			<polygon id="SVGID_23_" points="757.8,62.3 757.8,360.8 911,360.8 911,62.3 757.8,62.3 			"/>
		</defs>
		<clipPath id="SVGID_24_">
			<use xlink:href="#SVGID_23_"  style="overflow:visible;"/>
		</clipPath>
		<polyline class="st13" points="917,310.3 873,310.3 873,329.3 		"/>
	</g>
	<path class="st2" d="M873,331.3c1.1,0,2-0.89,2-2c0-1.11-0.9-2-2-2s-2,0.89-2,2C871,330.41,871.9,331.3,873,331.3L873,331.3z"/>
	<polygon class="st2" points="208.2,62.3 208.2,360.8 361.4,360.8 361.4,62.3 208.2,62.3 	"/>
	<g>
		<defs>
			<polygon id="SVGID_25_" points="208.2,62.3 208.2,360.8 361.4,360.8 361.4,62.3 208.2,62.3 			"/>
		</defs>
		<clipPath id="SVGID_26_">
			<use xlink:href="#SVGID_25_"  style="overflow:visible;"/>
		</clipPath>
		<polyline class="st14" points="200,341.64 239,341.64 239,352.3 		"/>
	</g>
	<path class="st0" d="M239,354.3c1.1,0,2-0.89,2-2c0-1.11-0.9-2-2-2c-1.1,0-2,0.89-2,2C237,353.41,237.9,354.3,239,354.3L239,354.3z
		"/>
	<g>
		<defs>
			<polygon id="SVGID_27_" points="208.2,62.3 208.2,360.8 361.4,360.8 361.4,62.3 208.2,62.3 			"/>
		</defs>
		<clipPath id="SVGID_28_">
			<use xlink:href="#SVGID_27_"  style="overflow:visible;"/>
		</clipPath>
		<line class="st15" x1="325" y1="368.3" x2="325" y2="348.97"/>
	</g>
	<path class="st0" d="M325,350.97c1.1,0,2-0.9,2-2c0-1.1-0.9-2-2-2c-1.11,0-2,0.89-2,2C323,350.07,323.89,350.97,325,350.97
		L325,350.97z"/>
	<polygon class="st2" points="574.6,62.3 574.6,360.8 727.8,360.8 727.8,62.3 574.6,62.3 	"/>
	<g>
		<defs>
			<polygon id="SVGID_29_" points="574.6,62.3 574.6,360.8 727.8,360.8 727.8,62.3 574.6,62.3 			"/>
		</defs>
		<clipPath id="SVGID_30_">
			<use xlink:href="#SVGID_29_"  style="overflow:visible;"/>
		</clipPath>
		<polyline class="st16" points="571,303.3 624,303.3 624,282.3 		"/>
	</g>
	<path class="st0" d="M624,284.3c1.1,0,2-0.89,2-2c0-1.11-0.9-2-2-2s-2,0.89-2,2C622,283.41,622.9,284.3,624,284.3L624,284.3z"/>
	<g>
		<defs>
			<polygon id="SVGID_31_" points="574.6,62.3 574.6,360.8 727.8,360.8 727.8,62.3 574.6,62.3 			"/>
		</defs>
		<clipPath id="SVGID_32_">
			<use xlink:href="#SVGID_31_"  style="overflow:visible;"/>
		</clipPath>
		<polyline class="st17" points="618,369.3 618,330.3 597.5,330.3 597.5,347.3 588,347.3 		"/>
	</g>
	<path class="st0" d="M588,349.3c1.1,0,2-0.89,2-2c0-1.11-0.9-2-2-2s-2,0.89-2,2C586,348.41,586.9,349.3,588,349.3L588,349.3z"/>
	<g>
		<defs>
			<polygon id="SVGID_33_" points="574.6,62.3 574.6,360.8 727.8,360.8 727.8,62.3 574.6,62.3 			"/>
		</defs>
		<clipPath id="SVGID_34_">
			<use xlink:href="#SVGID_33_"  style="overflow:visible;"/>
		</clipPath>
		<polyline class="st18" points="730,347.8 642,347.8 642,331.3 		"/>
	</g>
	<path class="st0" d="M642,329.3c1.1,0,2,0.89,2,2c0,1.11-0.9,2-2,2s-2-0.89-2-2C640,330.2,640.9,329.3,642,329.3L642,329.3z"/>
	<g>
		<defs>
			<polygon id="SVGID_35_" points="574.6,62.3 574.6,360.8 727.8,360.8 727.8,62.3 574.6,62.3 			"/>
		</defs>
		<clipPath id="SVGID_36_">
			<use xlink:href="#SVGID_35_"  style="overflow:visible;"/>
		</clipPath>
		<polyline class="st19" points="730,319.3 691,319.3 691,290.3 655.2,290.3 		"/>
	</g>
	<path class="st0" d="M655.2,292.3c1.1,0,2-0.89,2-2c0-1.11-0.9-2-2-2c-1.11,0-2,0.89-2,2C653.2,291.41,654.09,292.3,655.2,292.3
		L655.2,292.3z"/>
	<text transform="matrix(1 0 0 1 54.5391 102.0273)" class="st20 st21 st22">A</text>
	<text transform="matrix(1 0 0 1 63.0156 102.0273)" class="st20 st21 st22">dd GitLab as </text>
	<text transform="matrix(1 0 0 1 43.5469 117.0273)" class="st20 st21 st22">code hosting and </text>
	<text transform="matrix(1 0 0 1 55.2344 132.0273)" class="st20 st21 st22">collaboration </text>
	<text transform="matrix(1 0 0 1 56.1719 147.0273)" class="st20 st21 st22">platform #72</text>
	<line class="st23" x1="122.45" y1="164.02" x2="75.16" y2="164.02"/>
	<path class="st2" d="M120.45,164.02c0,1.1,0.89,2,2,2c1.1,0,2-0.9,2-2c0-1.1-0.9-2-2-2C121.35,162.02,120.45,162.92,120.45,164.02
		L120.45,164.02z"/>
	<path class="st2" d="M73.16,164.02c0,1.1,0.9,2,2,2c1.1,0,2-0.9,2-2c0-1.1-0.9-2-2-2C74.06,162.02,73.16,162.92,73.16,164.02
		L73.16,164.02z"/>
	<text transform="matrix(1 0 0 1 49.25 192.0273)" class="st20 st21 st22">SSO </text>
	<text transform="matrix(1 0 0 1 77.8125 192.0273)" class="st20 st21 st22">with FINOS </text>
	<text transform="matrix(1 0 0 1 68.5078 207.0273)" class="st20 st21 st22">members </text>
	<text transform="matrix(1 0 0 1 53.6172 222.0273)" class="st20 st21 st22">infrastructure</text>
	<text transform="matrix(1 0 0 1 67.4688 35.5352)" class="st2 st21 st24">Q4</text>
	<text transform="matrix(1 0 0 1 90.6562 35.5352)" class="st2 st21 st24"> 2020</text>
	<text transform="matrix(1 0 0 1 250.8281 35.5352)" class="st2 st21 st24">Q3 2020</text>
	<text transform="matrix(1 0 0 1 433.875 35.5352)" class="st2 st21 st24">Q2 2020</text>
	<text transform="matrix(1 0 0 1 627.125 35.5352)" class="st2 st21 st24">DONE</text>
	<text transform="matrix(1 0 0 1 781.3281 35.5352)" class="st2 st21 st24">ROLLED OUT</text>
	<text transform="matrix(1 0 0 1 258.9219 102.0273)" class="st20 st21 st22">Project </text>
	<text transform="matrix(1 0 0 1 234.2969 117.0273)" class="st20 st21 st22">collaboration - </text>
	<text transform="matrix(1 0 0 1 230.5469 132.0273)" class="st20 st21 st22">Discussions #22</text>
	<line class="st25" x1="305.65" y1="149.02" x2="258.36" y2="149.02"/>
	<path class="st0" d="M303.65,149.02c0,1.1,0.89,2,2,2c1.1,0,2-0.9,2-2c0-1.1-0.9-2-2-2C304.55,147.02,303.65,147.92,303.65,149.02
		L303.65,149.02z"/>
	<path class="st0" d="M256.36,149.02c0,1.1,0.9,2,2,2c1.1,0,2-0.9,2-2c0-1.1-0.9-2-2-2C257.26,147.02,256.36,147.92,256.36,149.02
		L256.36,149.02z"/>
	<text transform="matrix(1 0 0 1 245.3359 177.0273)" class="st20 st21 st22">Continuous </text>
	<text transform="matrix(1 0 0 1 228.375 192.0273)" class="st20 st21 st22">license scanning </text>
	<text transform="matrix(1 0 0 1 246.3359 207.0273)" class="st20 st21 st22">automated </text>
	<text transform="matrix(1 0 0 1 245.3281 222.0273)" class="st20 st21 st22">checks #76</text>
	<line class="st25" x1="305.65" y1="239.02" x2="258.36" y2="239.02"/>
	<path class="st0" d="M303.65,239.02c0,1.1,0.89,2,2,2c1.1,0,2-0.9,2-2c0-1.1-0.9-2-2-2C304.55,237.02,303.65,237.92,303.65,239.02
		L303.65,239.02z"/>
	<path class="st0" d="M256.36,239.02c0,1.1,0.9,2,2,2c1.1,0,2-0.9,2-2c0-1.1-0.9-2-2-2C257.26,237.02,256.36,237.92,256.36,239.02
		L256.36,239.02z"/>
	<text transform="matrix(1 0 0 1 236.3203 267.0273)" class="st20 st21 st22">R</text>
	<text transform="matrix(1 0 0 1 244.8438 267.0273)" class="st20 st21 st22">eporting and </text>
	<text transform="matrix(1 0 0 1 241.8906 282.0273)" class="st20 st21 st22">notiﬁ</text>
	<text transform="matrix(1 0 0 1 271.0938 282.0273)" class="st20 st21 st22"> </text>
	<text transform="matrix(1 0 0 1 275.1328 282.0273)" class="st20 st21 st22">cations </text>
	<text transform="matrix(1 0 0 1 232.1797 297.0273)" class="st20 st21 st22">across securit</text>
	<text transform="matrix(1 0 0 1 321.5859 297.0273)" class="st20 st21 st22">y,</text>
	<text transform="matrix(1 0 0 1 331.8438 297.0273)" class="st20 st21 st22"> </text>
	<text transform="matrix(1 0 0 1 221.1484 312.0273)" class="st20 st21 st22">qualit</text>
	<text transform="matrix(1 0 0 1 259.4062 312.0273)" class="st20 st21 st22">y </text>
	<text transform="matrix(1 0 0 1 269.25 312.0273)" class="st20 st21 st22">and license </text>
	<text transform="matrix(1 0 0 1 239 327.0273)" class="st20 st21 st22">scanning #33</text>
	<text transform="matrix(1 0 0 1 444.9141 102.0273)" class="st20 st21 st22">Project </text>
	<text transform="matrix(1 0 0 1 418.4453 117.0273)" class="st20 st21 st22">documentation </text>
	<text transform="matrix(1 0 0 1 426.3047 132.0273)" class="st20 st21 st22">and </text>
	<text transform="matrix(1 0 0 1 453.2812 132.0273)" class="st20 st21 st22">Wiki #12</text>
	<line class="st23" x1="491.64" y1="149.02" x2="444.36" y2="149.02"/>
	<path class="st2" d="M489.64,149.02c0,1.1,0.9,2,2,2c1.11,0,2-0.9,2-2c0-1.1-0.9-2-2-2C490.54,147.02,489.64,147.92,489.64,149.02
		L489.64,149.02z"/>
	<path class="st2" d="M442.36,149.02c0,1.1,0.9,2,2,2c1.1,0,2-0.9,2-2c0-1.1-0.9-2-2-2C443.25,147.02,442.36,147.92,442.36,149.02
		L442.36,149.02z"/>
	<text transform="matrix(1 0 0 1 438.5234 177.0273)" class="st20 st21 st22">Meetings </text>
	<text transform="matrix(1 0 0 1 425.0469 192.0273)" class="st20 st21 st22">management </text>
	<text transform="matrix(1 0 0 1 455.25 207.0273)" class="st20 st21 st22">#78</text>
	<line class="st23" x1="491.64" y1="224.02" x2="444.36" y2="224.02"/>
	<path class="st2" d="M489.64,224.02c0,1.1,0.9,2,2,2c1.11,0,2-0.9,2-2c0-1.1-0.9-2-2-2C490.54,222.02,489.64,222.92,489.64,224.02
		L489.64,224.02z"/>
	<path class="st2" d="M442.36,224.02c0,1.1,0.9,2,2,2c1.1,0,2-0.9,2-2c0-1.1-0.9-2-2-2C443.25,222.02,442.36,222.92,442.36,224.02
		L442.36,224.02z"/>
	<text transform="matrix(1 0 0 1 423.7266 252.0273)" class="st20 st21 st22">FINOS project </text>
	<text transform="matrix(1 0 0 1 430.2031 267.0273)" class="st20 st21 st22">compliance </text>
	<text transform="matrix(1 0 0 1 425.2109 282.0273)" class="st20 st21 st22">scanning #31</text>
	<text transform="matrix(1 0 0 1 614.5312 102.0273)" class="st20 st21 st22">Continuous </text>
	<text transform="matrix(1 0 0 1 624.6016 117.0273)" class="st20 st21 st22">Securit</text>
	<text transform="matrix(1 0 0 1 670.8906 117.0273)" class="st20 st21 st22">y </text>
	<text transform="matrix(1 0 0 1 607.5625 132.0273)" class="st20 st21 st22">Scanning #35</text>
	<line class="st25" x1="674.84" y1="149.02" x2="627.56" y2="149.02"/>
	<path class="st0" d="M672.84,149.02c0,1.1,0.9,2,2,2c1.1,0,2-0.9,2-2c0-1.1-0.9-2-2-2C673.74,147.02,672.84,147.92,672.84,149.02
		L672.84,149.02z"/>
	<path class="st0" d="M625.56,149.02c0,1.1,0.89,2,2,2c1.1,0,2-0.9,2-2c0-1.1-0.9-2-2-2C626.45,147.02,625.56,147.92,625.56,149.02
		L625.56,149.02z"/>
	<text transform="matrix(1 0 0 1 603.9375 177.0273)" class="st20 st21 st22">Vo</text>
	<text transform="matrix(1 0 0 1 619.6562 177.0273)" class="st20 st21 st22">ting process </text>
	<text transform="matrix(1 0 0 1 638.5156 192.0273)" class="st20 st21 st22">#46</text>
	<line class="st25" x1="674.84" y1="209.02" x2="627.56" y2="209.02"/>
	<path class="st0" d="M672.84,209.02c0,1.1,0.9,2,2,2c1.1,0,2-0.9,2-2c0-1.1-0.9-2-2-2C673.74,207.02,672.84,207.92,672.84,209.02
		L672.84,209.02z"/>
	<path class="st0" d="M625.56,209.02c0,1.1,0.89,2,2,2c1.1,0,2-0.9,2-2c0-1.1-0.9-2-2-2C626.45,207.02,625.56,207.92,625.56,209.02
		L625.56,209.02z"/>
	<text transform="matrix(1 0 0 1 603.1719 237.0273)" class="st20 st21 st22">Authentication </text>
	<text transform="matrix(1 0 0 1 594.6016 252.0273)" class="st20 st21 st22">and </text>
	<text transform="matrix(1 0 0 1 621.6875 252.0273)" class="st20 st21 st22">authorization </text>
	<text transform="matrix(1 0 0 1 638.875 267.0273)" class="st20 st21 st22">#71</text>
	<text transform="matrix(1 0 0 1 795.2891 102.0273)" class="st20 st21 st22">Code Hosting</text>
	<line class="st23" x1="858.04" y1="119.02" x2="810.76" y2="119.02"/>
	<path class="st2" d="M856.04,119.02c0,1.1,0.9,2,2,2c1.1,0,2-0.9,2-2c0-1.1-0.9-2-2-2C856.94,117.02,856.04,117.92,856.04,119.02
		L856.04,119.02z"/>
	<path class="st2" d="M808.76,119.02c0,1.1,0.9,2,2,2c1.1,0,2-0.9,2-2c0-1.1-0.9-2-2-2C809.65,117.02,808.76,117.92,808.76,119.02
		L808.76,119.02z"/>
	<text transform="matrix(1 0 0 1 790.3359 147.0273)" class="st20 st21 st22">Continuous IP</text>
	<text transform="matrix(1 0 0 1 878.4688 147.0273)" class="st20 st21 st22"> </text>
	<text transform="matrix(1 0 0 1 795.8594 162.0273)" class="st20 st21 st22">Compliance </text>
	<text transform="matrix(1 0 0 1 805.3281 177.0273)" class="st20 st21 st22">scanning</text>
	<line class="st23" x1="858.04" y1="194.02" x2="810.76" y2="194.02"/>
	<path class="st2" d="M856.04,194.02c0,1.1,0.9,2,2,2c1.1,0,2-0.9,2-2c0-1.1-0.9-2-2-2C856.94,192.02,856.04,192.92,856.04,194.02
		L856.04,194.02z"/>
	<path class="st2" d="M808.76,194.02c0,1.1,0.9,2,2,2c1.1,0,2-0.9,2-2c0-1.1-0.9-2-2-2C809.65,192.02,808.76,192.92,808.76,194.02
		L808.76,194.02z"/>
	<text transform="matrix(1 0 0 1 789.3047 222.0273)" class="st20 st21 st22">CI/</text>
	<text transform="matrix(1 0 0 1 812.0781 222.0273)" class="st20 st21 st22">CD tooling</text>
	<line class="st23" x1="858.04" y1="239.02" x2="810.76" y2="239.02"/>
	<path class="st2" d="M856.04,239.02c0,1.1,0.9,2,2,2c1.1,0,2-0.9,2-2c0-1.1-0.9-2-2-2C856.94,237.02,856.04,237.92,856.04,239.02
		L856.04,239.02z"/>
	<path class="st2" d="M808.76,239.02c0,1.1,0.9,2,2,2c1.1,0,2-0.9,2-2c0-1.1-0.9-2-2-2C809.65,237.02,808.76,237.92,808.76,239.02
		L808.76,239.02z"/>
	<text transform="matrix(1 0 0 1 808.8047 267.0273)" class="st20 st21 st22">R</text>
	<text transform="matrix(1 0 0 1 817.3359 267.0273)" class="st20 st21 st22">elease </text>
	<text transform="matrix(1 0 0 1 787.5938 282.0273)" class="st20 st21 st22">automation on </text>
	<text transform="matrix(1 0 0 1 781.9922 297.0273)" class="st20 st21 st22">public registries</text>
	<line class="st25" x1="282.01" y1="49.8" x2="282.01" y2="75.59"/>
	<path class="st0" d="M282.01,51.8c1.1,0,2-0.9,2-2c0-1.1-0.9-2-2-2c-1.11,0-2,0.9-2,2C280.01,50.91,280.9,51.8,282.01,51.8
		L282.01,51.8z"/>
	<path class="st0" d="M282.01,77.59c1.1,0,2-0.9,2-2c0-1.1-0.9-2-2-2c-1.11,0-2,0.9-2,2C280.01,76.69,280.9,77.59,282.01,77.59
		L282.01,77.59z"/>
	<line class="st23" x1="98.81" y1="49.8" x2="98.81" y2="75.59"/>
	<path class="st2" d="M98.81,51.8c1.1,0,2-0.9,2-2c0-1.1-0.9-2-2-2c-1.1,0-2,0.9-2,2C96.81,50.91,97.7,51.8,98.81,51.8L98.81,51.8z"
		/>
	<path class="st2" d="M98.81,77.59c1.1,0,2-0.9,2-2c0-1.1-0.9-2-2-2c-1.1,0-2,0.9-2,2C96.81,76.69,97.7,77.59,98.81,77.59
		L98.81,77.59z"/>
	<line class="st23" x1="468" y1="49.8" x2="468" y2="75.59"/>
	<path class="st2" d="M468,51.8c1.11,0,2-0.9,2-2c0-1.1-0.89-2-2-2c-1.11,0-2,0.9-2,2C466,50.91,466.89,51.8,468,51.8L468,51.8z"/>
	<path class="st2" d="M468,77.59c1.11,0,2-0.9,2-2c0-1.1-0.89-2-2-2c-1.11,0-2,0.9-2,2C466,76.69,466.89,77.59,468,77.59L468,77.59z
		"/>
	<line class="st25" x1="651.2" y1="49.8" x2="651.2" y2="75.59"/>
	<path class="st0" d="M651.2,51.8c1.11,0,2-0.9,2-2c0-1.1-0.9-2-2-2c-1.1,0-2,0.9-2,2C649.2,50.91,650.09,51.8,651.2,51.8
		L651.2,51.8z"/>
	<path class="st0" d="M651.2,77.59c1.11,0,2-0.9,2-2c0-1.1-0.9-2-2-2c-1.1,0-2,0.9-2,2C649.2,76.69,650.09,77.59,651.2,77.59
		L651.2,77.59z"/>
	<line class="st23" x1="834.4" y1="49.8" x2="834.4" y2="75.59"/>
	<path class="st2" d="M834.4,51.8c1.1,0,2-0.9,2-2c0-1.1-0.9-2-2-2c-1.11,0-2,0.9-2,2C832.4,50.91,833.29,51.8,834.4,51.8
		L834.4,51.8z"/>
	<path class="st2" d="M834.4,77.59c1.1,0,2-0.9,2-2c0-1.1-0.9-2-2-2c-1.11,0-2,0.9-2,2C832.4,76.69,833.29,77.59,834.4,77.59
		L834.4,77.59z"/>
</g>
</svg>
