<?xml version="1.0" encoding="utf-8"?>
<!-- Generator: Adobe Illustrator 24.1.0, SVG Export Plug-In . SVG Version: 6.00 Build 0)  -->
<svg version="1.1" id="Layer_1" xmlns="http://www.w3.org/2000/svg" xmlns:xlink="http://www.w3.org/1999/xlink" x="0px" y="0px"
	 viewBox="0 0 146.1 116" style="enable-background:new 0 0 146.1 116;" xml:space="preserve">
<style type="text/css">
	.st0{fill:#E84051;}
	.st1{fill:#0091C7;}
</style>
<g>
	<path class="st0" d="M122.2,41.2H24c-1.4,0-2.6-0.9-3-2.2s0-2.7,1.1-3.6L68.2,1.6l0,0c2.9-2.1,6.7-2.1,9.6,0L124,35.5
		c1.1,0.8,1.6,2.2,1.1,3.6C124.8,40.3,123.5,41.2,122.2,41.2L122.2,41.2z M27.8,36.8h90.6L75.3,5.2c-1.3-1-3.1-1-4.4,0l0,0
		L27.8,36.8L27.8,36.8z M69.6,3.4L69.6,3.4L69.6,3.4L69.6,3.4z"/>
	<path class="st0" d="M28.7,74.9c-1.2,0-2.2-1-2.2-2.2V39c0-1.2,1-2.2,2.2-2.2s2.2,1,2.2,2.2v33.7C30.9,73.9,30,74.9,28.7,74.9
		L28.7,74.9z"/>
	<path class="st0" d="M37.1,74.9c-1.2,0-2.2-1-2.2-2.2V39c0-1.2,1-2.2,2.2-2.2s2.2,1,2.2,2.2v33.7C39.4,73.9,38.4,74.9,37.1,74.9
		L37.1,74.9z"/>
	<path class="st1" d="M73.1,30.2c-4,0-7.3-3.3-7.3-7.3c0-4,3.3-7.3,7.3-7.3c4,0,7.3,3.3,7.3,7.3C80.4,26.9,77.1,30.2,73.1,30.2
		L73.1,30.2z M73.1,20c-1.6,0-2.9,1.3-2.9,2.9s1.3,2.9,2.9,2.9s2.9-1.3,2.9-2.9S74.7,20,73.1,20L73.1,20z"/>
	<path class="st0" d="M45.6,74.9c-1.2,0-2.2-1-2.2-2.2V39c0-1.2,1-2.2,2.2-2.2s2.2,1,2.2,2.2v33.7C47.8,73.9,46.8,74.9,45.6,74.9
		L45.6,74.9z"/>
	<path class="st0" d="M54,74.9c-1.2,0-2.2-1-2.2-2.2V39c0-1.2,1-2.2,2.2-2.2s2.2,1,2.2,2.2v33.7C56.2,73.9,55.2,74.9,54,74.9
		L54,74.9z"/>
	<path class="st0" d="M92.2,74.9c-1.2,0-2.2-1-2.2-2.2V39c0-1.2,1-2.2,2.2-2.2s2.2,1,2.2,2.2v33.7C94.4,73.9,93.4,74.9,92.2,74.9
		L92.2,74.9z"/>
	<path class="st0" d="M100.6,74.9c-1.2,0-2.2-1-2.2-2.2V39c0-1.2,1-2.2,2.2-2.2s2.2,1,2.2,2.2v33.7
		C102.8,73.9,101.8,74.9,100.6,74.9L100.6,74.9z"/>
	<path class="st0" d="M109,74.9c-1.2,0-2.2-1-2.2-2.2V39c0-1.2,1-2.2,2.2-2.2s2.2,1,2.2,2.2v33.7C111.2,73.9,110.2,74.9,109,74.9
		L109,74.9z"/>
	<path class="st0" d="M117.4,74.9c-1.2,0-2.2-1-2.2-2.2V39c0-1.2,1-2.2,2.2-2.2s2.2,1,2.2,2.2v33.7
		C119.6,73.9,118.6,74.9,117.4,74.9L117.4,74.9z"/>
	<path class="st0" d="M125.1,85.1c-1.2,0-2.2-1-2.2-2.2v-6.7c0-0.7-0.6-1.2-1.2-1.2H24.5c-0.7,0-1.2,0.5-1.2,1.2v6.7
		c0,1.2-1,2.2-2.2,2.2s-2.2-1-2.2-2.2v-6.7c0-3.1,2.5-5.7,5.7-5.7h97.2c3.1,0,5.7,2.5,5.7,5.7v6.7C127.3,84.1,126.4,85.1,125.1,85.1
		L125.1,85.1z"/>
	<path class="st0" d="M130.1,95.2c-1.2,0-2.2-1-2.2-2.2v-6.7c0-0.7-0.6-1.2-1.2-1.2H19.5c-0.7,0-1.2,0.5-1.2,1.2V93
		c0,1.2-1,2.2-2.2,2.2s-2.2-1-2.2-2.2v-6.7c0-3.1,2.5-5.7,5.7-5.7h107.2c3.1,0,5.7,2.5,5.7,5.7V93C132.3,94.2,131.3,95.2,130.1,95.2
		L130.1,95.2z"/>
	<path class="st0" d="M134.8,105.3H11.3c-1.2,0-2.2-1-2.2-2.2v-6.7c0-3.1,2.5-5.7,5.7-5.7h60.5c1.2,0,2.2,1,2.2,2.2s-1,2.2-2.2,2.2
		H14.8c-0.7,0-1.2,0.5-1.2,1.2v4.5h119v-4.5c0-0.7-0.6-1.2-1.2-1.2H113c-1.2,0-2.2-1-2.2-2.2s1-2.2,2.2-2.2h18.4
		c3.1,0,5.7,2.5,5.7,5.7v6.7C137,104.3,136,105.3,134.8,105.3L134.8,105.3z"/>
	<path class="st0" d="M104,95.2h-0.7c-1.2,0-2.2-1-2.2-2.2s1-2.2,2.2-2.2h0.7c1.2,0,2.2,1,2.2,2.2C106.2,94.2,105.2,95.2,104,95.2
		L104,95.2z M94.6,95.2h-0.7c-1.2,0-2.2-1-2.2-2.2s1-2.2,2.2-2.2h0.7c1.2,0,2.2,1,2.2,2.2C96.9,94.2,95.9,95.2,94.6,95.2L94.6,95.2z
		 M85.3,95.2h-0.7c-1.2,0-2.2-1-2.2-2.2s1-2.2,2.2-2.2h0.7c1.2,0,2.2,1,2.2,2.2C87.5,94.2,86.5,95.2,85.3,95.2L85.3,95.2z"/>
	<path class="st0" d="M143.9,105.3H2.2c-1.2,0-2.2-1-2.2-2.2s1-2.2,2.2-2.2h141.7c1.2,0,2.2,1,2.2,2.2
		C146.1,104.3,145.1,105.3,143.9,105.3L143.9,105.3z"/>
	<path class="st1" d="M130.7,116H70.2c-1.2,0-2.2-1-2.2-2.2c0-1.2,1-2.2,2.2-2.2h60.5c1.2,0,2.2,1,2.2,2.2
		C132.9,115,131.9,116,130.7,116L130.7,116z"/>
	<path class="st1" d="M35.1,116H15.4c-1.2,0-2.2-1-2.2-2.2c0-1.2,1-2.2,2.2-2.2h19.7c1.2,0,2.2,1,2.2,2.2
		C37.3,115,36.3,116,35.1,116L35.1,116z"/>
	<path class="st1" d="M58.3,116h-1.1c-1.2,0-2.2-1-2.2-2.2c0-1.2,1-2.2,2.2-2.2h1.1c1.2,0,2.2,1,2.2,2.2C60.5,115,59.5,116,58.3,116
		L58.3,116z M48,116h-1.1c-1.2,0-2.2-1-2.2-2.2c0-1.2,1-2.2,2.2-2.2H48c1.2,0,2.2,1,2.2,2.2C50.2,115,49.2,116,48,116L48,116z"/>
</g>
</svg>
