<?xml version="1.0" encoding="utf-8"?>
<!-- Generator: Adobe Illustrator 24.1.0, SVG Export Plug-In . SVG Version: 6.00 Build 0)  -->
<svg version="1.1" id="Layer_1" xmlns="http://www.w3.org/2000/svg" xmlns:xlink="http://www.w3.org/1999/xlink" x="0px" y="0px"
	 viewBox="0 0 864 864" style="enable-background:new 0 0 864 864;" xml:space="preserve">
<style type="text/css">
	.st0{fill:#E84051;}
	.st1{fill:#0091C7;}
</style>
<g>
	<path class="st0" d="M480.16,415.24h-98.19c-1.38,0-2.6-0.88-3.03-2.19c-0.43-1.31,0.03-2.74,1.14-3.56l46.17-33.9v0
		c2.88-2.11,6.74-2.11,9.62,0l46.17,33.9c1.11,0.82,1.57,2.25,1.14,3.56C482.76,414.35,481.54,415.24,480.16,415.24L480.16,415.24z
		 M385.77,410.81h90.6l-43.11-31.65c-1.31-0.96-3.07-0.96-4.38,0c0,0,0,0,0,0L385.77,410.81L385.77,410.81z M427.57,377.37h0.02
		H427.57L427.57,377.37z"/>
	<path class="st0" d="M386.73,448.93c-1.22,0-2.21-0.99-2.21-2.21v-33.7c0-1.22,0.99-2.21,2.21-2.21s2.21,0.99,2.21,2.21v33.7
		C388.94,447.94,387.95,448.93,386.73,448.93L386.73,448.93z"/>
	<path class="st0" d="M395.14,448.93c-1.22,0-2.21-0.99-2.21-2.21v-33.7c0-1.22,0.99-2.21,2.21-2.21c1.22,0,2.21,0.99,2.21,2.21
		v33.7C397.36,447.94,396.37,448.93,395.14,448.93L395.14,448.93z"/>
	<path class="st1" d="M431.07,404.23c-4.04,0-7.33-3.29-7.33-7.33c0-4.04,3.29-7.33,7.33-7.33c4.04,0,7.33,3.29,7.33,7.33
		C438.4,400.95,435.11,404.23,431.07,404.23L431.07,404.23z M431.07,394.01c-1.6,0-2.9,1.3-2.9,2.9c0,1.6,1.3,2.9,2.9,2.9
		c1.6,0,2.9-1.3,2.9-2.9C433.97,395.31,432.67,394.01,431.07,394.01L431.07,394.01z"/>
	<path class="st0" d="M403.56,448.93c-1.22,0-2.21-0.99-2.21-2.21v-33.7c0-1.22,0.99-2.21,2.21-2.21c1.22,0,2.21,0.99,2.21,2.21
		v33.7C405.77,447.94,404.78,448.93,403.56,448.93L403.56,448.93z"/>
	<path class="st0" d="M411.97,448.93c-1.22,0-2.21-0.99-2.21-2.21v-33.7c0-1.22,0.99-2.21,2.21-2.21c1.22,0,2.21,0.99,2.21,2.21
		v33.7C414.19,447.94,413.2,448.93,411.97,448.93L411.97,448.93z"/>
	<path class="st0" d="M450.16,448.93c-1.22,0-2.21-0.99-2.21-2.21v-33.7c0-1.22,0.99-2.21,2.21-2.21s2.21,0.99,2.21,2.21v33.7
		C452.38,447.94,451.38,448.93,450.16,448.93L450.16,448.93z"/>
	<path class="st0" d="M458.58,448.93c-1.22,0-2.21-0.99-2.21-2.21v-33.7c0-1.22,0.99-2.21,2.21-2.21c1.22,0,2.21,0.99,2.21,2.21
		v33.7C460.79,447.94,459.8,448.93,458.58,448.93L458.58,448.93z"/>
	<path class="st0" d="M466.99,448.93c-1.22,0-2.21-0.99-2.21-2.21v-33.7c0-1.22,0.99-2.21,2.21-2.21s2.21,0.99,2.21,2.21v33.7
		C469.21,447.94,468.22,448.93,466.99,448.93L466.99,448.93z"/>
	<path class="st0" d="M475.41,448.93c-1.22,0-2.21-0.99-2.21-2.21v-33.7c0-1.22,0.99-2.21,2.21-2.21c1.22,0,2.21,0.99,2.21,2.21
		v33.7C477.62,447.94,476.63,448.93,475.41,448.93L475.41,448.93z"/>
	<path class="st0" d="M483.13,459.07c-1.22,0-2.21-0.99-2.21-2.22v-6.68c0-0.68-0.56-1.24-1.24-1.24h-97.21
		c-0.68,0-1.24,0.55-1.24,1.24v6.68c0,1.22-0.99,2.22-2.21,2.22c-1.22,0-2.21-0.99-2.21-2.22v-6.68c0-3.12,2.54-5.67,5.67-5.67
		h97.21c3.12,0,5.67,2.54,5.67,5.67v6.68C485.34,458.07,484.35,459.07,483.13,459.07L483.13,459.07z"/>
	<path class="st0" d="M488.11,469.2c-1.22,0-2.21-0.99-2.21-2.21v-6.68c0-0.68-0.56-1.24-1.24-1.24H377.48
		c-0.68,0-1.24,0.55-1.24,1.24v6.68c0,1.22-0.99,2.21-2.21,2.21c-1.22,0-2.21-0.99-2.21-2.21v-6.68c0-3.12,2.54-5.67,5.67-5.67
		h107.17c3.12,0,5.67,2.54,5.67,5.67v6.68C490.32,468.21,489.33,469.2,488.11,469.2L488.11,469.2z"/>
	<path class="st0" d="M492.81,479.33H369.33c-1.22,0-2.21-0.99-2.21-2.21v-6.68c0-3.12,2.54-5.67,5.67-5.67h60.52
		c1.22,0,2.21,0.99,2.21,2.21c0,1.22-0.99,2.21-2.21,2.21h-60.52c-0.68,0-1.24,0.55-1.24,1.24v4.46H490.6v-4.46
		c0-0.68-0.56-1.24-1.24-1.24h-18.36c-1.22,0-2.21-0.99-2.21-2.21c0-1.22,0.99-2.21,2.21-2.21h18.36c3.12,0,5.67,2.54,5.67,5.67
		v6.68C495.02,478.34,494.03,479.33,492.81,479.33L492.81,479.33z"/>
	<path class="st0" d="M462,469.2h-0.74c-1.22,0-2.21-0.99-2.21-2.21c0-1.22,0.99-2.21,2.21-2.21H462c1.22,0,2.21,0.99,2.21,2.21
		C464.21,468.21,463.22,469.2,462,469.2L462,469.2z M452.65,469.2h-0.74c-1.22,0-2.21-0.99-2.21-2.21c0-1.22,0.99-2.21,2.21-2.21
		h0.74c1.22,0,2.21,0.99,2.21,2.21C454.86,468.21,453.87,469.2,452.65,469.2L452.65,469.2z M443.3,469.2h-0.74
		c-1.22,0-2.21-0.99-2.21-2.21c0-1.22,0.99-2.21,2.21-2.21h0.74c1.22,0,2.21,0.99,2.21,2.21C445.51,468.21,444.52,469.2,443.3,469.2
		L443.3,469.2z"/>
	<path class="st0" d="M501.92,479.33H360.21c-1.22,0-2.21-0.99-2.21-2.21c0-1.22,0.99-2.21,2.21-2.21h141.71
		c1.22,0,2.21,0.99,2.21,2.21C504.13,478.34,503.14,479.33,501.92,479.33L501.92,479.33z"/>
	<path class="st1" d="M488.72,490.03h-60.48c-1.22,0-2.22-0.99-2.22-2.22c0-1.22,0.99-2.21,2.22-2.21h60.48
		c1.22,0,2.21,0.99,2.21,2.21C490.93,489.04,489.94,490.03,488.72,490.03L488.72,490.03z"/>
	<path class="st1" d="M393.08,490.03h-19.66c-1.22,0-2.21-0.99-2.21-2.22c0-1.22,0.99-2.21,2.21-2.21h19.66
		c1.22,0,2.21,0.99,2.21,2.21C395.29,489.04,394.3,490.03,393.08,490.03L393.08,490.03z"/>
	<path class="st1" d="M416.32,490.03h-1.06c-1.22,0-2.21-0.99-2.21-2.22c0-1.22,0.99-2.21,2.21-2.21h1.06
		c1.22,0,2.21,0.99,2.21,2.21C418.53,489.04,417.54,490.03,416.32,490.03L416.32,490.03z M405.95,490.03h-1.06
		c-1.22,0-2.21-0.99-2.21-2.22c0-1.22,0.99-2.21,2.21-2.21h1.06c1.22,0,2.21,0.99,2.21,2.21
		C408.16,489.04,407.17,490.03,405.95,490.03L405.95,490.03z"/>
</g>
</svg>
