<?xml version="1.0" encoding="utf-8"?>
<!-- Generator: Adobe Illustrator 24.1.0, SVG Export Plug-In . SVG Version: 6.00 Build 0)  -->
<svg version="1.1" id="Layer_1" xmlns="http://www.w3.org/2000/svg" xmlns:xlink="http://www.w3.org/1999/xlink" x="0px" y="0px"
	 viewBox="0 0 130 114.7" style="enable-background:new 0 0 130 114.7;" xml:space="preserve">
<style type="text/css">
	.st0{fill:#0091C7;}
	.st1{fill:#E84051;}
</style>
<g>
	<path class="st0" d="M22.7,95.2c-8.5,0-15.4-6.9-15.4-15.4c0-8.5,6.9-15.4,15.4-15.4c8.5,0,15.4,6.9,15.4,15.4
		C38.1,88.2,31.2,95.2,22.7,95.2L22.7,95.2z M22.7,69c-5.9,0-10.7,4.8-10.7,10.7c0,5.9,4.8,10.7,10.7,10.7c5.9,0,10.7-4.8,10.7-10.7
		C33.4,73.8,28.6,69,22.7,69L22.7,69z"/>
	<path class="st0" d="M42.9,113.5c-0.9,0-1.8-0.6-2.2-1.5c-1.9-5-6.9-8.4-12.2-8.4H16.8c-5.4,0-10.3,3.4-12.2,8.4
		c-0.5,1.2-1.8,1.8-3,1.3c-1.2-0.5-1.8-1.8-1.3-3c2.6-6.8,9.3-11.4,16.6-11.4h11.8c7.3,0,14,4.6,16.6,11.4c0.5,1.2-0.1,2.6-1.3,3
		C43.5,113.4,43.2,113.5,42.9,113.5L42.9,113.5z"/>
	<path class="st0" d="M107.3,96.4c-8.5,0-15.4-6.9-15.4-15.4s6.9-15.4,15.4-15.4s15.4,6.9,15.4,15.4
		C122.8,89.4,115.8,96.4,107.3,96.4L107.3,96.4z M107.3,70.2c-5.9,0-10.7,4.8-10.7,10.7c0,5.9,4.8,10.7,10.7,10.7
		s10.7-4.8,10.7-10.7C118.1,75,113.2,70.2,107.3,70.2L107.3,70.2z"/>
	<path class="st0" d="M127.6,114.7c-0.9,0-1.8-0.6-2.2-1.5c-1.9-5-6.9-8.4-12.2-8.4h-11.8c-5.4,0-10.3,3.4-12.2,8.4
		c-0.5,1.2-1.8,1.8-3,1.3c-1.2-0.5-1.8-1.8-1.3-3c2.6-6.8,9.3-11.4,16.6-11.4h11.8c7.3,0,14,4.6,16.6,11.4c0.5,1.2-0.1,2.6-1.3,3
		C128.2,114.6,127.9,114.7,127.6,114.7L127.6,114.7z"/>
	<path class="st1" d="M43.1,65.5c-0.4,0-0.9-0.1-1.3-0.3c-1.3-0.5-2.1-1.8-2.1-3.2V51.8H22.5c-6.2,0-11.2-5-11.2-11.2V11.2
		C11.3,5,16.3,0,22.5,0h48.9c6.2,0,11.2,5,11.2,11.2v10c0,1.3-1,2.4-2.4,2.4c-1.3,0-2.4-1-2.4-2.4v-10c0-3.6-2.9-6.5-6.5-6.5H22.5
		c-3.6,0-6.5,2.9-6.5,6.5v29.4c0,3.6,2.9,6.5,6.5,6.5h18.5c1.9,0,3.4,1.5,3.4,3.4V59l10.9-10.9c0.6-0.6,1.5-1,2.4-1h3.9
		c1.3,0,2.4,1,2.4,2.4c0,1.3-1,2.4-2.4,2.4h-3.4L45.5,64.5C44.9,65.2,44,65.5,43.1,65.5L43.1,65.5z"/>
	<path class="st1" d="M61.3,28.3h-0.2c-1.3,0-2.4-1-2.4-2.4s1-2.4,2.4-2.4h0.2c1.3,0,2.4,1,2.4,2.4S62.6,28.3,61.3,28.3L61.3,28.3z
		 M46.9,28.3h-0.2c-1.3,0-2.4-1-2.4-2.4s1-2.4,2.4-2.4h0.2c1.3,0,2.4,1,2.4,2.4S48.2,28.3,46.9,28.3L46.9,28.3z M32.6,28.3h-0.2
		c-1.3,0-2.4-1-2.4-2.4s1-2.4,2.4-2.4h0.2c1.3,0,2.4,1,2.4,2.4S33.9,28.3,32.6,28.3L32.6,28.3z"/>
	<path class="st1" d="M90.1,65.5c-0.8,0-1.5-0.3-2.1-0.9l-6.9-6.9h-7c-4.1,0-7.4-3.3-7.4-7.4V33.7c0-4.1,3.3-7.4,7.4-7.4h27.7
		c4.1,0,7.4,3.3,7.4,7.4v16.6c0,4.1-3.3,7.4-7.4,7.4h-8.7v4.8c0,1.2-0.7,2.3-1.8,2.7C90.9,65.5,90.5,65.5,90.1,65.5L90.1,65.5z
		 M74.1,31.1c-1.5,0-2.7,1.2-2.7,2.7v16.6c0,1.5,1.2,2.7,2.7,2.7h7.8c0.8,0,1.5,0.3,2.1,0.9l4.5,4.5V56c0-1.6,1.3-3,3-3h10.5
		c1.5,0,2.7-1.2,2.7-2.7V33.8c0-1.5-1.2-2.7-2.7-2.7L74.1,31.1L74.1,31.1z M81.9,57.8L81.9,57.8L81.9,57.8L81.9,57.8z"/>
</g>
</svg>
