<?xml version="1.0" encoding="utf-8"?>
<!-- Generator: Adobe Illustrator 24.1.0, SVG Export Plug-In . SVG Version: 6.00 Build 0)  -->
<svg version="1.1" id="Layer_1" xmlns="http://www.w3.org/2000/svg" xmlns:xlink="http://www.w3.org/1999/xlink" x="0px" y="0px"
	 viewBox="0 0 864 864" style="enable-background:new 0 0 864 864;" xml:space="preserve">
<style type="text/css">
	.st0{fill:#0091C7;}
	.st1{fill:#E84051;}
</style>
<g>
	<path class="st0" d="M389.64,470.15c-8.5,0-15.41-6.91-15.41-15.41c0-8.49,6.91-15.41,15.41-15.41c8.49,0,15.41,6.91,15.41,15.41
		C405.05,463.24,398.14,470.15,389.64,470.15L389.64,470.15z M389.64,444.03c-5.9,0-10.71,4.8-10.71,10.71
		c0,5.9,4.8,10.71,10.71,10.71c5.9,0,10.71-4.8,10.71-10.71C400.35,448.84,395.55,444.03,389.64,444.03L389.64,444.03z"/>
	<path class="st0" d="M409.93,488.48c-0.94,0-1.83-0.57-2.19-1.5c-1.94-5.01-6.85-8.38-12.23-8.38h-11.75
		c-5.38,0-10.29,3.37-12.23,8.38c-0.47,1.21-1.82,1.81-3.04,1.34c-1.21-0.47-1.81-1.83-1.34-3.04c2.63-6.81,9.31-11.38,16.61-11.38
		h11.75c7.3,0,13.98,4.57,16.61,11.38c0.47,1.21-0.13,2.57-1.34,3.04C410.5,488.43,410.21,488.48,409.93,488.48L409.93,488.48z"/>
	<path class="st0" d="M474.33,471.36c-8.49,0-15.41-6.91-15.41-15.41c0-8.5,6.91-15.4,15.41-15.4s15.41,6.91,15.41,15.4
		C489.74,464.44,482.82,471.36,474.33,471.36L474.33,471.36z M474.33,445.24c-5.9,0-10.71,4.8-10.71,10.71
		c0,5.9,4.8,10.71,10.71,10.71s10.71-4.8,10.71-10.71C485.04,450.04,480.23,445.24,474.33,445.24L474.33,445.24z"/>
	<path class="st0" d="M494.62,489.69c-0.94,0-1.83-0.57-2.19-1.5c-1.94-5.01-6.85-8.38-12.23-8.38h-11.75
		c-5.38,0-10.29,3.37-12.23,8.38c-0.47,1.21-1.83,1.81-3.04,1.34c-1.21-0.47-1.81-1.83-1.34-3.04c2.63-6.81,9.31-11.38,16.61-11.38
		h11.75c7.3,0,13.98,4.57,16.61,11.38c0.47,1.21-0.13,2.57-1.34,3.04C495.19,489.64,494.9,489.69,494.62,489.69L494.62,489.69z"/>
	<path class="st1" d="M410.09,440.52c-0.44,0-0.89-0.09-1.32-0.26c-1.28-0.53-2.11-1.77-2.11-3.17V426.8h-17.2
		c-6.18,0-11.21-5.03-11.21-11.21v-29.39c0-6.18,5.03-11.21,11.21-11.21h48.91c6.18,0,11.21,5.03,11.21,11.21v10.05
		c0,1.3-1.05,2.35-2.35,2.35c-1.3,0-2.35-1.05-2.35-2.35v-10.05c0-3.59-2.92-6.51-6.51-6.51h-48.91c-3.59,0-6.51,2.92-6.51,6.51
		v29.39c0,3.59,2.92,6.51,6.51,6.51h18.47c1.89,0,3.43,1.54,3.43,3.43v8.49l10.91-10.91c0.65-0.65,1.51-1,2.42-1h3.89
		c1.3,0,2.35,1.05,2.35,2.35c0,1.3-1.05,2.35-2.35,2.35h-3.36l-12.71,12.71C411.86,440.17,410.98,440.52,410.09,440.52
		L410.09,440.52z"/>
	<path class="st1" d="M428.25,403.25h-0.2c-1.3,0-2.35-1.05-2.35-2.35s1.05-2.35,2.35-2.35h0.2c1.3,0,2.35,1.05,2.35,2.35
		S429.55,403.25,428.25,403.25L428.25,403.25z M413.91,403.25h-0.2c-1.3,0-2.35-1.05-2.35-2.35s1.05-2.35,2.35-2.35h0.2
		c1.3,0,2.35,1.05,2.35,2.35S415.21,403.25,413.91,403.25L413.91,403.25z M399.57,403.25h-0.2c-1.3,0-2.35-1.05-2.35-2.35
		s1.05-2.35,2.35-2.35h0.2c1.3,0,2.35,1.05,2.35,2.35S400.87,403.25,399.57,403.25L399.57,403.25z"/>
	<path class="st1" d="M457.12,440.52c-0.77,0-1.52-0.3-2.09-0.87l-6.9-6.9h-7.03c-4.06,0-7.37-3.3-7.37-7.37v-16.65
		c0-4.06,3.3-7.37,7.37-7.37h27.71c4.06,0,7.37,3.3,7.37,7.37v16.65c0,4.06-3.3,7.37-7.37,7.37h-8.73v4.81
		c0,1.2-0.72,2.27-1.83,2.73C457.88,440.45,457.5,440.52,457.12,440.52L457.12,440.52z M441.09,406.06c-1.47,0-2.67,1.2-2.67,2.67
		v16.65c0,1.47,1.2,2.67,2.67,2.67h7.75c0.79,0,1.53,0.31,2.09,0.87l4.45,4.45v-2.35c0-1.63,1.33-2.96,2.96-2.96h10.46
		c1.47,0,2.67-1.2,2.67-2.67v-16.65c0-1.47-1.2-2.67-2.67-2.67H441.09L441.09,406.06z M448.84,432.75h0.02H448.84L448.84,432.75z"/>
</g>
</svg>
