<?xml version="1.0" encoding="utf-8"?>
<!-- Generator: Adobe Illustrator 24.1.0, SVG Export Plug-In . SVG Version: 6.00 Build 0)  -->
<svg version="1.1" id="Layer_1" xmlns="http://www.w3.org/2000/svg" xmlns:xlink="http://www.w3.org/1999/xlink" x="0px" y="0px"
	 viewBox="0 0 144.9 118.3" style="enable-background:new 0 0 144.9 118.3;" xml:space="preserve">
<style type="text/css">
	.st0{fill:#E84051;}
	.st1{fill:#0091C7;}
	.st2{fill:none;stroke:#0091C7;stroke-width:0.9722;stroke-miterlimit:10;}
</style>
<g>
	<path class="st0" d="M130,102.6H14.9C6.7,102.6,0,95.9,0,87.7V14.9C0,6.7,6.7,0,14.9,0H130c8.2,0,14.9,6.7,14.9,14.9v72.8
		C144.9,95.9,138.2,102.6,130,102.6L130,102.6z M14.9,4.4C9.1,4.4,4.4,9.1,4.4,14.9v72.8c0,5.8,4.7,10.5,10.5,10.5H130
		c5.8,0,10.5-4.7,10.5-10.5V14.9c0-5.8-4.7-10.5-10.5-10.5H14.9L14.9,4.4z"/>
	<path class="st0" d="M76.5,94h-8c-1.2,0-2.2-1-2.2-2.2c0-1.2,1-2.2,2.2-2.2h8c1.2,0,2.2,1,2.2,2.2S77.7,94,76.5,94L76.5,94z"/>
	<path class="st0" d="M142.7,86.2H2.2C1,86.2,0,85.2,0,84s1-2.2,2.2-2.2h140.5c1.2,0,2.2,1,2.2,2.2S143.9,86.2,142.7,86.2
		L142.7,86.2z"/>
	<path class="st0" d="M59,118.3c-0.1,0-0.1,0-0.2,0c-1.2-0.1-2.1-1.2-2-2.4l1.5-15.8c0.1-1.2,1.2-2.1,2.4-2c1.2,0.1,2.1,1.2,2,2.4
		l-1.5,15.8C61,117.5,60.1,118.3,59,118.3L59,118.3z"/>
	<path class="st0" d="M86,118.3c-1.1,0-2.1-0.9-2.2-2l-1.5-15.8c-0.1-1.2,0.8-2.3,2-2.4c1.2-0.1,2.3,0.8,2.4,2l1.5,15.8
		c0.1,1.2-0.8,2.3-2,2.4C86.1,118.3,86,118.3,86,118.3L86,118.3z"/>
	<path class="st0" d="M99.8,118.3H45.1c-1.2,0-2.2-1-2.2-2.2c0-1.2,1-2.2,2.2-2.2h54.7c1.2,0,2.2,1,2.2,2.2
		C102,117.3,101,118.3,99.8,118.3L99.8,118.3z"/>
	<path class="st0" d="M67.4,45.5H12.7c-1.2,0-2.2-1-2.2-2.2c0-1.2,1-2.2,2.2-2.2h54.7c1.2,0,2.2,1,2.2,2.2
		C69.6,44.6,68.6,45.5,67.4,45.5L67.4,45.5z"/>
	<path class="st0" d="M133.3,62.4h-49c-1.1,0-2-1-2-2.2s0.9-2.2,2-2.2h49c1.1,0,2,1,2,2.2S134.4,62.4,133.3,62.4L133.3,62.4z"/>
	<path class="st0" d="M73.8,75.5V11.2c0-1.4,1-2.6,2.2-2.6c1.2,0,2.2,1.2,2.2,2.6v64.3c0,1.4-1,2.6-2.2,2.6S73.8,76.9,73.8,75.5
		L73.8,75.5z"/>
	<path class="st1" d="M108.8,37.3c-6.9,0-12.5-5.6-12.5-12.5s5.6-12.5,12.5-12.5s12.5,5.6,12.5,12.5S115.7,37.3,108.8,37.3
		L108.8,37.3z M108.8,16.1c-4.8,0-8.7,3.9-8.7,8.7c0,4.8,3.9,8.7,8.7,8.7s8.7-3.9,8.7-8.7C117.5,20,113.6,16.1,108.8,16.1
		L108.8,16.1z"/>
	<path class="st1" d="M36.1,26c-4.3,0-7.8-3.5-7.8-7.8c0-4.3,3.5-7.8,7.8-7.8c4.3,0,7.8,3.5,7.8,7.8S40.4,26,36.1,26L36.1,26z
		 M36.1,12.8c-3,0-5.4,2.4-5.4,5.4s2.4,5.4,5.4,5.4s5.4-2.4,5.4-5.4C41.5,15.2,39.1,12.8,36.1,12.8L36.1,12.8z"/>
	<path class="st2" d="M36.1,26c-4.3,0-7.8-3.5-7.8-7.8c0-4.3,3.5-7.8,7.8-7.8c4.3,0,7.8,3.5,7.8,7.8S40.4,26,36.1,26L36.1,26z
		 M36.1,12.8c-3,0-5.4,2.4-5.4,5.4s2.4,5.4,5.4,5.4s5.4-2.4,5.4-5.4C41.5,15.2,39.1,12.8,36.1,12.8L36.1,12.8z"/>
	<path class="st1" d="M36.1,68.3c-4.3,0-7.8-3.5-7.8-7.8c0-4.3,3.5-7.8,7.8-7.8c4.3,0,7.8,3.5,7.8,7.8S40.4,68.3,36.1,68.3
		L36.1,68.3z M36.1,55.1c-3,0-5.4,2.4-5.4,5.4s2.4,5.4,5.4,5.4s5.4-2.4,5.4-5.4S39.1,55.1,36.1,55.1L36.1,55.1z"/>
	<path class="st2" d="M36.1,68.3c-4.3,0-7.8-3.5-7.8-7.8c0-4.3,3.5-7.8,7.8-7.8c4.3,0,7.8,3.5,7.8,7.8S40.4,68.3,36.1,68.3
		L36.1,68.3z M36.1,55.1c-3,0-5.4,2.4-5.4,5.4s2.4,5.4,5.4,5.4s5.4-2.4,5.4-5.4S39.1,55.1,36.1,55.1L36.1,55.1z"/>
	<path class="st1" d="M125.2,52.1c-0.8,0-1.5-0.5-1.8-1.2c-1.6-4.1-5.6-6.8-9.9-6.8H104c-4.4,0-8.3,2.7-9.9,6.8
		c-0.4,1-1.5,1.5-2.5,1.1c-1-0.4-1.5-1.5-1.1-2.5c2.1-5.5,7.5-9.2,13.5-9.2h9.5c5.9,0,11.3,3.7,13.5,9.2c0.4,1-0.1,2.1-1.1,2.5
		C125.7,52.1,125.5,52.1,125.2,52.1L125.2,52.1z"/>
	<path class="st1" d="M46.4,35.3c-0.5,0-0.9-0.3-1.1-0.8c-1-2.5-3.5-4.2-6.2-4.2h-6c-2.7,0-5.2,1.7-6.2,4.2
		c-0.2,0.6-0.9,0.9-1.5,0.7c-0.6-0.2-0.9-0.9-0.7-1.5c1.3-3.4,4.7-5.7,8.4-5.7h6c3.7,0,7.1,2.3,8.4,5.7c0.2,0.6-0.1,1.3-0.7,1.5
		C46.7,35.3,46.5,35.3,46.4,35.3L46.4,35.3z"/>
	<path class="st2" d="M46.4,35.3c-0.5,0-0.9-0.3-1.1-0.8c-1-2.5-3.5-4.2-6.2-4.2h-6c-2.7,0-5.2,1.7-6.2,4.2
		c-0.2,0.6-0.9,0.9-1.5,0.7c-0.6-0.2-0.9-0.9-0.7-1.5c1.3-3.4,4.7-5.7,8.4-5.7h6c3.7,0,7.1,2.3,8.4,5.7c0.2,0.6-0.1,1.3-0.7,1.5
		C46.7,35.3,46.5,35.3,46.4,35.3L46.4,35.3z"/>
	<path class="st1" d="M46.4,77.6c-0.5,0-0.9-0.3-1.1-0.8c-1-2.5-3.5-4.2-6.2-4.2h-6c-2.7,0-5.2,1.7-6.2,4.2
		c-0.2,0.6-0.9,0.9-1.5,0.7c-0.6-0.2-0.9-0.9-0.7-1.5c1.3-3.4,4.7-5.7,8.4-5.7h6c3.7,0,7.1,2.3,8.4,5.7c0.2,0.6-0.1,1.3-0.7,1.5
		C46.7,77.6,46.5,77.6,46.4,77.6L46.4,77.6z"/>
	<path class="st2" d="M46.4,77.6c-0.5,0-0.9-0.3-1.1-0.8c-1-2.5-3.5-4.2-6.2-4.2h-6c-2.7,0-5.2,1.7-6.2,4.2
		c-0.2,0.6-0.9,0.9-1.5,0.7c-0.6-0.2-0.9-0.9-0.7-1.5c1.3-3.4,4.7-5.7,8.4-5.7h6c3.7,0,7.1,2.3,8.4,5.7c0.2,0.6-0.1,1.3-0.7,1.5
		C46.7,77.6,46.5,77.6,46.4,77.6L46.4,77.6z"/>
	<polygon class="st1" points="105.3,67.8 105.3,77.3 114.2,72.5 	"/>
</g>
</svg>
