<?xml version="1.0" encoding="utf-8"?>
<!-- Generator: Adobe Illustrator 24.1.0, SVG Export Plug-In . SVG Version: 6.00 Build 0)  -->
<svg version="1.1" id="Layer_1" xmlns="http://www.w3.org/2000/svg" xmlns:xlink="http://www.w3.org/1999/xlink" x="0px" y="0px"
	 viewBox="0 0 864 864" style="enable-background:new 0 0 864 864;" xml:space="preserve">
<style type="text/css">
	.st0{fill:#E84051;}
	.st1{fill:#0091C7;}
	.st2{fill:none;stroke:#0091C7;stroke-width:0.9722;stroke-miterlimit:10;}
</style>
<g>
	<path class="st0" d="M488.99,475.61H373.93c-8.23,0-14.93-6.7-14.93-14.93v-72.75c0-8.23,6.7-14.93,14.93-14.93h115.06
		c8.23,0,14.93,6.7,14.93,14.93v72.75C503.92,468.91,497.23,475.61,488.99,475.61L488.99,475.61z M373.93,377.39
		c-5.81,0-10.54,4.73-10.54,10.54v72.75c0,5.81,4.73,10.54,10.54,10.54h115.06c5.81,0,10.54-4.73,10.54-10.54v-72.75
		c0-5.81-4.73-10.54-10.54-10.54H373.93L373.93,377.39z"/>
	<path class="st0" d="M435.47,467.03h-8.02c-1.21,0-2.2-0.98-2.2-2.2c0-1.21,0.98-2.2,2.2-2.2h8.02c1.21,0,2.2,0.98,2.2,2.2
		C437.67,466.05,436.69,467.03,435.47,467.03L435.47,467.03z"/>
	<path class="st0" d="M501.73,459.21H361.2c-1.21,0-2.2-0.98-2.2-2.2s0.98-2.2,2.2-2.2h140.53c1.21,0,2.2,0.98,2.2,2.2
		S502.94,459.21,501.73,459.21L501.73,459.21z"/>
	<path class="st0" d="M417.96,491.33c-0.07,0-0.14,0-0.21-0.01c-1.21-0.11-2.1-1.18-1.98-2.39l1.46-15.76
		c0.11-1.21,1.19-2.11,2.39-1.98c1.21,0.11,2.1,1.18,1.98,2.39l-1.46,15.76C420.04,490.47,419.08,491.33,417.96,491.33
		L417.96,491.33z"/>
	<path class="st0" d="M444.96,491.33c-1.12,0-2.08-0.85-2.18-1.99l-1.46-15.76c-0.11-1.21,0.78-2.28,1.98-2.39
		c1.2-0.12,2.28,0.77,2.39,1.98l1.46,15.76c0.11,1.21-0.78,2.28-1.98,2.39C445.1,491.32,445.03,491.33,444.96,491.33L444.96,491.33z
		"/>
	<path class="st0" d="M458.82,491.33h-54.71c-1.21,0-2.2-0.98-2.2-2.2c0-1.21,0.98-2.2,2.2-2.2h54.71c1.21,0,2.19,0.98,2.19,2.2
		C461.01,490.34,460.03,491.33,458.82,491.33L458.82,491.33z"/>
	<path class="st0" d="M426.44,418.55h-54.71c-1.21,0-2.2-0.98-2.2-2.2c0-1.21,0.98-2.2,2.2-2.2h54.71c1.21,0,2.2,0.98,2.2,2.2
		C428.64,417.57,427.65,418.55,426.44,418.55L426.44,418.55z"/>
	<path class="st0" d="M492.3,435.36h-49.01c-1.09,0-1.97-0.98-1.97-2.2s0.88-2.2,1.97-2.2h49.01c1.09,0,1.97,0.98,1.97,2.2
		S493.38,435.36,492.3,435.36L492.3,435.36z"/>
	<path class="st0" d="M432.78,448.51V384.2c0-1.43,0.98-2.58,2.2-2.58c1.21,0,2.2,1.16,2.2,2.58v64.31c0,1.42-0.98,2.58-2.2,2.58
		C433.76,451.09,432.78,449.93,432.78,448.51L432.78,448.51z"/>
	<path class="st1" d="M467.79,410.28c-6.89,0-12.5-5.61-12.5-12.49s5.61-12.49,12.5-12.49c6.89,0,12.49,5.6,12.49,12.49
		S474.68,410.28,467.79,410.28L467.79,410.28z M467.79,389.11c-4.79,0-8.69,3.9-8.69,8.68c0,4.79,3.9,8.68,8.69,8.68
		c4.79,0,8.68-3.9,8.68-8.68C476.47,393,472.58,389.11,467.79,389.11L467.79,389.11z"/>
	<path class="st1" d="M395.1,398.99c-4.29,0-7.79-3.49-7.79-7.79c0-4.29,3.49-7.79,7.79-7.79c4.29,0,7.79,3.49,7.79,7.79
		C402.89,395.5,399.4,398.99,395.1,398.99L395.1,398.99z M395.1,385.8c-2.98,0-5.41,2.43-5.41,5.41c0,2.98,2.43,5.41,5.41,5.41
		s5.41-2.43,5.41-5.41C400.52,388.22,398.09,385.8,395.1,385.8L395.1,385.8z"/>
	<path class="st2" d="M395.1,398.99c-4.29,0-7.79-3.49-7.79-7.79c0-4.29,3.49-7.79,7.79-7.79c4.29,0,7.79,3.49,7.79,7.79
		C402.89,395.5,399.4,398.99,395.1,398.99L395.1,398.99z M395.1,385.8c-2.98,0-5.41,2.43-5.41,5.41c0,2.98,2.43,5.41,5.41,5.41
		s5.41-2.43,5.41-5.41C400.52,388.22,398.09,385.8,395.1,385.8L395.1,385.8z"/>
	<path class="st1" d="M395.1,441.28c-4.29,0-7.79-3.49-7.79-7.79c0-4.29,3.49-7.79,7.79-7.79c4.29,0,7.79,3.49,7.79,7.79
		C402.89,437.79,399.4,441.28,395.1,441.28L395.1,441.28z M395.1,428.08c-2.98,0-5.41,2.43-5.41,5.41s2.43,5.41,5.41,5.41
		s5.41-2.43,5.41-5.41S398.09,428.08,395.1,428.08L395.1,428.08z"/>
	<path class="st2" d="M395.1,441.28c-4.29,0-7.79-3.49-7.79-7.79c0-4.29,3.49-7.79,7.79-7.79c4.29,0,7.79,3.49,7.79,7.79
		C402.89,437.79,399.4,441.28,395.1,441.28L395.1,441.28z M395.1,428.08c-2.98,0-5.41,2.43-5.41,5.41s2.43,5.41,5.41,5.41
		s5.41-2.43,5.41-5.41S398.09,428.08,395.1,428.08L395.1,428.08z"/>
	<path class="st1" d="M484.25,425.15c-0.76,0-1.49-0.46-1.78-1.22c-1.57-4.06-5.56-6.79-9.92-6.79h-9.53
		c-4.36,0-8.34,2.73-9.92,6.79c-0.38,0.98-1.48,1.47-2.46,1.09c-0.98-0.38-1.47-1.48-1.09-2.46c2.14-5.52,7.55-9.23,13.47-9.23h9.53
		c5.92,0,11.33,3.71,13.47,9.23c0.38,0.98-0.11,2.08-1.09,2.46C484.71,425.11,484.47,425.15,484.25,425.15L484.25,425.15z"/>
	<path class="st1" d="M405.38,408.32c-0.48,0-0.93-0.29-1.11-0.75c-0.98-2.52-3.47-4.21-6.19-4.21h-5.95
		c-2.72,0-5.21,1.69-6.19,4.21c-0.24,0.61-0.92,0.91-1.54,0.67c-0.61-0.23-0.92-0.92-0.68-1.53c1.33-3.42,4.71-5.71,8.41-5.71h5.95
		c3.7,0,7.08,2.3,8.41,5.71c0.24,0.61-0.07,1.29-0.68,1.53C405.67,408.29,405.52,408.32,405.38,408.32L405.38,408.32z"/>
	<path class="st2" d="M405.38,408.32c-0.48,0-0.93-0.29-1.11-0.75c-0.98-2.52-3.47-4.21-6.19-4.21h-5.95
		c-2.72,0-5.21,1.69-6.19,4.21c-0.24,0.61-0.92,0.91-1.54,0.67c-0.61-0.23-0.92-0.92-0.68-1.53c1.33-3.42,4.71-5.71,8.41-5.71h5.95
		c3.7,0,7.08,2.3,8.41,5.71c0.24,0.61-0.07,1.29-0.68,1.53C405.67,408.29,405.52,408.32,405.38,408.32L405.38,408.32z"/>
	<path class="st1" d="M405.38,450.6c-0.48,0-0.93-0.29-1.11-0.75c-0.98-2.52-3.47-4.21-6.19-4.21h-5.95c-2.72,0-5.21,1.69-6.19,4.2
		c-0.24,0.61-0.92,0.91-1.54,0.68c-0.61-0.23-0.92-0.92-0.68-1.52c1.33-3.42,4.71-5.71,8.41-5.71h5.95c3.7,0,7.08,2.3,8.41,5.71
		c0.24,0.61-0.07,1.29-0.68,1.53C405.67,450.58,405.52,450.6,405.38,450.6L405.38,450.6z"/>
	<path class="st2" d="M405.38,450.6c-0.48,0-0.93-0.29-1.11-0.75c-0.98-2.52-3.47-4.21-6.19-4.21h-5.95c-2.72,0-5.21,1.69-6.19,4.2
		c-0.24,0.61-0.92,0.91-1.54,0.68c-0.61-0.23-0.92-0.92-0.68-1.52c1.33-3.42,4.71-5.71,8.41-5.71h5.95c3.7,0,7.08,2.3,8.41,5.71
		c0.24,0.61-0.07,1.29-0.68,1.53C405.67,450.58,405.52,450.6,405.38,450.6L405.38,450.6z"/>
	<polygon class="st1" points="464.28,440.79 464.28,450.29 473.18,445.54 464.28,440.79 	"/>
</g>
</svg>
