<?xml version="1.0" encoding="utf-8"?>
<!-- Generator: Adobe Illustrator 24.1.0, SVG Export Plug-In . SVG Version: 6.00 Build 0)  -->
<svg version="1.1" id="Layer_1" xmlns="http://www.w3.org/2000/svg" xmlns:xlink="http://www.w3.org/1999/xlink" x="0px" y="0px"
	 viewBox="0 0 143.8 109.6" style="enable-background:new 0 0 143.8 109.6;" xml:space="preserve">
<style type="text/css">
	.st0{fill:#E84051;}
	.st1{fill:#0091C7;}
</style>
<g>
	<path class="st0" d="M71.4,109.6c-18.8,0-36.5-5.5-49.9-15.5C7.7,83.8,0.1,70.1,0,55.3c-0.1-14.8,7.3-28.6,21-39.1
		C34.4,5.9,52.3,0.1,71.3,0c0.2,0,0.5,0,0.7,0c18.8,0,36.5,5.5,49.9,15.5c13.8,10.3,21.4,24,21.5,38.8c0.1,10.5-3.8,20.8-11.1,29.6
		c2.2,11.6,10.9,21.6,11,21.8c0.6,0.6,0.7,1.6,0.3,2.4c-0.4,0.8-1.2,1.3-2,1.2c-0.6,0-15-0.6-29.5-9.3c-11.8,6.2-25.6,9.5-40,9.6
		C71.9,109.6,71.7,109.6,71.4,109.6L71.4,109.6z M72,4.4c-0.2,0-0.4,0-0.7,0C53.3,4.5,36.3,9.9,23.6,19.7
		C11.1,29.3,4.3,41.9,4.4,55.3s7.1,25.9,19.8,35.3c12.7,9.4,29.5,14.6,47.3,14.6c0.2,0,0.4,0,0.7,0c14.1-0.1,27.6-3.5,39-9.7
		c0.7-0.4,1.5-0.4,2.2,0.1c8.9,5.6,18,7.8,23.5,8.7c-3.1-4.5-7.6-12.2-8.9-20.7c-0.1-0.6,0.1-1.3,0.5-1.8
		c7.1-8.2,10.8-17.8,10.7-27.6C139,41,132,28.4,119.3,19C106.7,9.5,89.9,4.4,72,4.4L72,4.4z"/>
	<path class="st1" d="M86.3,84.5c-0.2,0-0.4,0-0.6,0c-5.4-0.1-11.4-1.1-17.1-2.1c-7.1-1.2-13.7-2.4-18.7-1.7
		c-1.2,0.2-2.3-0.7-2.5-1.9c-0.2-1.2,0.7-2.3,1.9-2.5c5.7-0.8,12.7,0.4,20.1,1.7c5.6,1,11.4,2,16.4,2c9,0.1,11.9-1.9,12.8-3.1
		c1-1.2,0.8-2.7,0.6-3.4c-0.1-0.5-0.3-1.6,0.7-2.5c2.3-2,2-4.1,1.4-6.2c-0.2-0.6-0.4-1.4,0-2.3c2.2-4.1,1.4-6.1,1.1-6.8
		c-0.2-0.4-0.6-1.3-0.1-2.3c0.7-1.4,0.8-2.5,0.4-3.7c-0.8-2.1-3.7-4.2-7.6-5.5c-5-1.8-9.9-1.9-12.4-1.8c-1.2,0.1-2.2-0.9-2.3-2.1
		c0-1.2,0.9-2.2,2.1-2.3c2.8-0.1,8.2,0,14,2c3,1.1,8.5,3.5,10.2,8.1c0.8,2,0.8,4.2-0.1,6.4c0.6,1.5,1.2,4.5-1,9.2
		c1.1,3.9,0.5,7.1-1.9,9.6c0.2,1.5,0.2,4-1.6,6.3C99.3,83,94.2,84.5,86.3,84.5L86.3,84.5z"/>
	<path class="st1" d="M75.6,59.5c-0.5,0-0.9-0.1-1.3-0.5c-1-0.7-1.1-2.1-0.4-3.1c1.5-2,2.6-5.5,1.4-8.4c-0.4-1-0.9-1.8-1.4-2.6
		c-1-1.6-2.3-3.6-0.7-6.4c3.8-6.6,3.4-13.9,1.5-18.1c-0.4-0.9-1.1-1.6-1.9-1.7c-0.4-0.1-0.6,0-0.8,0.1c-0.7,0.6-1.3,2.9-2,5.2
		c-1.1,3.7-2.5,8.8-5.8,14.1c-1.6,2.6-2.4,4.6-3.1,6.4c-1,2.6-1.9,4.8-4.4,6.8c-2.4,1.9-6.3,2.6-6.8,2.7c-1.2,0.2-2.3-0.6-2.5-1.8
		s0.6-2.3,1.8-2.5c1.3-0.2,3.7-0.9,4.8-1.8c1.6-1.3,2.1-2.6,3-5c0.7-1.9,1.6-4.2,3.4-7.1c3-4.8,4.3-9.3,5.3-13
		c1-3.3,1.6-5.7,3.2-7.2c1.2-1.1,2.9-1.5,4.6-1.2c2.1,0.4,4,1.9,5,4.2c2.4,5.3,2.9,14.2-1.6,22.1c-0.3,0.5-0.3,0.5,0.6,1.9
		c0.5,0.9,1.2,1.9,1.8,3.3c1.8,4.6,0.3,9.7-2,12.7C76.9,59.2,76.2,59.5,75.6,59.5L75.6,59.5z"/>
	<path class="st1" d="M49.4,84H37.9c-1.2,0-2.2-1-2.2-2.2V47.2c0-1.2,1-2.2,2.2-2.2h11.5c1.2,0,2.2,1,2.2,2.2v34.6
		C51.6,83,50.7,84,49.4,84L49.4,84z M40.1,79.7h7.2V49.4h-7.2V79.7L40.1,79.7z"/>
</g>
</svg>
