<?xml version="1.0" encoding="utf-8"?>
<!-- Generator: Adobe Illustrator 24.1.0, SVG Export Plug-In . SVG Version: 6.00 Build 0)  -->
<svg version="1.1" id="Layer_1" xmlns="http://www.w3.org/2000/svg" xmlns:xlink="http://www.w3.org/1999/xlink" x="0px" y="0px"
	 viewBox="0 0 864 864" style="enable-background:new 0 0 864 864;" xml:space="preserve">
<style type="text/css">
	.st0{fill:#E84051;}
	.st1{fill:#0091C7;}
</style>
<g>
	<path class="st0" d="M431.43,487.58c-18.79,0-36.49-5.49-49.91-15.49c-13.77-10.26-21.41-24.03-21.51-38.79
		c-0.11-14.75,7.34-28.63,20.96-39.09c13.44-10.32,31.33-16.07,50.38-16.21c0.23,0,0.46,0,0.69,0c18.79,0,36.49,5.49,49.91,15.49
		c13.77,10.26,21.41,24.03,21.51,38.79c0.08,10.54-3.76,20.77-11.11,29.65c2.17,11.61,10.86,21.64,10.95,21.75
		c0.57,0.65,0.7,1.59,0.33,2.37c-0.37,0.78-1.21,1.3-2.04,1.24c-0.62-0.02-14.99-0.63-29.48-9.32c-11.82,6.19-25.62,9.51-39.98,9.62
		C431.89,487.58,431.66,487.58,431.43,487.58L431.43,487.58z M432.03,382.36c-0.22,0-0.44,0-0.66,0
		c-18.11,0.13-35.07,5.57-47.76,15.31c-12.51,9.6-19.35,22.25-19.25,35.6c0.1,13.35,7.11,25.9,19.76,35.32
		c12.67,9.44,29.45,14.62,47.31,14.62c0.22,0,0.44,0,0.66,0c14.11-0.1,27.61-3.45,39.05-9.68c0.69-0.38,1.53-0.35,2.2,0.07
		c8.89,5.59,18.03,7.84,23.46,8.74c-3.14-4.51-7.62-12.17-8.93-20.72c-0.1-0.63,0.09-1.27,0.5-1.75
		c7.09-8.25,10.79-17.78,10.73-27.56c-0.1-13.35-7.11-25.9-19.76-35.32C466.67,387.54,449.89,382.36,432.03,382.36L432.03,382.36z"
		/>
	<path class="st1" d="M446.29,462.5c-0.21,0-0.43,0-0.65,0c-5.43-0.06-11.39-1.09-17.15-2.1c-7.06-1.23-13.72-2.39-18.74-1.69
		c-1.19,0.16-2.29-0.67-2.46-1.86c-0.17-1.19,0.67-2.29,1.86-2.46c5.7-0.79,12.69,0.43,20.09,1.72c5.59,0.97,11.37,1.98,16.44,2.03
		c8.96,0.08,11.86-1.88,12.84-3.06c1.03-1.25,0.75-2.67,0.59-3.44c-0.1-0.5-0.33-1.65,0.68-2.51c2.31-1.96,2.05-4.13,1.41-6.18
		c-0.19-0.63-0.44-1.41,0.02-2.27c2.21-4.15,1.37-6.06,1.06-6.78c-0.18-0.42-0.56-1.28-0.06-2.26c0.7-1.35,0.82-2.55,0.38-3.67
		c-0.83-2.09-3.68-4.17-7.62-5.55c-5.04-1.77-9.9-1.85-12.35-1.75c-1.19,0.06-2.22-0.88-2.27-2.08c-0.05-1.2,0.88-2.22,2.09-2.27
		c2.77-0.11,8.25-0.02,13.98,1.99c3.05,1.07,8.45,3.54,10.23,8.06c0.8,2.02,0.75,4.21-0.14,6.37c0.57,1.54,1.22,4.55-1.05,9.23
		c1.11,3.85,0.46,7.08-1.93,9.62c0.21,1.53,0.23,4.01-1.65,6.27C459.3,460.97,454.19,462.5,446.29,462.5L446.29,462.5z"/>
	<path class="st1" d="M435.56,437.55c-0.46,0-0.93-0.15-1.33-0.45c-0.95-0.73-1.13-2.1-0.4-3.06c1.52-1.98,2.61-5.45,1.42-8.4
		c-0.42-1.05-0.93-1.84-1.42-2.6c-1.03-1.61-2.32-3.62-0.73-6.42c3.76-6.61,3.44-13.88,1.47-18.15c-0.43-0.94-1.14-1.59-1.89-1.73
		c-0.39-0.08-0.65,0.01-0.76,0.11c-0.68,0.63-1.32,2.85-2,5.19c-1.07,3.71-2.54,8.8-5.8,14.09c-1.58,2.56-2.38,4.6-3.09,6.41
		c-1.01,2.56-1.87,4.77-4.38,6.77c-2.35,1.87-6.33,2.61-6.77,2.69c-1.19,0.21-2.31-0.59-2.52-1.77c-0.21-1.18,0.58-2.31,1.77-2.52
		c1.27-0.22,3.69-0.91,4.81-1.8c1.59-1.27,2.13-2.65,3.04-4.95c0.74-1.87,1.65-4.21,3.44-7.1c2.95-4.78,4.27-9.34,5.32-13.01
		c0.96-3.32,1.65-5.72,3.22-7.17c1.18-1.1,2.86-1.54,4.57-1.19c2.14,0.42,3.97,1.94,5,4.18c2.44,5.28,2.89,14.17-1.63,22.13
		c-0.27,0.48-0.29,0.51,0.61,1.91c0.54,0.85,1.22,1.9,1.79,3.33c1.84,4.57,0.32,9.66-2.01,12.69
		C436.86,437.25,436.21,437.55,435.56,437.55L435.56,437.55z"/>
	<path class="st1" d="M409.45,462.02h-11.53c-1.2,0-2.18-0.98-2.18-2.18v-34.6c0-1.2,0.98-2.18,2.18-2.18h11.53
		c1.2,0,2.18,0.98,2.18,2.18v34.6C411.63,461.04,410.66,462.02,409.45,462.02L409.45,462.02z M400.1,457.66h7.17v-30.24h-7.17
		V457.66L400.1,457.66z"/>
</g>
</svg>
