<?xml version="1.0" encoding="utf-8"?>
<!-- Generator: Adobe Illustrator 24.1.0, SVG Export Plug-In . SVG Version: 6.00 Build 0)  -->
<svg version="1.1" id="Layer_1" xmlns="http://www.w3.org/2000/svg" xmlns:xlink="http://www.w3.org/1999/xlink" x="0px" y="0px"
	 viewBox="0 0 199.7 128.8" style="enable-background:new 0 0 199.7 128.8;" xml:space="preserve">
<style type="text/css">
	.st0{fill:#FFFFFF;}
	.st1{fill:#0091C7;}
	.st2{fill:#E84051;}
	.st3{fill:none;stroke:#E84051;stroke-width:3.17;stroke-linecap:round;}
</style>
<g>
	<path class="st0" d="M114.3,70.1c0,1.1,0.9,1.9,1.9,1.9h2.5c1.1,0,1.9-0.9,1.9-1.9s-0.9-1.9-1.9-1.9h-2.5
		C115.2,68.2,114.3,69.1,114.3,70.1L114.3,70.1z"/>
	<path class="st0" d="M123.1,70.1c0,1.1,0.9,1.9,1.9,1.9h2.5c1.1,0,1.9-0.9,1.9-1.9s-0.9-1.9-1.9-1.9H125
		C124,68.2,123.1,69.1,123.1,70.1L123.1,70.1z"/>
	<path class="st0" d="M131.9,70.1c0,1.1,0.9,1.9,1.9,1.9h2.5c1.1,0,1.9-0.9,1.9-1.9s-0.9-1.9-1.9-1.9h-2.5
		C132.8,68.2,131.9,69.1,131.9,70.1L131.9,70.1z"/>
	<path class="st0" d="M140.7,70.1c0,1.1,0.9,1.9,1.9,1.9h2.5c1.1,0,1.9-0.9,1.9-1.9s-0.9-1.9-1.9-1.9h-2.5
		C141.5,68.2,140.7,69.1,140.7,70.1L140.7,70.1z"/>
	<path class="st0" d="M159.5,70.1c0,1.1,0.9,1.9,1.9,1.9h2.5c1.1,0,1.9-0.9,1.9-1.9s-0.9-1.9-1.9-1.9h-2.5
		C160.3,68.2,159.5,69.1,159.5,70.1L159.5,70.1z"/>
	<path class="st0" d="M168.2,70.1c0,1.1,0.9,1.9,1.9,1.9h2.5c1.1,0,1.9-0.9,1.9-1.9s-0.9-1.9-1.9-1.9h-2.5
		C169.1,68.2,168.2,69.1,168.2,70.1L168.2,70.1z"/>
	<path class="st0" d="M177,70.1c0,1.1,0.9,1.9,1.9,1.9h2.5c1.1,0,1.9-0.9,1.9-1.9s-0.9-1.9-1.9-1.9H179
		C177.9,68.2,177,69.1,177,70.1L177,70.1z"/>
	<path class="st0" d="M116.1,36.9c-0.4,0.3-0.6,0.7-0.7,1.2c0,0.4,0,0.7,0.2,1s0.4,0.5,0.6,0.8c0.3,0.2,0.5,0.4,0.8,0.6
		c0.3,0.2,0.5,0.4,0.8,0.5c0.7,0.5,1.4,1.1,2.1,1.6c0.7,0.5,1.4,1.1,2.1,1.6c0.3,0.2,0.6,0.5,0.9,0.7c0.3,0.2,0.6,0.4,1,0.5
		c0.5,0.1,0.9,0.1,1.2,0c0.4-0.1,0.6-0.4,0.8-0.7c0.2-0.3,0.3-0.6,0.3-1s-0.1-0.8-0.4-1.1l-0.1-0.1c-0.9-0.7-1.8-1.4-2.7-2.1
		c-0.9-0.7-1.8-1.4-2.8-2c0.5-0.5,1.1-0.9,1.7-1.3c0.6-0.4,1.1-0.9,1.7-1.3c0.1-0.1,0.3-0.2,0.5-0.4c0.2-0.1,0.4-0.3,0.7-0.5
		s0.5-0.4,0.6-0.5s0.3-0.4,0.4-0.6c0.2-0.4,0.3-0.7,0.2-1.1s-0.1-0.7-0.3-1c-0.2-0.3-0.4-0.5-0.8-0.6c-0.3-0.1-0.7-0.2-1.1-0.1
		c-0.5,0.1-1,0.4-1.4,0.8c-0.4,0.4-0.8,0.7-1.2,1.1c-0.7,0.5-1.4,1.1-2.1,1.6s-1.4,1.1-2.1,1.6C116.8,36.3,116.5,36.6,116.1,36.9
		L116.1,36.9z"/>
	<path class="st0" d="M129.4,47.4c-0.2,0.5-0.3,1-0.3,1.5c0,0.5,0.2,0.9,0.5,1.1c0.3,0.3,0.6,0.5,1,0.5s0.7,0,1.1-0.1
		c0.4-0.1,0.6-0.4,0.8-0.8c1.1-2.5,2.2-4.9,3.2-7.4s2.1-5,3.2-7.5c0.3-0.7,0.6-1.4,0.9-2.1c0.3-0.7,0.6-1.4,0.9-2.1
		c0-0.1,0.1-0.3,0.3-0.5c0.1-0.3,0.3-0.5,0.4-0.9s0.2-0.6,0.4-1s0.1-0.6,0.1-0.8c0-0.5-0.2-0.8-0.5-1.1c-0.3-0.3-0.6-0.5-1-0.5
		c-0.4-0.1-0.7,0-1.1,0.1c-0.4,0.1-0.7,0.4-0.9,0.8l-0.1,0.2c-0.6,1.4-1.2,2.8-1.8,4.2c-0.6,1.4-1.2,2.8-1.9,4.3
		c-0.2,0.5-0.4,1-0.6,1.4c-0.2,0.4-0.4,0.9-0.6,1.4c-0.2,0.5-0.4,1-0.6,1.5c-0.2,0.5-0.4,0.9-0.6,1.3c-0.2,0.4-0.3,0.7-0.4,0.9
		c-0.3,0.7-0.6,1.4-0.9,2.1c-0.3,0.7-0.6,1.4-0.9,2.1C129.8,46.5,129.6,47,129.4,47.4L129.4,47.4z"/>
	<path class="st0" d="M145.5,42.4c-0.3,0.4-0.4,0.8-0.4,1.2c0,0.4,0.1,0.8,0.2,1.1c0.2,0.3,0.5,0.5,0.8,0.7c0.4,0.1,0.8,0.1,1.3,0
		c0.4-0.1,0.7-0.3,1-0.5s0.6-0.5,0.9-0.7c0.7-0.5,1.4-1.1,2.1-1.6c0.7-0.5,1.4-1.1,2.1-1.6c0.2-0.2,0.5-0.3,0.8-0.5
		c0.3-0.2,0.6-0.4,0.8-0.6c0.2-0.2,0.5-0.5,0.6-0.8s0.2-0.6,0.1-1c-0.1-0.5-0.3-0.9-0.6-1.1c-0.3-0.3-0.7-0.5-1-0.8
		c-0.3-0.3-0.6-0.5-0.7-0.6s-0.3-0.2-0.4-0.3c-0.1-0.1-0.2-0.2-0.4-0.3c-0.1-0.1-0.4-0.3-0.7-0.5c-0.5-0.4-0.9-0.8-1.4-1.1
		c-0.5-0.4-0.9-0.7-1.4-1.1c-0.3-0.2-0.6-0.5-0.9-0.8c-0.3-0.3-0.7-0.5-1-0.5c-0.4-0.1-0.8-0.1-1.1,0.1c-0.3,0.1-0.6,0.4-0.8,0.7
		c-0.2,0.3-0.3,0.6-0.3,1c0,0.4,0.1,0.7,0.2,1.1c0.1,0.2,0.2,0.4,0.5,0.6c0.2,0.2,0.4,0.4,0.6,0.5s0.4,0.3,0.7,0.5
		c0.2,0.1,0.4,0.3,0.5,0.4c0.6,0.4,1.1,0.9,1.7,1.3s1.1,0.9,1.6,1.3c-0.9,0.6-1.8,1.3-2.7,2c-0.9,0.7-1.8,1.4-2.7,2L145.5,42.4
		L145.5,42.4z"/>
	<path class="st0" d="M131.9,8.1c0,1.1,0.9,1.9,1.9,1.9h3.8c1.1,0,1.9-0.9,1.9-1.9s-0.9-1.9-1.9-1.9h-3.8
		C132.8,6.2,131.9,7,131.9,8.1L131.9,8.1z"/>
	<path class="st1" d="M125.9,42.4c-0.9-0.7-1.8-1.4-2.7-2.1c-0.9-0.7-1.8-1.4-2.8-2c0.5-0.5,1.1-0.9,1.7-1.3
		c0.6-0.4,1.1-0.9,1.7-1.3c0.1-0.1,0.3-0.2,0.5-0.4c0.2-0.1,0.4-0.3,0.7-0.5s0.5-0.4,0.6-0.5s0.3-0.4,0.4-0.6
		c0.2-0.4,0.3-0.7,0.2-1.1s-0.1-0.7-0.3-1c-0.2-0.3-0.4-0.5-0.8-0.6c-0.3-0.1-0.7-0.2-1.1-0.1c-0.5,0.1-1,0.4-1.4,0.8
		c-0.4,0.4-0.8,0.7-1.2,1.1c-0.7,0.5-1.4,1.1-2.1,1.6s-1.4,1.1-2.1,1.6c-0.4,0.3-0.8,0.6-1.1,0.9c-0.4,0.3-0.6,0.7-0.7,1.2
		c0,0.4,0,0.7,0.2,1s0.4,0.5,0.6,0.8c0.3,0.2,0.5,0.4,0.8,0.6c0.3,0.2,0.5,0.4,0.8,0.5c0.7,0.5,1.4,1.1,2.1,1.6
		c0.7,0.5,1.4,1.1,2.1,1.6c0.3,0.2,0.6,0.5,0.9,0.7c0.3,0.2,0.6,0.4,1,0.5c0.5,0.1,0.9,0.1,1.2,0c0.4-0.1,0.6-0.4,0.8-0.7
		c0.2-0.3,0.3-0.6,0.3-1s-0.1-0.8-0.4-1.1L125.9,42.4L125.9,42.4z"/>
	<path class="st1" d="M138.4,26.9c-0.6,1.4-1.2,2.8-1.8,4.2c-0.6,1.4-1.2,2.8-1.9,4.3c-0.2,0.5-0.4,1-0.6,1.4
		c-0.2,0.4-0.4,0.9-0.6,1.4c-0.2,0.5-0.4,1-0.6,1.5c-0.2,0.5-0.4,0.9-0.6,1.3c-0.2,0.4-0.3,0.7-0.4,0.9c-0.3,0.7-0.6,1.4-0.9,2.1
		c-0.3,0.7-0.6,1.4-0.9,2.1c-0.2,0.5-0.5,1-0.7,1.5c-0.2,0.5-0.3,1-0.3,1.5c0,0.5,0.2,0.9,0.5,1.1c0.3,0.3,0.6,0.5,1,0.5
		s0.7,0,1.1-0.1c0.4-0.1,0.6-0.4,0.8-0.8c1.1-2.5,2.2-4.9,3.2-7.4s2.1-5,3.2-7.5c0.3-0.7,0.6-1.4,0.9-2.1c0.3-0.7,0.6-1.4,0.9-2.1
		c0-0.1,0.1-0.3,0.3-0.5c0.1-0.3,0.3-0.5,0.4-0.9s0.2-0.6,0.4-1s0.1-0.6,0.1-0.8c0-0.5-0.2-0.8-0.5-1.1c-0.3-0.3-0.6-0.5-1-0.5
		c-0.4-0.1-0.7,0-1.1,0.1c-0.4,0.1-0.7,0.4-0.9,0.8L138.4,26.9L138.4,26.9z"/>
	<path class="st1" d="M145.5,42.4c-0.3,0.4-0.4,0.8-0.4,1.2c0,0.4,0.1,0.8,0.2,1.1c0.2,0.3,0.5,0.5,0.8,0.7c0.4,0.1,0.8,0.1,1.3,0
		c0.4-0.1,0.7-0.3,1-0.5s0.6-0.5,0.9-0.7c0.7-0.5,1.4-1.1,2.1-1.6c0.7-0.5,1.4-1.1,2.1-1.6c0.2-0.2,0.5-0.3,0.8-0.5
		c0.3-0.2,0.6-0.4,0.8-0.6c0.2-0.2,0.5-0.5,0.6-0.8c0.2-0.3,0.2-0.6,0.1-1c-0.1-0.5-0.3-0.9-0.6-1.1c-0.3-0.3-0.7-0.5-1-0.8
		c-0.3-0.3-0.6-0.5-0.7-0.6s-0.3-0.2-0.4-0.3c-0.1-0.1-0.2-0.2-0.4-0.3c-0.1-0.1-0.4-0.3-0.7-0.5c-0.5-0.4-0.9-0.8-1.4-1.1
		c-0.5-0.4-0.9-0.7-1.4-1.1c-0.3-0.2-0.6-0.5-0.9-0.8c-0.3-0.3-0.7-0.5-1-0.5c-0.4-0.1-0.8-0.1-1.1,0.1c-0.3,0.1-0.6,0.4-0.8,0.7
		c-0.2,0.3-0.3,0.6-0.3,1c0,0.4,0.1,0.7,0.2,1.1c0.1,0.2,0.2,0.4,0.5,0.6c0.2,0.2,0.4,0.4,0.6,0.5s0.4,0.3,0.7,0.5
		c0.2,0.1,0.4,0.3,0.5,0.4c0.6,0.4,1.1,0.9,1.7,1.3s1.1,0.9,1.6,1.3c-0.9,0.6-1.8,1.3-2.7,2c-0.9,0.7-1.8,1.4-2.7,2L145.5,42.4
		L145.5,42.4z"/>
	<path class="st2" d="M179,68.2c-1.1,0-1.9,0.9-1.9,1.9s0.9,1.9,1.9,1.9h2.5c1.1,0,1.9-0.9,1.9-1.9s-0.9-1.9-1.9-1.9H179L179,68.2z
		 M170.2,68.2c-1.1,0-1.9,0.9-1.9,1.9s0.9,1.9,1.9,1.9h2.5c1.1,0,1.9-0.9,1.9-1.9s-0.9-1.9-1.9-1.9H170.2L170.2,68.2z M161.4,68.2
		c-1.1,0-1.9,0.9-1.9,1.9s0.9,1.9,1.9,1.9h2.5c1.1,0,1.9-0.9,1.9-1.9s-0.9-1.9-1.9-1.9H161.4L161.4,68.2z M142.6,68.2
		c-1.1,0-1.9,0.9-1.9,1.9s0.9,1.9,1.9,1.9h2.5c1.1,0,1.9-0.9,1.9-1.9s-0.9-1.9-1.9-1.9H142.6L142.6,68.2z M133.8,68.2
		c-1.1,0-1.9,0.9-1.9,1.9s0.9,1.9,1.9,1.9h2.5c1.1,0,1.9-0.9,1.9-1.9s-0.9-1.9-1.9-1.9H133.8L133.8,68.2z M125,68.2
		c-1.1,0-1.9,0.9-1.9,1.9s0.9,1.9,1.9,1.9h2.5c1.1,0,1.9-0.9,1.9-1.9s-0.9-1.9-1.9-1.9H125L125,68.2z M199.7,79.5v-2.6
		c0-1-0.6-1.9-1.4-2.4l-10.5-11.7V11c0-6.1-5-11-11-11H94.6c-6.1,0-11,5-11,11v31.9h3.9v-27h96.4v45.6h-67.8v3.9H185l7.7,8.6h-76.6
		v3.9h79.7v1.5c0,1.4-1.1,2.5-2.5,2.5h-77.2v3.9h77.2C196.8,85.9,199.7,83,199.7,79.5L199.7,79.5z M183.9,12H87.5v-1
		c0-3.9,3.2-7.1,7.1-7.1h82.1c3.9,0,7.1,3.2,7.1,7.1L183.9,12L183.9,12z M131.9,8.1c0,1.1,0.9,1.9,1.9,1.9h3.8
		c1.1,0,1.9-0.9,1.9-1.9s-0.9-1.9-1.9-1.9h-3.8C132.8,6.2,131.9,7,131.9,8.1L131.9,8.1z M116.3,68.2c-0.1,0-0.1,0-0.2,0V72
		c0,0,0.1,0,0.2,0h2.5c1.1,0,1.9-0.9,1.9-1.9s-0.9-1.9-1.9-1.9H116.3L116.3,68.2z"/>
	<path class="st0" d="M16.3,113.1c0,1.1,0.9,1.9,1.9,1.9h2.5c1.1,0,1.9-0.9,1.9-1.9s-0.9-1.9-1.9-1.9h-2.5
		C17.2,111.1,16.3,112,16.3,113.1L16.3,113.1z"/>
	<path class="st0" d="M25.1,113.1c0,1.1,0.9,1.9,1.9,1.9h2.5c1.1,0,1.9-0.9,1.9-1.9s-0.9-1.9-1.9-1.9H27
		C26,111.1,25.1,112,25.1,113.1L25.1,113.1z"/>
	<path class="st0" d="M33.9,113.1c0,1.1,0.9,1.9,1.9,1.9h2.5c1.1,0,1.9-0.9,1.9-1.9s-0.9-1.9-1.9-1.9h-2.5
		C34.7,111.1,33.9,112,33.9,113.1L33.9,113.1z"/>
	<path class="st0" d="M42.6,113.1c0,1.1,0.9,1.9,1.9,1.9h2.5c1.1,0,1.9-0.9,1.9-1.9s-0.9-1.9-1.9-1.9h-2.5
		C43.5,111.1,42.6,112,42.6,113.1L42.6,113.1z"/>
	<path class="st0" d="M51.4,113.1c0,1.1,0.9,1.9,1.9,1.9h2.5c1.1,0,1.9-0.9,1.9-1.9s-0.9-1.9-1.9-1.9h-2.5
		C52.3,111.1,51.4,112,51.4,113.1L51.4,113.1z"/>
	<path class="st0" d="M60.2,113.1c0,1.1,0.9,1.9,1.9,1.9h2.5c1.1,0,1.9-0.9,1.9-1.9s-0.9-1.9-1.9-1.9h-2.5
		C61.1,111.1,60.2,112,60.2,113.1L60.2,113.1z"/>
	<path class="st0" d="M69,113.1c0,1.1,0.9,1.9,1.9,1.9h2.5c1.1,0,1.9-0.9,1.9-1.9s-0.9-1.9-1.9-1.9h-2.5C69.8,111.1,69,112,69,113.1
		L69,113.1z"/>
	<path class="st0" d="M87.8,113.1c0,1.1,0.9,1.9,1.9,1.9h2.5c1.1,0,1.9-0.9,1.9-1.9s-0.9-1.9-1.9-1.9h-2.5
		C88.6,111.1,87.8,112,87.8,113.1L87.8,113.1z"/>
	<path class="st0" d="M96.5,113.1c0,1.1,0.9,1.9,1.9,1.9h2.5c1.1,0,1.9-0.9,1.9-1.9s-0.9-1.9-1.9-1.9h-2.5
		C97.4,111.1,96.5,112,96.5,113.1L96.5,113.1z"/>
	<path class="st0" d="M105.3,113.1c0,1.1,0.9,1.9,1.9,1.9h2.5c1.1,0,1.9-0.9,1.9-1.9s-0.9-1.9-1.9-1.9h-2.5
		C106.2,111.1,105.3,112,105.3,113.1L105.3,113.1z"/>
	<path class="st0" d="M44.4,79.9c-0.4,0.3-0.6,0.7-0.7,1.2c0,0.4,0,0.7,0.2,1c0.2,0.3,0.4,0.5,0.6,0.8c0.3,0.2,0.5,0.4,0.8,0.6
		c0.3,0.2,0.5,0.4,0.8,0.5c0.7,0.5,1.4,1.1,2.1,1.6c0.7,0.5,1.4,1.1,2.1,1.6c0.3,0.2,0.6,0.5,0.9,0.7c0.3,0.2,0.6,0.4,1,0.5
		c0.5,0.1,0.9,0.1,1.2,0c0.4-0.1,0.6-0.4,0.8-0.7c0.2-0.3,0.3-0.6,0.3-1s-0.1-0.8-0.4-1.1l-0.1-0.1c-0.9-0.7-1.8-1.4-2.7-2.1
		c-0.9-0.7-1.8-1.4-2.8-2c0.5-0.5,1.1-0.9,1.7-1.3s1.1-0.9,1.7-1.3c0.1-0.1,0.3-0.2,0.5-0.4c0.2-0.1,0.4-0.3,0.7-0.5
		s0.5-0.4,0.6-0.5s0.3-0.4,0.4-0.6c0.2-0.4,0.3-0.7,0.2-1.1s-0.1-0.7-0.3-1s-0.4-0.5-0.8-0.6c-0.3-0.1-0.7-0.2-1.1-0.1
		c-0.5,0.1-1,0.4-1.4,0.8c-0.4,0.4-0.8,0.7-1.2,1.1c-0.7,0.5-1.4,1.1-2.1,1.6s-1.4,1.1-2.1,1.6C45.1,79.3,44.8,79.6,44.4,79.9
		L44.4,79.9z"/>
	<path class="st0" d="M57.7,90.4c-0.2,0.5-0.3,1-0.3,1.5c0,0.5,0.2,0.9,0.5,1.1c0.3,0.3,0.6,0.5,1,0.5s0.7,0,1.1-0.1
		c0.4-0.1,0.6-0.4,0.8-0.8c1.1-2.5,2.2-4.9,3.2-7.4s2.1-5,3.2-7.5c0.3-0.7,0.6-1.4,0.9-2.1c0.3-0.7,0.6-1.4,0.9-2.1
		c0-0.1,0.1-0.3,0.3-0.5c0.1-0.3,0.3-0.5,0.4-0.9c0.1-0.3,0.2-0.6,0.4-1s0.1-0.6,0.1-0.8c0-0.5-0.2-0.8-0.5-1.1s-0.6-0.5-1-0.5
		c-0.4-0.1-0.7,0-1.1,0.1c-0.4,0.1-0.7,0.4-0.9,0.8l-0.1,0.2c-0.6,1.4-1.2,2.8-1.8,4.2c-0.6,1.4-1.2,2.8-1.9,4.3
		c-0.2,0.5-0.4,1-0.6,1.4c-0.2,0.4-0.4,0.9-0.6,1.4c-0.2,0.5-0.4,1-0.6,1.5c-0.2,0.5-0.4,0.9-0.6,1.3c-0.2,0.4-0.3,0.7-0.4,0.9
		c-0.3,0.7-0.6,1.4-0.9,2.1c-0.3,0.7-0.6,1.4-0.9,2.1C58.1,89.4,57.9,89.9,57.7,90.4L57.7,90.4z"/>
	<path class="st0" d="M73.8,85.4c-0.3,0.4-0.4,0.8-0.4,1.2c0,0.4,0.1,0.8,0.2,1.1s0.5,0.5,0.8,0.7c0.4,0.1,0.8,0.1,1.3,0
		c0.4-0.1,0.7-0.3,1-0.5s0.6-0.5,0.9-0.7c0.7-0.5,1.4-1.1,2.1-1.6c0.7-0.5,1.4-1.1,2.1-1.6c0.2-0.2,0.5-0.3,0.8-0.5
		c0.3-0.2,0.6-0.4,0.8-0.6c0.2-0.2,0.5-0.5,0.6-0.8c0.2-0.3,0.2-0.6,0.1-1c-0.1-0.5-0.3-0.9-0.6-1.1c-0.3-0.3-0.7-0.6-1-0.8
		c-0.3-0.3-0.6-0.5-0.7-0.6s-0.3-0.2-0.4-0.3c-0.1-0.1-0.2-0.2-0.4-0.3c-0.1-0.1-0.4-0.3-0.7-0.5c-0.5-0.4-0.9-0.8-1.4-1.1
		c-0.5-0.4-0.9-0.7-1.4-1.1c-0.3-0.2-0.6-0.5-0.9-0.8c-0.3-0.3-0.7-0.5-1-0.5c-0.4-0.1-0.8-0.1-1.1,0.1c-0.3,0.1-0.6,0.4-0.8,0.7
		s-0.3,0.6-0.3,1c0,0.4,0.1,0.7,0.2,1.1c0.1,0.2,0.2,0.4,0.5,0.6c0.2,0.2,0.4,0.4,0.6,0.5s0.4,0.3,0.7,0.5c0.2,0.1,0.4,0.3,0.5,0.4
		c0.6,0.4,1.1,0.9,1.7,1.3s1.1,0.9,1.6,1.3c-0.9,0.6-1.8,1.3-2.7,2c-0.9,0.7-1.8,1.4-2.7,2L73.8,85.4L73.8,85.4z"/>
	<path class="st0" d="M60.2,51c0,1.1,0.9,1.9,1.9,1.9h3.8c1.1,0,1.9-0.9,1.9-1.9s-0.9-1.9-1.9-1.9h-3.8C61.1,49.1,60.2,50,60.2,51
		L60.2,51z"/>
	<path class="st1" d="M54.2,85.3c-0.9-0.7-1.8-1.4-2.7-2.1c-0.9-0.7-1.8-1.4-2.8-2c0.5-0.5,1.1-0.9,1.7-1.3s1.1-0.9,1.7-1.3
		c0.1-0.1,0.3-0.2,0.5-0.4c0.2-0.1,0.4-0.3,0.7-0.5s0.5-0.4,0.6-0.5s0.3-0.4,0.4-0.6c0.2-0.4,0.3-0.7,0.2-1.1s-0.1-0.7-0.3-1
		s-0.4-0.5-0.8-0.6c-0.3-0.1-0.7-0.2-1.1-0.1c-0.5,0.1-1,0.4-1.4,0.8c-0.4,0.4-0.8,0.7-1.2,1.1c-0.7,0.5-1.4,1.1-2.1,1.6
		s-1.4,1.1-2.1,1.6c-0.4,0.3-0.8,0.6-1.1,0.9c-0.4,0.3-0.6,0.7-0.7,1.2c0,0.4,0,0.7,0.2,1c0.2,0.3,0.4,0.5,0.6,0.8
		c0.3,0.2,0.5,0.4,0.8,0.6c0.3,0.2,0.5,0.4,0.8,0.5c0.7,0.5,1.4,1.1,2.1,1.6c0.7,0.5,1.4,1.1,2.1,1.6c0.3,0.2,0.6,0.5,0.9,0.7
		c0.3,0.2,0.6,0.4,1,0.5c0.5,0.1,0.9,0.1,1.2,0c0.4-0.1,0.6-0.4,0.8-0.7c0.2-0.3,0.3-0.6,0.3-1s-0.1-0.8-0.4-1.1L54.2,85.3
		L54.2,85.3z"/>
	<path class="st1" d="M66.7,69.8c-0.6,1.4-1.2,2.8-1.8,4.2c-0.6,1.4-1.2,2.8-1.9,4.3c-0.2,0.5-0.4,1-0.6,1.4
		c-0.2,0.4-0.4,0.9-0.6,1.4c-0.2,0.5-0.4,1-0.6,1.5c-0.2,0.5-0.4,0.9-0.6,1.3c-0.2,0.4-0.3,0.7-0.4,0.9c-0.3,0.7-0.6,1.4-0.9,2.1
		c-0.3,0.7-0.6,1.4-0.9,2.1c-0.2,0.5-0.5,1-0.7,1.5c-0.2,0.5-0.3,1-0.3,1.5c0,0.5,0.2,0.9,0.5,1.1c0.3,0.3,0.6,0.5,1,0.5
		c0.4,0.1,0.7,0,1.1-0.1c0.4-0.1,0.6-0.4,0.8-0.8c1.1-2.5,2.2-4.9,3.2-7.4s2.1-5,3.2-7.5c0.3-0.7,0.6-1.4,0.9-2.1
		c0.3-0.7,0.6-1.4,0.9-2.1c0-0.1,0.1-0.3,0.3-0.5c0.1-0.3,0.3-0.5,0.4-0.9c0.1-0.3,0.2-0.6,0.4-1s0.1-0.6,0.1-0.8
		c0-0.5-0.2-0.8-0.5-1.1s-0.6-0.5-1-0.5c-0.4-0.1-0.7,0-1.1,0.1c-0.4,0.1-0.7,0.4-0.9,0.8L66.7,69.8L66.7,69.8z"/>
	<path class="st1" d="M73.8,85.4c-0.3,0.4-0.4,0.8-0.4,1.2c0,0.4,0.1,0.8,0.2,1.1s0.5,0.5,0.8,0.7c0.4,0.1,0.8,0.1,1.3,0
		c0.4-0.1,0.7-0.3,1-0.5s0.6-0.5,0.9-0.7c0.7-0.5,1.4-1.1,2.1-1.6c0.7-0.5,1.4-1.1,2.1-1.6c0.2-0.2,0.5-0.3,0.8-0.5
		c0.3-0.2,0.6-0.4,0.8-0.6c0.2-0.2,0.5-0.5,0.6-0.8c0.2-0.3,0.2-0.6,0.1-1c-0.1-0.5-0.3-0.9-0.6-1.1c-0.3-0.3-0.7-0.6-1-0.8
		c-0.3-0.3-0.6-0.5-0.7-0.6s-0.3-0.2-0.4-0.3c-0.1-0.1-0.2-0.2-0.4-0.3c-0.1-0.1-0.4-0.3-0.7-0.5c-0.5-0.4-0.9-0.8-1.4-1.1
		c-0.5-0.4-0.9-0.7-1.4-1.1c-0.3-0.2-0.6-0.5-0.9-0.8c-0.3-0.3-0.7-0.5-1-0.5c-0.4-0.1-0.8-0.1-1.1,0.1c-0.3,0.1-0.6,0.4-0.8,0.7
		s-0.3,0.6-0.3,1c0,0.4,0.1,0.7,0.2,1.1c0.1,0.2,0.2,0.4,0.5,0.6c0.2,0.2,0.4,0.4,0.6,0.5s0.4,0.3,0.7,0.5c0.2,0.1,0.4,0.3,0.5,0.4
		c0.6,0.4,1.1,0.9,1.7,1.3s1.1,0.9,1.6,1.3c-0.9,0.6-1.8,1.3-2.7,2c-0.9,0.7-1.8,1.4-2.7,2L73.8,85.4L73.8,85.4z"/>
	<path class="st2" d="M121.6,128.8H6.4c-3.5,0-6.4-2.9-6.4-6.4v-2.6c0-1.5,1.2-2.8,2.8-2.8h122.4c1.5,0,2.8,1.3,2.8,2.8v2.6
		C128,125.9,125.1,128.8,121.6,128.8L121.6,128.8z M3.9,120.9v1.5c0,1.4,1.1,2.5,2.5,2.5h115.2c1.4,0,2.5-1.1,2.5-2.5v-1.5H3.9
		L3.9,120.9z M125.2,120.9L125.2,120.9L125.2,120.9L125.2,120.9z"/>
	<path class="st2" d="M65.9,53h-3.8c-1.1,0-1.9-0.9-1.9-1.9s0.9-1.9,1.9-1.9h3.8c1.1,0,1.9,0.9,1.9,1.9C67.8,52.1,67,53,65.9,53
		L65.9,53z"/>
	<path class="st2" d="M114.2,58.9H13.9c-1.1,0-1.9-0.9-1.9-1.9s0.9-1.9,1.9-1.9h100.3c1.1,0,1.9,0.9,1.9,1.9
		C116.1,58,115.2,58.9,114.2,58.9L114.2,58.9z"/>
	<path class="st2" d="M125.5,120.9c-0.5,0-1.1-0.2-1.4-0.6l-11.3-12.6c-0.3-0.4-0.5-0.8-0.5-1.3V54c0-3.9-3.2-7.1-7.1-7.1H23
		c-3.9,0-7.1,3.2-7.1,7.1v52.4c0,0.5-0.2,0.9-0.5,1.3L4,120.3c-0.7,0.8-1.9,0.9-2.7,0.1c-0.8-0.7-0.9-1.9-0.1-2.7l10.8-12V54
		c0-6.1,5-11,11-11h82.1c6.1,0,11,5,11,11v51.7l10.8,12c0.7,0.8,0.6,2-0.1,2.7C126.4,120.7,125.9,120.9,125.5,120.9L125.5,120.9z"/>
	<path class="st2" d="M114.2,108.4H13.9c-1.1,0-1.9-0.9-1.9-1.9s0.9-1.9,1.9-1.9h100.3c1.1,0,1.9,0.9,1.9,1.9
		C116.1,107.5,115.2,108.4,114.2,108.4L114.2,108.4z"/>
	<path class="st2" d="M64.6,115h-2.5c-1.1,0-1.9-0.9-1.9-1.9s0.9-1.9,1.9-1.9h2.5c1.1,0,1.9,0.9,1.9,1.9
		C66.6,114.1,65.7,115,64.6,115L64.6,115z"/>
	<path class="st2" d="M73.4,115h-2.5c-1.1,0-1.9-0.9-1.9-1.9s0.9-1.9,1.9-1.9h2.5c1.1,0,1.9,0.9,1.9,1.9S74.5,115,73.4,115L73.4,115
		z"/>
	<path class="st2" d="M47.1,115h-2.5c-1.1,0-1.9-0.9-1.9-1.9s0.9-1.9,1.9-1.9h2.5c1.1,0,1.9,0.9,1.9,1.9S48.1,115,47.1,115L47.1,115
		z"/>
	<path class="st2" d="M55.9,115h-2.5c-1.1,0-1.9-0.9-1.9-1.9s0.9-1.9,1.9-1.9h2.5c1.1,0,1.9,0.9,1.9,1.9S56.9,115,55.9,115L55.9,115
		z"/>
	<path class="st2" d="M38.3,115h-2.5c-1.1,0-1.9-0.9-1.9-1.9s0.9-1.9,1.9-1.9h2.5c1.1,0,1.9,0.9,1.9,1.9S39.4,115,38.3,115L38.3,115
		z"/>
	<path class="st2" d="M20.8,115h-2.5c-1.1,0-1.9-0.9-1.9-1.9s0.9-1.9,1.9-1.9h2.5c1.1,0,1.9,0.9,1.9,1.9S21.8,115,20.8,115L20.8,115
		z"/>
	<path class="st2" d="M29.5,115H27c-1.1,0-1.9-0.9-1.9-1.9s0.9-1.9,1.9-1.9h2.5c1.1,0,1.9,0.9,1.9,1.9S30.6,115,29.5,115L29.5,115z"
		/>
	<path class="st2" d="M101,115h-2.5c-1.1,0-1.9-0.9-1.9-1.9s0.9-1.9,1.9-1.9h2.5c1.1,0,1.9,0.9,1.9,1.9S102.1,115,101,115L101,115z"
		/>
	<path class="st2" d="M109.8,115h-2.5c-1.1,0-1.9-0.9-1.9-1.9s0.9-1.9,1.9-1.9h2.5c1.1,0,1.9,0.9,1.9,1.9S110.9,115,109.8,115
		L109.8,115z"/>
	<path class="st2" d="M92.2,115h-2.5c-1.1,0-1.9-0.9-1.9-1.9s0.9-1.9,1.9-1.9h2.5c1.1,0,1.9,0.9,1.9,1.9S93.3,115,92.2,115L92.2,115
		z"/>
	<path class="st3" d="M35,36.5c0,0,8.2-16.5,22.7-17.5"/>
	<polyline class="st2" points="66.3,18.4 51.6,14.2 52.3,24.6 66.3,18.4 	"/>
	<path class="st3" d="M173,92.4c0,0-8.2,16.5-22.7,17.5"/>
	<polyline class="st2" points="141.7,110.5 156.5,114.7 155.7,104.3 141.7,110.5 	"/>
</g>
</svg>
