<?xml version="1.0" encoding="utf-8"?>
<!-- Generator: Adobe Illustrator 24.1.0, SVG Export Plug-In . SVG Version: 6.00 Build 0)  -->
<svg version="1.1" id="Layer_1" xmlns="http://www.w3.org/2000/svg" xmlns:xlink="http://www.w3.org/1999/xlink" x="0px" y="0px"
	 viewBox="0 0 864 864" style="enable-background:new 0 0 864 864;" xml:space="preserve">
<style type="text/css">
	.st0{fill:#FFFFFF;}
	.st1{fill:#0091C7;}
	.st2{fill:#E84051;}
	.st3{fill:none;stroke:#E84051;stroke-width:3.17;stroke-linecap:round;}
</style>
<g>
	<path class="st0" d="M446.32,438.13c0,1.07,0.87,1.94,1.94,1.94h2.51c1.07,0,1.94-0.87,1.94-1.94s-0.87-1.94-1.94-1.94h-2.51
		C447.19,436.19,446.32,437.06,446.32,438.13L446.32,438.13z"/>
	<path class="st0" d="M455.1,438.13c0,1.07,0.87,1.94,1.94,1.94h2.51c1.07,0,1.94-0.87,1.94-1.94s-0.87-1.94-1.94-1.94h-2.51
		C455.97,436.19,455.1,437.06,455.1,438.13L455.1,438.13z"/>
	<path class="st0" d="M463.88,438.13c0,1.07,0.87,1.94,1.94,1.94h2.51c1.07,0,1.94-0.87,1.94-1.94s-0.87-1.94-1.94-1.94h-2.51
		C464.75,436.19,463.88,437.06,463.88,438.13L463.88,438.13z"/>
	<path class="st0" d="M472.66,438.13c0,1.07,0.87,1.94,1.94,1.94h2.51c1.07,0,1.94-0.87,1.94-1.94s-0.87-1.94-1.94-1.94h-2.51
		C473.52,436.19,472.66,437.06,472.66,438.13L472.66,438.13z"/>
	<path class="st0" d="M491.47,438.13c0,1.07,0.87,1.94,1.94,1.94h2.51c1.07,0,1.94-0.87,1.94-1.94s-0.87-1.94-1.94-1.94h-2.51
		C492.33,436.19,491.47,437.06,491.47,438.13L491.47,438.13z"/>
	<path class="st0" d="M500.24,438.13c0,1.07,0.87,1.94,1.94,1.94h2.51c1.07,0,1.94-0.87,1.94-1.94s-0.87-1.94-1.94-1.94h-2.51
		C501.11,436.19,500.24,437.06,500.24,438.13L500.24,438.13z"/>
	<path class="st0" d="M509.02,438.13c0,1.07,0.87,1.94,1.94,1.94h2.51c1.07,0,1.94-0.87,1.94-1.94s-0.87-1.94-1.94-1.94h-2.51
		C509.89,436.19,509.02,437.06,509.02,438.13L509.02,438.13z"/>
	<path class="st0" d="M448.1,404.93c-0.36,0.29-0.58,0.71-0.66,1.24c-0.04,0.35,0.02,0.66,0.18,0.95c0.16,0.29,0.38,0.54,0.64,0.78
		c0.26,0.23,0.54,0.44,0.84,0.63c0.29,0.18,0.54,0.36,0.75,0.52c0.71,0.53,1.41,1.06,2.11,1.59c0.69,0.53,1.39,1.06,2.11,1.59
		c0.3,0.22,0.61,0.46,0.92,0.7c0.31,0.24,0.64,0.42,1.01,0.52c0.47,0.12,0.88,0.11,1.24-0.03c0.36-0.14,0.64-0.36,0.84-0.66
		c0.2-0.29,0.3-0.64,0.3-1.04s-0.12-0.78-0.37-1.14l-0.12-0.15c-0.92-0.69-1.83-1.39-2.73-2.11c-0.91-0.71-1.84-1.39-2.79-2.05
		c0.55-0.45,1.1-0.89,1.66-1.31c0.56-0.43,1.12-0.86,1.69-1.31c0.14-0.1,0.32-0.22,0.53-0.37c0.21-0.14,0.44-0.3,0.67-0.47
		c0.23-0.17,0.45-0.36,0.64-0.55c0.19-0.19,0.34-0.39,0.44-0.6c0.18-0.35,0.26-0.7,0.23-1.07c-0.03-0.37-0.14-0.69-0.32-0.98
		c-0.18-0.28-0.44-0.5-0.76-0.64c-0.33-0.14-0.7-0.16-1.13-0.06c-0.53,0.14-1,0.41-1.42,0.79c-0.42,0.39-0.83,0.74-1.24,1.07
		c-0.69,0.55-1.38,1.1-2.06,1.65c-0.68,0.55-1.37,1.09-2.06,1.62C448.84,404.34,448.45,404.64,448.1,404.93L448.1,404.93z"/>
	<path class="st0" d="M461.38,415.43c-0.23,0.45-0.33,0.95-0.29,1.5c0.04,0.49,0.21,0.87,0.5,1.14c0.29,0.27,0.63,0.45,1.01,0.53
		c0.38,0.08,0.74,0.05,1.1-0.11c0.36-0.15,0.62-0.41,0.78-0.78c1.1-2.46,2.18-4.93,3.25-7.4c1.07-2.47,2.14-4.96,3.22-7.46
		c0.31-0.71,0.61-1.42,0.92-2.12c0.3-0.7,0.61-1.41,0.92-2.12c0.04-0.1,0.13-0.28,0.27-0.55c0.14-0.26,0.28-0.55,0.41-0.87
		c0.13-0.32,0.25-0.63,0.35-0.95c0.1-0.32,0.14-0.6,0.12-0.84c-0.04-0.47-0.2-0.84-0.47-1.13c-0.27-0.28-0.6-0.46-0.96-0.53
		c-0.37-0.07-0.73-0.04-1.1,0.11c-0.37,0.14-0.67,0.42-0.92,0.82l-0.12,0.18c-0.61,1.4-1.22,2.81-1.83,4.23
		c-0.61,1.41-1.23,2.83-1.86,4.26c-0.22,0.55-0.43,1.03-0.61,1.43c-0.18,0.41-0.38,0.86-0.6,1.36c-0.21,0.5-0.42,0.98-0.63,1.45
		c-0.2,0.47-0.39,0.9-0.57,1.28c-0.17,0.39-0.3,0.67-0.38,0.85c-0.3,0.71-0.61,1.42-0.92,2.12c-0.3,0.7-0.61,1.41-0.91,2.12
		C461.84,414.5,461.61,414.98,461.38,415.43L461.38,415.43z"/>
	<path class="st0" d="M477.48,410.43c-0.26,0.41-0.41,0.82-0.43,1.24c-0.02,0.42,0.06,0.78,0.24,1.08c0.18,0.31,0.46,0.53,0.82,0.67
		c0.37,0.14,0.8,0.14,1.31,0c0.37-0.1,0.7-0.28,1.01-0.53c0.31-0.25,0.61-0.49,0.92-0.72c0.71-0.53,1.41-1.06,2.11-1.59
		c0.69-0.53,1.39-1.06,2.11-1.59c0.2-0.16,0.46-0.34,0.76-0.52c0.3-0.18,0.59-0.39,0.84-0.63c0.25-0.23,0.46-0.5,0.62-0.79
		c0.16-0.29,0.21-0.62,0.15-0.96c-0.1-0.49-0.31-0.87-0.63-1.14c-0.32-0.27-0.67-0.55-1.05-0.84c-0.32-0.26-0.57-0.46-0.73-0.58
		c-0.16-0.12-0.3-0.23-0.41-0.32c-0.11-0.09-0.23-0.19-0.37-0.29c-0.13-0.1-0.35-0.27-0.66-0.52c-0.47-0.39-0.94-0.76-1.4-1.13
		c-0.47-0.37-0.94-0.73-1.4-1.1c-0.28-0.22-0.59-0.47-0.92-0.75c-0.33-0.27-0.67-0.45-1.04-0.53c-0.43-0.1-0.8-0.08-1.13,0.08
		c-0.33,0.15-0.58,0.38-0.75,0.67c-0.17,0.3-0.27,0.63-0.29,0.99c-0.02,0.37,0.06,0.72,0.24,1.07c0.1,0.2,0.25,0.4,0.46,0.58
		c0.2,0.18,0.42,0.36,0.64,0.53c0.22,0.17,0.44,0.33,0.66,0.47c0.21,0.14,0.39,0.26,0.53,0.37c0.57,0.43,1.13,0.85,1.68,1.28
		c0.55,0.43,1.1,0.86,1.65,1.31c-0.92,0.65-1.82,1.32-2.7,2.01c-0.89,0.69-1.79,1.37-2.7,2.04L477.48,410.43L477.48,410.43z"/>
	<path class="st0" d="M463.88,376.1c0,1.07,0.87,1.94,1.94,1.94h3.76c1.07,0,1.94-0.87,1.94-1.94c0-1.07-0.87-1.94-1.94-1.94h-3.76
		C464.75,374.16,463.88,375.02,463.88,376.1L463.88,376.1z"/>
	<path class="st1" d="M457.88,410.41c-0.92-0.69-1.83-1.39-2.73-2.11c-0.91-0.71-1.84-1.39-2.79-2.04c0.55-0.45,1.1-0.89,1.66-1.31
		c0.56-0.43,1.12-0.86,1.69-1.31c0.14-0.1,0.32-0.22,0.53-0.37c0.21-0.14,0.44-0.3,0.67-0.47c0.23-0.17,0.45-0.36,0.64-0.55
		c0.19-0.19,0.34-0.39,0.44-0.6c0.18-0.35,0.26-0.7,0.23-1.07c-0.03-0.37-0.14-0.69-0.32-0.98c-0.18-0.28-0.44-0.5-0.76-0.64
		c-0.33-0.14-0.7-0.16-1.13-0.06c-0.53,0.14-1,0.41-1.42,0.79c-0.42,0.39-0.83,0.74-1.24,1.07c-0.69,0.55-1.38,1.1-2.06,1.65
		c-0.68,0.55-1.37,1.09-2.06,1.62c-0.41,0.31-0.79,0.61-1.14,0.9c-0.36,0.3-0.58,0.71-0.66,1.24c-0.04,0.35,0.02,0.66,0.18,0.95
		c0.16,0.29,0.38,0.54,0.64,0.78c0.26,0.23,0.54,0.44,0.84,0.63c0.29,0.18,0.55,0.36,0.75,0.52c0.71,0.53,1.41,1.06,2.11,1.59
		c0.69,0.53,1.39,1.06,2.11,1.59c0.3,0.22,0.61,0.46,0.92,0.7c0.31,0.24,0.64,0.42,1.01,0.52c0.47,0.12,0.88,0.11,1.24-0.03
		c0.36-0.14,0.64-0.36,0.84-0.66c0.2-0.29,0.3-0.64,0.3-1.04c0-0.4-0.12-0.78-0.37-1.14L457.88,410.41L457.88,410.41z"/>
	<path class="st1" d="M470.36,394.86c-0.61,1.4-1.22,2.81-1.83,4.23c-0.61,1.41-1.23,2.83-1.86,4.26c-0.23,0.55-0.43,1.03-0.61,1.43
		c-0.18,0.41-0.38,0.86-0.6,1.36c-0.21,0.5-0.42,0.98-0.63,1.45c-0.2,0.47-0.39,0.9-0.56,1.28c-0.17,0.39-0.3,0.67-0.38,0.85
		c-0.3,0.71-0.61,1.42-0.92,2.12c-0.3,0.7-0.61,1.41-0.91,2.12c-0.22,0.53-0.45,1.02-0.69,1.47c-0.23,0.45-0.33,0.95-0.29,1.5
		c0.04,0.49,0.21,0.87,0.5,1.14c0.29,0.27,0.63,0.45,1.01,0.53c0.38,0.08,0.74,0.05,1.1-0.11c0.35-0.15,0.61-0.41,0.78-0.78
		c1.1-2.46,2.18-4.93,3.25-7.4c1.07-2.47,2.14-4.96,3.22-7.46c0.31-0.71,0.61-1.42,0.92-2.12c0.3-0.7,0.61-1.41,0.92-2.12
		c0.04-0.1,0.13-0.28,0.27-0.55c0.14-0.26,0.28-0.55,0.41-0.87c0.13-0.32,0.25-0.63,0.35-0.95c0.1-0.32,0.14-0.6,0.12-0.84
		c-0.04-0.47-0.2-0.84-0.47-1.13c-0.27-0.28-0.6-0.46-0.96-0.53c-0.37-0.07-0.73-0.04-1.1,0.11c-0.37,0.14-0.67,0.42-0.92,0.82
		L470.36,394.86L470.36,394.86z"/>
	<path class="st1" d="M477.48,410.43c-0.26,0.41-0.41,0.82-0.43,1.24c-0.02,0.42,0.06,0.78,0.24,1.08c0.18,0.31,0.46,0.53,0.82,0.67
		c0.37,0.14,0.8,0.14,1.31,0c0.37-0.1,0.7-0.28,1.01-0.53c0.31-0.25,0.61-0.49,0.92-0.72c0.71-0.53,1.41-1.06,2.11-1.59
		c0.69-0.53,1.39-1.06,2.11-1.59c0.2-0.16,0.46-0.34,0.76-0.52c0.31-0.18,0.59-0.39,0.84-0.63c0.25-0.23,0.46-0.5,0.63-0.79
		c0.16-0.29,0.21-0.62,0.15-0.96c-0.1-0.49-0.31-0.87-0.63-1.14c-0.32-0.27-0.67-0.55-1.05-0.84c-0.32-0.26-0.57-0.46-0.73-0.58
		s-0.3-0.23-0.41-0.32c-0.11-0.09-0.23-0.19-0.37-0.29c-0.13-0.1-0.35-0.27-0.66-0.52c-0.47-0.39-0.94-0.76-1.4-1.13
		c-0.47-0.37-0.94-0.73-1.4-1.1c-0.28-0.22-0.59-0.47-0.91-0.75c-0.33-0.27-0.67-0.45-1.04-0.53c-0.43-0.1-0.8-0.08-1.13,0.08
		c-0.33,0.15-0.58,0.38-0.75,0.67c-0.17,0.3-0.27,0.63-0.29,0.99c-0.02,0.37,0.06,0.72,0.24,1.07c0.1,0.2,0.25,0.4,0.46,0.58
		c0.2,0.18,0.42,0.36,0.64,0.53c0.22,0.17,0.44,0.33,0.66,0.47c0.21,0.14,0.39,0.26,0.53,0.37c0.57,0.43,1.13,0.85,1.68,1.28
		s1.1,0.87,1.65,1.31c-0.92,0.65-1.82,1.32-2.7,2.01c-0.89,0.69-1.79,1.37-2.7,2.04L477.48,410.43L477.48,410.43z"/>
	<path class="st2" d="M510.96,436.19c-1.07,0-1.94,0.87-1.94,1.94s0.87,1.94,1.94,1.94h2.51c1.07,0,1.94-0.87,1.94-1.94
		s-0.87-1.94-1.94-1.94H510.96L510.96,436.19z M502.18,436.19c-1.07,0-1.94,0.87-1.94,1.94s0.87,1.94,1.94,1.94h2.51
		c1.07,0,1.94-0.87,1.94-1.94s-0.87-1.94-1.94-1.94H502.18L502.18,436.19z M493.41,436.19c-1.07,0-1.94,0.87-1.94,1.94
		s0.87,1.94,1.94,1.94h2.51c1.07,0,1.94-0.87,1.94-1.94s-0.87-1.94-1.94-1.94H493.41L493.41,436.19z M474.6,436.19
		c-1.07,0-1.94,0.87-1.94,1.94s0.87,1.94,1.94,1.94h2.51c1.07,0,1.94-0.87,1.94-1.94s-0.87-1.94-1.94-1.94H474.6L474.6,436.19z
		 M465.82,436.19c-1.07,0-1.94,0.87-1.94,1.94s0.87,1.94,1.94,1.94h2.51c1.07,0,1.94-0.87,1.94-1.94s-0.87-1.94-1.94-1.94H465.82
		L465.82,436.19z M457.04,436.19c-1.07,0-1.94,0.87-1.94,1.94s0.87,1.94,1.94,1.94h2.51c1.07,0,1.94-0.87,1.94-1.94
		s-0.87-1.94-1.94-1.94H457.04L457.04,436.19z M531.71,447.46v-2.62c0-1.03-0.56-1.91-1.38-2.4L519.8,430.7v-51.67
		c0-6.08-4.95-11.03-11.03-11.03h-82.13c-6.08,0-11.03,4.95-11.03,11.03v31.9h3.88v-27.01h96.44v45.62h-67.81v3.88h68.92l7.73,8.62
		h-76.65v3.88h79.72v1.53c0,1.4-1.14,2.53-2.54,2.53h-77.19v3.88h77.19C528.83,453.87,531.71,450.99,531.71,447.46L531.71,447.46z
		 M515.92,380.05h-96.44v-1.02c0-3.94,3.21-7.15,7.15-7.15h82.13c3.94,0,7.15,3.21,7.15,7.15V380.05L515.92,380.05z M463.88,376.1
		c0,1.07,0.87,1.94,1.94,1.94h3.76c1.07,0,1.94-0.87,1.94-1.94c0-1.07-0.87-1.94-1.94-1.94h-3.76
		C464.75,374.16,463.88,375.02,463.88,376.1L463.88,376.1z M448.26,436.19c-0.06,0-0.1,0.03-0.16,0.03v3.82
		c0.05,0.01,0.1,0.03,0.16,0.03h2.51c1.07,0,1.94-0.87,1.94-1.94s-0.87-1.94-1.94-1.94H448.26L448.26,436.19z"/>
	<path class="st0" d="M348.3,481.07c0,1.07,0.87,1.94,1.94,1.94h2.51c1.07,0,1.94-0.87,1.94-1.94c0-1.07-0.87-1.94-1.94-1.94h-2.51
		C349.17,479.13,348.3,480,348.3,481.07L348.3,481.07z"/>
	<path class="st0" d="M357.08,481.07c0,1.07,0.87,1.94,1.94,1.94h2.51c1.07,0,1.94-0.87,1.94-1.94c0-1.07-0.87-1.94-1.94-1.94h-2.51
		C357.95,479.13,357.08,480,357.08,481.07L357.08,481.07z"/>
	<path class="st0" d="M365.86,481.07c0,1.07,0.87,1.94,1.94,1.94h2.51c1.07,0,1.94-0.87,1.94-1.94c0-1.07-0.87-1.94-1.94-1.94h-2.51
		C366.72,479.13,365.86,480,365.86,481.07L365.86,481.07z"/>
	<path class="st0" d="M374.63,481.07c0,1.07,0.87,1.94,1.94,1.94h2.51c1.07,0,1.94-0.87,1.94-1.94c0-1.07-0.87-1.94-1.94-1.94h-2.51
		C375.5,479.13,374.63,480,374.63,481.07L374.63,481.07z"/>
	<path class="st0" d="M383.41,481.07c0,1.07,0.87,1.94,1.94,1.94h2.51c1.07,0,1.94-0.87,1.94-1.94c0-1.07-0.87-1.94-1.94-1.94h-2.51
		C384.28,479.13,383.41,480,383.41,481.07L383.41,481.07z"/>
	<path class="st0" d="M392.19,481.07c0,1.07,0.87,1.94,1.94,1.94h2.51c1.07,0,1.94-0.87,1.94-1.94c0-1.07-0.87-1.94-1.94-1.94h-2.51
		C393.06,479.13,392.19,480,392.19,481.07L392.19,481.07z"/>
	<path class="st0" d="M400.97,481.07c0,1.07,0.87,1.94,1.94,1.94h2.51c1.07,0,1.94-0.87,1.94-1.94c0-1.07-0.87-1.94-1.94-1.94h-2.51
		C401.83,479.13,400.97,480,400.97,481.07L400.97,481.07z"/>
	<path class="st0" d="M419.78,481.07c0,1.07,0.87,1.94,1.94,1.94h2.51c1.07,0,1.94-0.87,1.94-1.94c0-1.07-0.87-1.94-1.94-1.94h-2.51
		C420.64,479.13,419.78,480,419.78,481.07L419.78,481.07z"/>
	<path class="st0" d="M428.55,481.07c0,1.07,0.87,1.94,1.94,1.94H433c1.07,0,1.94-0.87,1.94-1.94c0-1.07-0.87-1.94-1.94-1.94h-2.51
		C429.42,479.13,428.55,480,428.55,481.07L428.55,481.07z"/>
	<path class="st0" d="M437.33,481.07c0,1.07,0.87,1.94,1.94,1.94h2.51c1.07,0,1.94-0.87,1.94-1.94c0-1.07-0.87-1.94-1.94-1.94h-2.51
		C438.2,479.13,437.33,480,437.33,481.07L437.33,481.07z"/>
	<path class="st0" d="M376.41,447.87c-0.36,0.3-0.58,0.71-0.66,1.24c-0.04,0.35,0.02,0.66,0.18,0.95c0.16,0.28,0.38,0.54,0.64,0.78
		c0.26,0.23,0.54,0.44,0.84,0.63c0.29,0.18,0.54,0.36,0.75,0.52c0.71,0.53,1.41,1.06,2.11,1.59c0.69,0.53,1.39,1.06,2.11,1.59
		c0.31,0.22,0.61,0.46,0.92,0.7c0.31,0.24,0.64,0.42,1.01,0.52c0.47,0.12,0.88,0.11,1.24-0.03c0.36-0.14,0.64-0.36,0.84-0.66
		c0.2-0.3,0.31-0.64,0.31-1.04c0-0.4-0.12-0.78-0.37-1.15l-0.12-0.15c-0.92-0.69-1.83-1.39-2.73-2.11
		c-0.91-0.71-1.84-1.39-2.79-2.04c0.55-0.45,1.1-0.88,1.66-1.31c0.56-0.43,1.12-0.86,1.69-1.31c0.14-0.1,0.32-0.22,0.53-0.37
		c0.21-0.14,0.44-0.3,0.67-0.47c0.23-0.17,0.45-0.36,0.64-0.55c0.19-0.19,0.34-0.39,0.44-0.6c0.18-0.35,0.26-0.7,0.23-1.07
		c-0.03-0.37-0.14-0.69-0.32-0.98c-0.18-0.29-0.44-0.5-0.76-0.64c-0.33-0.14-0.7-0.16-1.13-0.06c-0.53,0.14-1,0.41-1.42,0.79
		c-0.42,0.39-0.83,0.74-1.24,1.07c-0.69,0.55-1.38,1.1-2.06,1.65c-0.68,0.55-1.37,1.09-2.06,1.62
		C377.15,447.27,376.76,447.57,376.41,447.87L376.41,447.87z"/>
	<path class="st0" d="M389.69,458.37c-0.23,0.45-0.33,0.95-0.29,1.5c0.04,0.49,0.21,0.87,0.5,1.14c0.29,0.28,0.63,0.45,1.01,0.53
		c0.38,0.08,0.74,0.05,1.1-0.11c0.36-0.15,0.62-0.41,0.78-0.78c1.1-2.46,2.18-4.93,3.25-7.4c1.07-2.47,2.14-4.96,3.22-7.46
		c0.31-0.71,0.61-1.42,0.92-2.12c0.31-0.7,0.61-1.41,0.92-2.12c0.04-0.1,0.13-0.28,0.27-0.55c0.14-0.26,0.28-0.55,0.41-0.87
		c0.13-0.31,0.25-0.63,0.35-0.95c0.1-0.32,0.14-0.59,0.12-0.84c-0.04-0.47-0.2-0.84-0.47-1.13c-0.27-0.29-0.6-0.46-0.96-0.54
		c-0.37-0.07-0.73-0.03-1.1,0.11c-0.37,0.14-0.67,0.42-0.92,0.82l-0.12,0.18c-0.61,1.4-1.22,2.81-1.83,4.23
		c-0.61,1.41-1.23,2.83-1.86,4.26c-0.22,0.55-0.43,1.03-0.61,1.43c-0.18,0.41-0.38,0.86-0.6,1.36c-0.21,0.5-0.42,0.98-0.63,1.45
		c-0.2,0.47-0.39,0.9-0.56,1.28c-0.17,0.39-0.3,0.67-0.38,0.86c-0.31,0.71-0.61,1.42-0.92,2.12c-0.31,0.7-0.61,1.41-0.92,2.12
		C390.15,457.43,389.92,457.92,389.69,458.37L389.69,458.37z"/>
	<path class="st0" d="M405.79,453.36c-0.26,0.41-0.41,0.82-0.43,1.24c-0.02,0.42,0.06,0.78,0.24,1.08s0.46,0.53,0.82,0.67
		c0.37,0.14,0.8,0.14,1.31,0c0.37-0.1,0.7-0.28,1.01-0.53c0.31-0.25,0.61-0.49,0.92-0.72c0.71-0.53,1.41-1.06,2.11-1.59
		c0.69-0.53,1.39-1.06,2.11-1.59c0.2-0.16,0.46-0.34,0.76-0.52c0.31-0.18,0.58-0.39,0.84-0.63c0.25-0.23,0.46-0.5,0.63-0.79
		c0.16-0.29,0.21-0.61,0.15-0.96c-0.1-0.49-0.31-0.87-0.63-1.14c-0.32-0.28-0.67-0.56-1.05-0.84c-0.33-0.26-0.57-0.46-0.73-0.58
		c-0.16-0.12-0.3-0.23-0.41-0.32c-0.11-0.09-0.23-0.19-0.37-0.29c-0.13-0.1-0.35-0.27-0.66-0.52c-0.47-0.39-0.94-0.76-1.4-1.13
		c-0.47-0.37-0.94-0.73-1.4-1.1c-0.29-0.22-0.59-0.47-0.92-0.75c-0.33-0.28-0.67-0.45-1.04-0.53c-0.43-0.1-0.8-0.08-1.13,0.08
		c-0.33,0.15-0.58,0.38-0.75,0.67c-0.17,0.29-0.27,0.62-0.29,0.99c-0.02,0.37,0.06,0.72,0.24,1.07c0.1,0.2,0.25,0.4,0.46,0.58
		c0.2,0.18,0.42,0.36,0.64,0.53c0.22,0.17,0.44,0.33,0.66,0.47c0.21,0.14,0.39,0.27,0.53,0.37c0.57,0.43,1.13,0.85,1.68,1.28
		c0.55,0.43,1.1,0.86,1.65,1.31c-0.92,0.65-1.82,1.32-2.7,2.01c-0.89,0.69-1.79,1.37-2.7,2.04L405.79,453.36L405.79,453.36z"/>
	<path class="st0" d="M392.19,419.03c0,1.07,0.87,1.94,1.94,1.94h3.76c1.07,0,1.94-0.87,1.94-1.94c0-1.07-0.87-1.94-1.94-1.94h-3.76
		C393.06,417.09,392.19,417.96,392.19,419.03L392.19,419.03z"/>
	<path class="st1" d="M386.19,453.35c-0.92-0.69-1.83-1.39-2.73-2.11c-0.91-0.71-1.84-1.39-2.79-2.04c0.55-0.45,1.1-0.88,1.66-1.31
		c0.56-0.43,1.12-0.86,1.69-1.31c0.14-0.1,0.32-0.22,0.53-0.37c0.21-0.14,0.44-0.3,0.67-0.47c0.23-0.17,0.45-0.36,0.64-0.55
		c0.19-0.19,0.34-0.39,0.44-0.6c0.18-0.35,0.26-0.7,0.23-1.07c-0.03-0.37-0.14-0.69-0.32-0.98c-0.18-0.29-0.44-0.5-0.76-0.64
		c-0.33-0.14-0.7-0.16-1.13-0.06c-0.53,0.14-1,0.41-1.42,0.79c-0.42,0.39-0.83,0.74-1.24,1.07c-0.69,0.55-1.38,1.1-2.06,1.65
		c-0.68,0.55-1.37,1.09-2.06,1.62c-0.41,0.31-0.79,0.61-1.14,0.9c-0.36,0.3-0.58,0.71-0.66,1.24c-0.04,0.35,0.02,0.66,0.18,0.95
		c0.16,0.28,0.38,0.54,0.64,0.78c0.26,0.23,0.54,0.44,0.84,0.63c0.29,0.18,0.54,0.36,0.75,0.52c0.71,0.53,1.41,1.06,2.11,1.59
		c0.69,0.53,1.39,1.06,2.11,1.59c0.31,0.22,0.61,0.46,0.92,0.7c0.31,0.24,0.64,0.42,1.01,0.52c0.47,0.12,0.88,0.11,1.24-0.03
		c0.36-0.14,0.64-0.36,0.84-0.66c0.2-0.3,0.31-0.64,0.31-1.04c0-0.4-0.12-0.78-0.37-1.14L386.19,453.35L386.19,453.35z"/>
	<path class="st1" d="M398.67,437.8c-0.61,1.4-1.22,2.81-1.83,4.23c-0.61,1.41-1.23,2.83-1.86,4.26c-0.22,0.55-0.43,1.03-0.61,1.43
		c-0.18,0.41-0.38,0.86-0.6,1.36c-0.21,0.5-0.42,0.98-0.63,1.45c-0.2,0.47-0.39,0.9-0.56,1.28c-0.17,0.39-0.3,0.67-0.38,0.86
		c-0.31,0.71-0.61,1.42-0.92,2.12c-0.31,0.7-0.61,1.41-0.92,2.12c-0.22,0.53-0.45,1.02-0.69,1.47c-0.23,0.45-0.33,0.95-0.29,1.5
		c0.04,0.49,0.21,0.87,0.5,1.14c0.29,0.28,0.63,0.45,1.01,0.54c0.38,0.08,0.74,0.04,1.1-0.11c0.36-0.15,0.62-0.41,0.78-0.78
		c1.1-2.46,2.18-4.93,3.25-7.4c1.07-2.47,2.14-4.96,3.22-7.46c0.31-0.71,0.61-1.42,0.92-2.12c0.31-0.7,0.61-1.41,0.92-2.12
		c0.04-0.1,0.13-0.28,0.27-0.55c0.14-0.26,0.28-0.55,0.41-0.87c0.13-0.31,0.25-0.63,0.35-0.95c0.1-0.32,0.14-0.59,0.12-0.84
		c-0.04-0.47-0.2-0.84-0.47-1.13c-0.27-0.29-0.6-0.46-0.96-0.54c-0.37-0.07-0.73-0.03-1.1,0.11c-0.37,0.14-0.67,0.42-0.92,0.82
		L398.67,437.8L398.67,437.8z"/>
	<path class="st1" d="M405.79,453.36c-0.26,0.41-0.41,0.82-0.43,1.24c-0.02,0.42,0.06,0.78,0.24,1.08c0.18,0.3,0.46,0.53,0.82,0.67
		c0.37,0.14,0.8,0.14,1.31,0c0.37-0.1,0.7-0.28,1.01-0.53c0.31-0.25,0.61-0.49,0.92-0.72c0.71-0.53,1.41-1.06,2.11-1.59
		c0.69-0.53,1.39-1.06,2.11-1.59c0.2-0.16,0.46-0.34,0.76-0.52c0.31-0.18,0.58-0.39,0.84-0.63c0.25-0.23,0.46-0.5,0.63-0.79
		c0.16-0.29,0.21-0.62,0.15-0.96c-0.1-0.49-0.31-0.87-0.63-1.14c-0.32-0.28-0.67-0.56-1.05-0.84c-0.33-0.26-0.57-0.46-0.73-0.58
		c-0.16-0.12-0.3-0.23-0.41-0.32c-0.11-0.09-0.23-0.19-0.37-0.29c-0.13-0.1-0.35-0.27-0.66-0.52c-0.47-0.39-0.94-0.76-1.4-1.13
		c-0.47-0.37-0.94-0.73-1.4-1.1c-0.29-0.22-0.59-0.47-0.92-0.75c-0.33-0.28-0.67-0.45-1.04-0.53c-0.43-0.1-0.8-0.08-1.13,0.08
		c-0.33,0.15-0.58,0.38-0.75,0.67c-0.17,0.29-0.27,0.62-0.29,0.99c-0.02,0.37,0.06,0.72,0.24,1.07c0.1,0.2,0.25,0.4,0.46,0.58
		c0.2,0.18,0.42,0.36,0.64,0.53c0.22,0.17,0.44,0.33,0.66,0.47c0.21,0.14,0.39,0.27,0.53,0.37c0.57,0.43,1.13,0.85,1.68,1.28
		c0.55,0.43,1.1,0.86,1.65,1.31c-0.92,0.65-1.82,1.32-2.7,2.01c-0.89,0.69-1.79,1.37-2.7,2.04L405.79,453.36L405.79,453.36z"/>
	<path class="st2" d="M453.6,496.81H338.42c-3.54,0-6.41-2.88-6.42-6.41v-2.62c0-1.54,1.25-2.8,2.8-2.8h122.42
		c1.54,0,2.8,1.26,2.8,2.8v2.62C460.02,493.93,457.14,496.81,453.6,496.81L453.6,496.81z M335.88,488.86v1.53
		c0,1.4,1.14,2.53,2.54,2.53H453.6c1.4,0,2.53-1.14,2.53-2.53v-1.53H335.88L335.88,488.86z M457.22,488.86h0.01H457.22
		L457.22,488.86z"/>
	<path class="st2" d="M397.89,420.97h-3.76c-1.07,0-1.94-0.87-1.94-1.94c0-1.07,0.87-1.94,1.94-1.94h3.76
		c1.07,0,1.94,0.87,1.94,1.94C399.83,420.1,398.96,420.97,397.89,420.97L397.89,420.97z"/>
	<path class="st2" d="M446.17,426.86H345.85c-1.07,0-1.94-0.87-1.94-1.94c0-1.07,0.87-1.94,1.94-1.94h100.31
		c1.07,0,1.94,0.87,1.94,1.94C448.11,425.99,447.24,426.86,446.17,426.86L446.17,426.86z"/>
	<path class="st2" d="M457.45,488.9c-0.53,0-1.06-0.22-1.44-0.64l-11.29-12.58c-0.32-0.36-0.49-0.82-0.49-1.29v-52.41
		c0-3.94-3.21-7.15-7.15-7.15h-82.13c-3.94,0-7.15,3.21-7.15,7.15v52.41c0,0.48-0.18,0.94-0.5,1.29l-11.28,12.58
		c-0.72,0.8-1.94,0.86-2.74,0.15c-0.8-0.72-0.86-1.94-0.15-2.74l10.79-12.03v-51.67c0-6.08,4.95-11.03,11.03-11.03h82.13
		c6.08,0,11.03,4.95,11.03,11.03v51.67l10.79,12.03c0.71,0.8,0.65,2.02-0.15,2.74C458.38,488.74,457.91,488.9,457.45,488.9
		L457.45,488.9z"/>
	<path class="st2" d="M446.17,476.36H345.85c-1.07,0-1.94-0.87-1.94-1.94c0-1.07,0.87-1.94,1.94-1.94h100.31
		c1.07,0,1.94,0.87,1.94,1.94C448.11,475.49,447.24,476.36,446.17,476.36L446.17,476.36z"/>
	<path class="st2" d="M396.64,483.01h-2.51c-1.07,0-1.94-0.87-1.94-1.94c0-1.07,0.87-1.94,1.94-1.94h2.51
		c1.07,0,1.94,0.87,1.94,1.94C398.58,482.14,397.71,483.01,396.64,483.01L396.64,483.01z"/>
	<path class="st2" d="M405.41,483.01h-2.51c-1.07,0-1.94-0.87-1.94-1.94c0-1.07,0.87-1.94,1.94-1.94h2.51
		c1.07,0,1.94,0.87,1.94,1.94C407.35,482.14,406.49,483.01,405.41,483.01L405.41,483.01z"/>
	<path class="st2" d="M379.08,483.01h-2.51c-1.07,0-1.94-0.87-1.94-1.94c0-1.07,0.87-1.94,1.94-1.94h2.51
		c1.07,0,1.94,0.87,1.94,1.94C381.02,482.14,380.15,483.01,379.08,483.01L379.08,483.01z"/>
	<path class="st2" d="M387.86,483.01h-2.51c-1.07,0-1.94-0.87-1.94-1.94c0-1.07,0.87-1.94,1.94-1.94h2.51
		c1.07,0,1.94,0.87,1.94,1.94C389.8,482.14,388.93,483.01,387.86,483.01L387.86,483.01z"/>
	<path class="st2" d="M370.3,483.01h-2.51c-1.07,0-1.94-0.87-1.94-1.94c0-1.07,0.87-1.94,1.94-1.94h2.51c1.07,0,1.94,0.87,1.94,1.94
		C372.24,482.14,371.38,483.01,370.3,483.01L370.3,483.01z"/>
	<path class="st2" d="M352.75,483.01h-2.51c-1.07,0-1.94-0.87-1.94-1.94c0-1.07,0.87-1.94,1.94-1.94h2.51
		c1.07,0,1.94,0.87,1.94,1.94C354.69,482.14,353.82,483.01,352.75,483.01L352.75,483.01z"/>
	<path class="st2" d="M361.53,483.01h-2.51c-1.07,0-1.94-0.87-1.94-1.94c0-1.07,0.87-1.94,1.94-1.94h2.51
		c1.07,0,1.94,0.87,1.94,1.94C363.47,482.14,362.6,483.01,361.53,483.01L361.53,483.01z"/>
	<path class="st2" d="M433,483.01h-2.51c-1.07,0-1.94-0.87-1.94-1.94c0-1.07,0.87-1.94,1.94-1.94H433c1.07,0,1.94,0.87,1.94,1.94
		C434.94,482.14,434.07,483.01,433,483.01L433,483.01z"/>
	<path class="st2" d="M441.78,483.01h-2.51c-1.07,0-1.94-0.87-1.94-1.94c0-1.07,0.87-1.94,1.94-1.94h2.51
		c1.07,0,1.94,0.87,1.94,1.94C443.72,482.14,442.85,483.01,441.78,483.01L441.78,483.01z"/>
	<path class="st2" d="M424.22,483.01h-2.51c-1.07,0-1.94-0.87-1.94-1.94c0-1.07,0.87-1.94,1.94-1.94h2.51
		c1.07,0,1.94,0.87,1.94,1.94C426.16,482.14,425.29,483.01,424.22,483.01L424.22,483.01z"/>
	<path class="st3" d="M367.01,404.49c0,0,8.21-16.47,22.69-17.46"/>
	<polyline class="st2" points="398.31,386.44 383.59,382.2 384.31,392.65 398.31,386.44 	"/>
	<path class="st3" d="M505.03,460.44c0,0-8.21,16.47-22.69,17.46"/>
	<polyline class="st2" points="473.73,478.49 488.45,482.74 487.73,472.28 473.73,478.49 	"/>
</g>
</svg>
